<?xml version="1.0" encoding="utf-8"?>
<!-- Generator: Adobe Illustrator 15.0.2, SVG Export Plug-In  -->
<!DOCTYPE svg PUBLIC "-//W3C//DTD SVG 1.1//EN" "http://www.w3.org/Graphics/SVG/1.1/DTD/svg11.dtd" [
	<!ENTITY ns_flows "http://ns.adobe.com/Flows/1.0/">
]>
<svg version="1.1"
	 xmlns="http://www.w3.org/2000/svg" xmlns:xlink="http://www.w3.org/1999/xlink" xmlns:a="http://ns.adobe.com/AdobeSVGViewerExtensions/3.0/"
	 x="0px" y="0px" width="700px" height="250px" viewBox="5 4 700 250" enable-background="new 5 4 700 250" xml:space="preserve">
<defs>
</defs>
<rect fill="#0069AA" width="710" height="259"/>
<path fill="#FFFFFF" d="M95.712,43.623h5.111L111.622,69h-5.795l-2.304-5.651H92.868L90.564,69h-5.651L95.712,43.623z
	 M101.543,58.453l-3.348-8.171l-3.347,8.171H101.543z"/>
<path fill="#FFFFFF" d="M114.757,63.529v-9.143h-2.304v-4.679h2.304v-4.932h5.471v4.932h4.536v4.679h-4.536v8.243
	c0,1.26,0.54,1.872,1.764,1.872c1.008,0,1.908-0.252,2.7-0.684v4.392c-1.152,0.684-2.483,1.116-4.319,1.116
	C117.024,69.324,114.757,67.992,114.757,63.529z"/>
<path fill="#FFFFFF" d="M129.049,42.723h5.471V69h-5.471V42.723z"/>
<path fill="#FFFFFF" d="M138.516,63.457v-0.072c0-4.211,3.204-6.155,7.775-6.155c1.944,0,3.348,0.324,4.715,0.792v-0.324
	c0-2.268-1.404-3.527-4.139-3.527c-2.088,0-3.564,0.396-5.328,1.044l-1.368-4.176c2.124-0.936,4.211-1.548,7.487-1.548
	c2.988,0,5.147,0.792,6.516,2.16c1.439,1.439,2.087,3.563,2.087,6.155V69h-5.291v-2.088c-1.332,1.476-3.168,2.448-5.832,2.448
	C141.504,69.36,138.516,67.272,138.516,63.457z M151.079,62.197v-0.972c-0.936-0.432-2.16-0.72-3.492-0.72
	c-2.34,0-3.779,0.936-3.779,2.664v0.072c0,1.476,1.224,2.34,2.987,2.34C149.351,65.581,151.079,64.177,151.079,62.197z"/>
<path fill="#FFFFFF" d="M159.468,66.444l2.339-3.6c2.088,1.512,4.284,2.304,6.083,2.304c1.584,0,2.304-0.576,2.304-1.44v-0.072
	c0-1.188-1.872-1.584-3.996-2.232c-2.7-0.792-5.759-2.052-5.759-5.795v-0.072c0-3.923,3.167-6.119,7.055-6.119
	c2.448,0,5.111,0.828,7.199,2.232l-2.088,3.779c-1.908-1.116-3.815-1.8-5.219-1.8c-1.332,0-2.016,0.576-2.016,1.332v0.072
	c0,1.08,1.835,1.584,3.923,2.304c2.7,0.9,5.831,2.196,5.831,5.723v0.072c0,4.283-3.204,6.227-7.379,6.227
	C165.047,69.36,162.024,68.46,159.468,66.444z"/>
<path fill="#FFFFFF" d="M196.295,48.915h-7.667v-5.111h20.877v5.111h-7.667V69h-5.543V48.915z"/>
<path fill="#FFFFFF" d="M211.02,49.707h5.471v3.887c1.116-2.664,2.916-4.391,6.155-4.247v5.723h-0.288
	c-3.635,0-5.867,2.196-5.867,6.803V69h-5.471V49.707z"/>
<path fill="#FFFFFF" d="M224.016,63.457v-0.072c0-4.211,3.204-6.155,7.775-6.155c1.944,0,3.348,0.324,4.715,0.792v-0.324
	c0-2.268-1.404-3.527-4.139-3.527c-2.088,0-3.564,0.396-5.328,1.044l-1.368-4.176c2.124-0.936,4.211-1.548,7.487-1.548
	c2.988,0,5.147,0.792,6.516,2.16c1.439,1.439,2.087,3.563,2.087,6.155V69h-5.291v-2.088c-1.332,1.476-3.168,2.448-5.832,2.448
	C227.003,69.36,224.016,67.272,224.016,63.457z M236.578,62.197v-0.972c-0.936-0.432-2.16-0.72-3.492-0.72
	c-2.34,0-3.779,0.936-3.779,2.664v0.072c0,1.476,1.224,2.34,2.987,2.34C234.85,65.581,236.578,64.177,236.578,62.197z"/>
<path fill="#FFFFFF" d="M244.032,49.707h5.795l4.319,12.922l4.355-12.922h5.688l-7.595,19.438h-4.967L244.032,49.707z"/>
<path fill="#FFFFFF" d="M265.343,59.461v-0.072c0-5.507,3.924-10.042,9.539-10.042c6.443,0,9.395,5.003,9.395,10.475
	c0,0.432-0.036,0.936-0.072,1.439h-13.426c0.54,2.484,2.268,3.78,4.715,3.78c1.836,0,3.167-0.576,4.679-1.98l3.132,2.772
	c-1.8,2.231-4.392,3.6-7.883,3.6C269.627,69.432,265.343,65.364,265.343,59.461z M278.95,57.841
	c-0.324-2.448-1.764-4.104-4.067-4.104c-2.268,0-3.744,1.62-4.176,4.104H278.95z"/>
<path fill="#FFFFFF" d="M288.599,42.723h5.471V69h-5.471V42.723z"/>
<path fill="#FFFFFF" d="M311.134,43.803h2.88l9.179,13.75l9.179-13.75h2.88V69h-2.844V48.59l-9.179,13.499h-0.144l-9.179-13.462V69
	h-2.771V43.803z"/>
<path fill="#FFFFFF" d="M340.762,59.749v-0.072c0-5.363,3.779-9.683,8.927-9.683c5.507,0,8.674,4.392,8.674,9.827
	c0,0.36,0,0.576-0.035,0.9H343.57c0.396,4.031,3.24,6.299,6.551,6.299c2.556,0,4.355-1.043,5.867-2.627l1.728,1.548
	c-1.872,2.088-4.139,3.492-7.667,3.492C344.938,69.432,340.762,65.508,340.762,59.749z M355.556,58.669
	c-0.288-3.384-2.231-6.335-5.939-6.335c-3.24,0-5.688,2.7-6.047,6.335H355.556z"/>
<path fill="#FFFFFF" d="M362.146,59.749v-0.072c0-6.083,4.428-9.683,8.891-9.683c3.455,0,5.688,1.872,7.127,3.96V42.723h2.771V69
	h-2.771v-3.744c-1.512,2.232-3.707,4.14-7.127,4.14C366.574,69.396,362.146,65.868,362.146,59.749z M378.271,59.713v-0.072
	c0-4.283-3.275-7.163-6.73-7.163c-3.6,0-6.551,2.664-6.551,7.163v0.072c0,4.391,3.059,7.199,6.551,7.199
	C374.996,66.912,378.271,63.997,378.271,59.713z"/>
<path fill="#FFFFFF" d="M387.201,43.263h3.168v3.06h-3.168V43.263z M387.381,50.39h2.771V69h-2.771V50.39z"/>
<path fill="#FFFFFF" d="M395.445,59.785v-0.072c0-5.255,4.104-9.719,9.539-9.719c3.527,0,5.723,1.476,7.451,3.312L410.6,55.25
	c-1.477-1.547-3.132-2.808-5.651-2.808c-3.78,0-6.659,3.204-6.659,7.199v0.072c0,4.031,2.951,7.235,6.839,7.235
	c2.376,0,4.212-1.188,5.688-2.771l1.764,1.656c-1.872,2.087-4.104,3.6-7.595,3.6C399.549,69.432,395.445,65.004,395.445,59.785z"/>
<path fill="#FFFFFF" d="M415.749,63.601v-0.072c0-3.924,3.239-6.011,7.955-6.011c2.376,0,4.067,0.324,5.724,0.792v-0.648
	c0-3.348-2.053-5.076-5.544-5.076c-2.196,0-3.923,0.576-5.651,1.368l-0.828-2.268c2.053-0.936,4.068-1.548,6.768-1.548
	c2.627,0,4.643,0.684,6.012,2.052c1.26,1.26,1.908,3.06,1.908,5.436V69h-2.664v-2.808c-1.297,1.692-3.457,3.204-6.732,3.204
	C419.24,69.396,415.749,67.416,415.749,63.601z M429.463,62.161v-1.799c-1.367-0.396-3.203-0.792-5.471-0.792
	c-3.492,0-5.436,1.512-5.436,3.852v0.072c0,2.34,2.16,3.708,4.68,3.708C426.656,67.2,429.463,65.112,429.463,62.161z"/>
<path fill="#FFFFFF" d="M438.248,42.723h2.771V69h-2.771V42.723z"/>
<path fill="#FFFFFF" d="M458.984,43.803h2.844V69h-2.844V43.803z"/>
<path fill="#FFFFFF" d="M468.738,50.39h2.771v3.24c1.225-2.016,3.168-3.636,6.371-3.636c4.5,0,7.127,3.024,7.127,7.451V69h-2.771
	V58.129c0-3.456-1.871-5.615-5.146-5.615c-3.203,0-5.58,2.34-5.58,5.831V69h-2.771V50.39z"/>
<path fill="#FFFFFF" d="M489.367,66.625l1.404-1.98c2.016,1.512,4.248,2.375,6.443,2.375c2.232,0,3.852-1.152,3.852-2.951v-0.072
	c0-1.872-2.195-2.592-4.645-3.275c-2.914-0.828-6.154-1.836-6.154-5.255v-0.072c0-3.204,2.664-5.327,6.336-5.327
	c2.268,0,4.787,0.792,6.695,2.052l-1.262,2.088c-1.727-1.116-3.707-1.8-5.506-1.8c-2.195,0-3.6,1.152-3.6,2.7v0.072
	c0,1.764,2.303,2.448,4.787,3.204c2.879,0.864,5.975,1.98,5.975,5.327v0.072c0,3.527-2.916,5.579-6.623,5.579
	C494.406,69.36,491.455,68.316,489.367,66.625z"/>
<path fill="#FFFFFF" d="M508.555,61.945V50.39h2.771v10.871c0,3.456,1.871,5.616,5.146,5.616c3.168,0,5.58-2.34,5.58-5.832V50.39
	h2.736V69h-2.736v-3.24c-1.26,2.016-3.168,3.636-6.371,3.636C511.182,69.396,508.555,66.373,508.555,61.945z"/>
<path fill="#FFFFFF" d="M531.018,50.39h2.771v4.859c1.369-3.095,4.068-5.327,7.596-5.183v2.988h-0.217
	c-4.066,0-7.379,2.916-7.379,8.531V69h-2.771V50.39z"/>
<path fill="#FFFFFF" d="M543.295,63.601v-0.072c0-3.924,3.24-6.011,7.955-6.011c2.375,0,4.066,0.324,5.723,0.792v-0.648
	c0-3.348-2.051-5.076-5.543-5.076c-2.195,0-3.924,0.576-5.65,1.368l-0.828-2.268c2.051-0.936,4.066-1.548,6.766-1.548
	c2.629,0,4.645,0.684,6.012,2.052c1.26,1.26,1.908,3.06,1.908,5.436V69h-2.664v-2.808c-1.295,1.692-3.455,3.204-6.73,3.204
	C546.787,69.396,543.295,67.416,543.295,63.601z M557.01,62.161v-1.799c-1.369-0.396-3.205-0.792-5.473-0.792
	c-3.49,0-5.436,1.512-5.436,3.852v0.072c0,2.34,2.16,3.708,4.68,3.708C554.201,67.2,557.01,65.112,557.01,62.161z"/>
<path fill="#FFFFFF" d="M565.543,50.39h2.771v3.24c1.223-2.016,3.168-3.636,6.371-3.636c4.5,0,7.127,3.024,7.127,7.451V69h-2.771
	V58.129c0-3.456-1.873-5.615-5.148-5.615c-3.203,0-5.578,2.34-5.578,5.831V69h-2.771V50.39z"/>
<path fill="#FFFFFF" d="M586.566,59.785v-0.072c0-5.255,4.104-9.719,9.539-9.719c3.527,0,5.723,1.476,7.451,3.312l-1.836,1.943
	c-1.477-1.547-3.133-2.808-5.652-2.808c-3.779,0-6.658,3.204-6.658,7.199v0.072c0,4.031,2.951,7.235,6.84,7.235
	c2.375,0,4.211-1.188,5.686-2.771l1.764,1.656c-1.871,2.087-4.104,3.6-7.594,3.6C590.67,69.432,586.566,65.004,586.566,59.785z"/>
<path fill="#FFFFFF" d="M606.582,59.749v-0.072c0-5.363,3.781-9.683,8.928-9.683c5.508,0,8.676,4.392,8.676,9.827
	c0,0.36,0,0.576-0.037,0.9h-14.758c0.396,4.031,3.24,6.299,6.551,6.299c2.557,0,4.355-1.043,5.867-2.627l1.729,1.548
	c-1.873,2.088-4.141,3.492-7.668,3.492C610.758,69.432,606.582,65.508,606.582,59.749z M621.377,58.669
	c-0.287-3.384-2.232-6.335-5.939-6.335c-3.24,0-5.688,2.7-6.047,6.335H621.377z"/>
<path fill="#FFFFFF" d="M170.265,99.303h1.68l5.354,8.021l5.354-8.021h1.68V114h-1.659v-11.905l-5.354,7.874h-0.084l-5.354-7.853
	V114h-1.617V99.303z"/>
<path fill="#FFFFFF" d="M187.548,108.604v-0.042c0-3.128,2.205-5.648,5.207-5.648c3.212,0,5.06,2.562,5.06,5.732
	c0,0.21,0,0.336-0.021,0.525h-8.608c0.231,2.352,1.89,3.674,3.821,3.674c1.491,0,2.541-0.609,3.422-1.533l1.008,0.903
	c-1.092,1.218-2.415,2.037-4.472,2.037C189.983,114.252,187.548,111.963,187.548,108.604z M196.177,107.974
	c-0.168-1.974-1.302-3.695-3.464-3.695c-1.89,0-3.317,1.575-3.527,3.695H196.177z"/>
<path fill="#FFFFFF" d="M199.979,108.604v-0.042c0-3.128,2.205-5.648,5.207-5.648c3.212,0,5.06,2.562,5.06,5.732
	c0,0.21,0,0.336-0.021,0.525h-8.608c0.231,2.352,1.89,3.674,3.821,3.674c1.491,0,2.541-0.609,3.422-1.533l1.008,0.903
	c-1.092,1.218-2.415,2.037-4.472,2.037C202.415,114.252,199.979,111.963,199.979,108.604z M208.609,107.974
	c-0.168-1.974-1.302-3.695-3.464-3.695c-1.89,0-3.317,1.575-3.527,3.695H208.609z"/>
<path fill="#FFFFFF" d="M213.65,111.124v-6.551h-1.512v-1.428h1.512V99.87h1.617v3.275h3.443v1.428h-3.443v6.341
	c0,1.323,0.735,1.806,1.827,1.806c0.546,0,1.008-0.105,1.575-0.378v1.386c-0.567,0.294-1.176,0.462-1.953,0.462
	C214.973,114.189,213.65,113.328,213.65,111.124z"/>
<path fill="#FFFFFF" d="M220.665,112.614l0.819-1.155c1.176,0.882,2.478,1.386,3.758,1.386c1.302,0,2.247-0.672,2.247-1.722v-0.042
	c0-1.092-1.281-1.512-2.708-1.911c-1.701-0.483-3.59-1.071-3.59-3.065v-0.042c0-1.869,1.554-3.107,3.695-3.107
	c1.323,0,2.792,0.462,3.905,1.197l-0.735,1.218c-1.008-0.651-2.163-1.05-3.212-1.05c-1.281,0-2.1,0.672-2.1,1.575v0.042
	c0,1.029,1.344,1.428,2.792,1.869c1.68,0.504,3.485,1.155,3.485,3.107v0.042c0,2.058-1.701,3.254-3.863,3.254
	C223.604,114.21,221.882,113.601,220.665,112.614z"/>
<path fill="#DC894B" d="M237.422,111.858l1.554-1.848c1.407,1.218,2.834,1.911,4.64,1.911c1.596,0,2.604-0.756,2.604-1.848v-0.042
	c0-1.05-0.588-1.617-3.317-2.247c-3.128-0.756-4.892-1.68-4.892-4.388v-0.042c0-2.52,2.1-4.262,5.018-4.262
	c2.142,0,3.842,0.651,5.333,1.848l-1.386,1.953c-1.323-0.987-2.646-1.512-3.989-1.512c-1.512,0-2.394,0.777-2.394,1.743v0.042
	c0,1.134,0.672,1.638,3.506,2.31c3.107,0.756,4.703,1.869,4.703,4.304v0.042c0,2.75-2.163,4.388-5.249,4.388
	C241.306,114.21,239.186,113.433,237.422,111.858z"/>
<path fill="#DC894B" d="M250.946,108.52v-0.042c0-3.149,2.436-5.795,5.774-5.795c2.079,0,3.38,0.777,4.43,1.911l-1.596,1.701
	c-0.777-0.819-1.596-1.386-2.855-1.386c-1.848,0-3.212,1.596-3.212,3.527v0.042c0,1.974,1.365,3.548,3.317,3.548
	c1.197,0,2.079-0.546,2.876-1.365l1.533,1.512c-1.092,1.218-2.373,2.079-4.535,2.079
	C253.381,114.252,250.946,111.669,250.946,108.52z"/>
<path fill="#DC894B" d="M263.546,98.673h2.541v5.942c0.714-1.029,1.743-1.932,3.464-1.932c2.499,0,3.947,1.68,3.947,4.241V114
	h-2.541v-6.299c0-1.722-0.861-2.708-2.373-2.708c-1.47,0-2.499,1.029-2.499,2.75V114h-2.541V98.673z"/>
<path fill="#DC894B" d="M275.957,108.499v-0.042c0-3.17,2.247-5.774,5.417-5.774c3.527,0,5.312,2.771,5.312,5.963
	c0,0.231-0.021,0.462-0.042,0.714h-8.146c0.273,1.806,1.554,2.813,3.191,2.813c1.239,0,2.121-0.462,3.002-1.323l1.491,1.323
	c-1.05,1.26-2.499,2.079-4.535,2.079C278.434,114.252,275.957,111.921,275.957,108.499z M284.166,107.68
	c-0.168-1.638-1.134-2.918-2.813-2.918c-1.554,0-2.646,1.197-2.876,2.918H284.166z"/>
<path fill="#DC894B" d="M289.25,102.914h2.541v1.701c0.714-1.029,1.743-1.932,3.464-1.932c2.499,0,3.947,1.68,3.947,4.241V114
	h-2.541v-6.299c0-1.722-0.861-2.708-2.373-2.708c-1.47,0-2.499,1.029-2.499,2.75V114h-2.541V102.914z"/>
<path fill="#DC894B" d="M302.248,116.079l0.945-1.911c1.197,0.735,2.436,1.176,3.947,1.176c2.268,0,3.506-1.176,3.506-3.401v-0.861
	c-0.924,1.197-2.079,2.037-3.905,2.037c-2.604,0-5.039-1.932-5.039-5.186v-0.042c0-3.275,2.457-5.207,5.039-5.207
	c1.869,0,3.023,0.861,3.884,1.89v-1.659h2.541v8.818c0,1.869-0.483,3.254-1.407,4.178c-1.008,1.008-2.562,1.491-4.556,1.491
	C305.376,117.401,303.676,116.939,302.248,116.079z M310.667,107.911v-0.042c0-1.806-1.491-3.044-3.254-3.044
	s-3.149,1.218-3.149,3.044v0.042c0,1.806,1.407,3.044,3.149,3.044C309.177,110.956,310.667,109.717,310.667,107.911z"/>
<path fill="#DC894B" d="M315.751,108.499v-0.042c0-3.17,2.247-5.774,5.417-5.774c3.527,0,5.312,2.771,5.312,5.963
	c0,0.231-0.021,0.462-0.042,0.714h-8.146c0.273,1.806,1.554,2.813,3.191,2.813c1.239,0,2.121-0.462,3.002-1.323l1.491,1.323
	c-1.05,1.26-2.499,2.079-4.535,2.079C318.229,114.252,315.751,111.921,315.751,108.499z M323.96,107.68
	c-0.168-1.638-1.134-2.918-2.813-2.918c-1.554,0-2.646,1.197-2.876,2.918H323.96z"/>
<path fill="#DC894B" d="M329.044,102.914h2.541v1.701c0.714-1.029,1.743-1.932,3.464-1.932c2.499,0,3.947,1.68,3.947,4.241V114
	h-2.541v-6.299c0-1.722-0.861-2.708-2.373-2.708c-1.47,0-2.499,1.029-2.499,2.75V114h-2.541V102.914z"/>
<path fill="#DC894B" d="M347.397,99.303h2.855l4.43,11.296l4.409-11.296h2.793l-6.089,14.802h-2.289L347.397,99.303z"/>
<path fill="#DC894B" d="M363.736,98.799h2.729v2.415h-2.729V98.799z M363.841,102.914h2.54V114h-2.54V102.914z"/>
<path fill="#DC894B" d="M368.797,112.551l1.134-1.722c1.218,0.903,2.499,1.365,3.632,1.365c1.092,0,1.723-0.462,1.723-1.197v-0.042
	c0-0.861-1.176-1.155-2.479-1.554c-1.637-0.462-3.464-1.134-3.464-3.254v-0.042c0-2.1,1.743-3.38,3.947-3.38
	c1.386,0,2.897,0.483,4.073,1.26l-1.008,1.806c-1.07-0.651-2.205-1.05-3.129-1.05c-0.986,0-1.553,0.462-1.553,1.092v0.042
	c0,0.819,1.196,1.155,2.498,1.575c1.617,0.504,3.443,1.239,3.443,3.233v0.042c0,2.331-1.806,3.485-4.115,3.485
	C371.926,114.21,370.183,113.643,368.797,112.551z"/>
<path fill="#DC894B" d="M379.485,110.809v-0.042c0-2.394,1.868-3.569,4.577-3.569c1.238,0,2.121,0.189,2.981,0.462v-0.273
	c0-1.575-0.966-2.415-2.751-2.415c-1.238,0-2.162,0.273-3.17,0.693l-0.672-1.995c1.218-0.546,2.414-0.903,4.178-0.903
	c1.659,0,2.898,0.441,3.675,1.239c0.819,0.798,1.196,1.974,1.196,3.422V114h-2.477v-1.386c-0.756,0.903-1.911,1.617-3.611,1.617
	C381.333,114.231,379.485,113.034,379.485,110.809z M387.086,110.011v-0.756c-0.65-0.252-1.512-0.441-2.52-0.441
	c-1.638,0-2.604,0.693-2.604,1.848v0.042c0,1.071,0.945,1.68,2.162,1.68C385.805,112.383,387.086,111.417,387.086,110.011z"/>
<path fill="#FFFFFF" d="M399.33,99.303h6.32c1.805,0,3.254,0.546,4.178,1.47c0.714,0.714,1.134,1.743,1.134,2.897v0.042
	c0,2.436-1.68,3.863-3.989,4.283l4.514,6.005h-2.036l-4.263-5.711h-4.199V114h-1.658V99.303z M405.503,106.798
	c2.204,0,3.779-1.134,3.779-3.023v-0.042c0-1.806-1.386-2.897-3.759-2.897h-4.535v5.963H405.503z"/>
<path fill="#FFFFFF" d="M413.357,108.604v-0.042c0-3.128,2.205-5.648,5.207-5.648c3.213,0,5.061,2.562,5.061,5.732
	c0,0.21,0,0.336-0.021,0.525h-8.607c0.23,2.352,1.889,3.674,3.82,3.674c1.491,0,2.541-0.609,3.423-1.533l1.008,0.903
	c-1.092,1.218-2.415,2.037-4.472,2.037C415.793,114.252,413.357,111.963,413.357,108.604z M421.987,107.974
	c-0.168-1.974-1.302-3.695-3.464-3.695c-1.891,0-3.318,1.575-3.527,3.695H421.987z"/>
<path fill="#FFFFFF" d="M435.176,111.816c-0.883,1.302-2.163,2.415-4.158,2.415c-2.604,0-5.186-2.058-5.186-5.627v-0.042
	c0-3.548,2.582-5.648,5.186-5.648c2.016,0,3.318,1.092,4.158,2.31v-2.079h1.616v14.214h-1.616V111.816z M435.238,108.583v-0.042
	c0-2.499-1.91-4.178-3.926-4.178c-2.1,0-3.822,1.554-3.822,4.178v0.042c0,2.562,1.785,4.199,3.822,4.199
	C433.328,112.782,435.238,111.082,435.238,108.583z"/>
<path fill="#FFFFFF" d="M440.237,109.885v-6.74h1.616v6.341c0,2.016,1.092,3.275,3.003,3.275c1.848,0,3.255-1.365,3.255-3.401
	v-6.215h1.596V114h-1.596v-1.89c-0.735,1.176-1.848,2.121-3.717,2.121C441.77,114.231,440.237,112.467,440.237,109.885z"/>
<path fill="#FFFFFF" d="M453.383,98.988h1.848v1.785h-1.848V98.988z M453.488,103.145h1.617V114h-1.617V103.145z"/>
<path fill="#FFFFFF" d="M458.864,103.145h1.616v2.834c0.799-1.806,2.373-3.107,4.431-3.023v1.743h-0.126
	c-2.373,0-4.305,1.701-4.305,4.976V114h-1.616V103.145z"/>
<path fill="#FFFFFF" d="M466.235,108.604v-0.042c0-3.128,2.204-5.648,5.207-5.648c3.212,0,5.06,2.562,5.06,5.732
	c0,0.21,0,0.336-0.021,0.525h-8.608c0.23,2.352,1.89,3.674,3.821,3.674c1.491,0,2.54-0.609,3.423-1.533l1.008,0.903
	c-1.092,1.218-2.415,2.037-4.473,2.037C468.671,114.252,466.235,111.963,466.235,108.604z M474.865,107.974
	c-0.168-1.974-1.303-3.695-3.465-3.695c-1.89,0-3.317,1.575-3.527,3.695H474.865z"/>
<path fill="#FFFFFF" d="M479.34,103.145h1.616v1.827c0.714-1.071,1.68-2.058,3.507-2.058c1.764,0,2.896,0.945,3.484,2.163
	c0.777-1.197,1.932-2.163,3.822-2.163c2.498,0,4.031,1.68,4.031,4.367V114h-1.617v-6.341c0-2.1-1.05-3.275-2.813-3.275
	c-1.638,0-2.981,1.218-2.981,3.359V114h-1.617v-6.383c0-2.037-1.07-3.233-2.792-3.233s-3.023,1.428-3.023,3.422V114h-1.616V103.145z
	"/>
<path fill="#FFFFFF" d="M498.639,108.604v-0.042c0-3.128,2.204-5.648,5.207-5.648c3.212,0,5.06,2.562,5.06,5.732
	c0,0.21,0,0.336-0.021,0.525h-8.609c0.231,2.352,1.891,3.674,3.822,3.674c1.49,0,2.54-0.609,3.422-1.533l1.008,0.903
	c-1.092,1.218-2.414,2.037-4.473,2.037C501.074,114.252,498.639,111.963,498.639,108.604z M507.268,107.974
	c-0.168-1.974-1.302-3.695-3.465-3.695c-1.889,0-3.316,1.575-3.527,3.695H507.268z"/>
<path fill="#FFFFFF" d="M511.742,103.145h1.616v1.89c0.714-1.176,1.848-2.121,3.716-2.121c2.625,0,4.158,1.764,4.158,4.346V114
	h-1.617v-6.341c0-2.016-1.092-3.275-3.002-3.275c-1.869,0-3.255,1.365-3.255,3.401V114h-1.616V103.145z"/>
<path fill="#FFFFFF" d="M525.244,111.124v-6.551h-1.512v-1.428h1.512V99.87h1.617v3.275h3.443v1.428h-3.443v6.341
	c0,1.323,0.734,1.806,1.826,1.806c0.547,0,1.008-0.105,1.575-0.378v1.386c-0.567,0.294-1.176,0.462-1.952,0.462
	C526.567,114.189,525.244,113.328,525.244,111.124z"/>
<path fill="#FFFFFF" d="M532.259,112.614l0.819-1.155c1.176,0.882,2.477,1.386,3.758,1.386c1.302,0,2.246-0.672,2.246-1.722v-0.042
	c0-1.092-1.28-1.512-2.708-1.911c-1.7-0.483-3.591-1.071-3.591-3.065v-0.042c0-1.869,1.555-3.107,3.695-3.107
	c1.323,0,2.793,0.462,3.906,1.197l-0.735,1.218c-1.008-0.651-2.163-1.05-3.212-1.05c-1.281,0-2.1,0.672-2.1,1.575v0.042
	c0,1.029,1.344,1.428,2.792,1.869c1.68,0.504,3.485,1.155,3.485,3.107v0.042c0,2.058-1.701,3.254-3.863,3.254
	C535.198,114.21,533.477,113.601,532.259,112.614z"/>
<path fill="#FFFFFF" d="M258.485,137.059l1.029-1.218c1.533,1.386,3.002,2.079,5.039,2.079c1.974,0,3.275-1.051,3.275-2.499v-0.042
	c0-1.365-0.735-2.142-3.821-2.793c-3.38-0.734-4.934-1.826-4.934-4.241v-0.042c0-2.31,2.037-4.01,4.829-4.01
	c2.142,0,3.674,0.609,5.165,1.806l-0.966,1.281c-1.365-1.113-2.729-1.596-4.241-1.596c-1.911,0-3.128,1.05-3.128,2.373v0.042
	c0,1.386,0.756,2.163,3.989,2.855c3.275,0.714,4.787,1.911,4.787,4.157v0.042c0,2.52-2.1,4.157-5.018,4.157
	C262.16,139.41,260.249,138.633,258.485,137.059z"/>
<path fill="#FFFFFF" d="M273.081,136.324v-6.551h-1.512v-1.428h1.512v-3.275h1.617v3.275h3.443v1.428h-3.443v6.34
	c0,1.323,0.735,1.807,1.827,1.807c0.546,0,1.008-0.105,1.575-0.379v1.387c-0.567,0.293-1.176,0.461-1.953,0.461
	C274.403,139.389,273.081,138.528,273.081,136.324z"/>
<path fill="#FFFFFF" d="M280.178,136.051v-0.042c0-2.288,1.89-3.507,4.64-3.507c1.386,0,2.373,0.189,3.338,0.463v-0.379
	c0-1.952-1.197-2.96-3.233-2.96c-1.281,0-2.289,0.336-3.296,0.798l-0.483-1.323c1.197-0.546,2.373-0.903,3.947-0.903
	c1.533,0,2.708,0.399,3.506,1.197c0.735,0.735,1.113,1.785,1.113,3.17v6.635h-1.554v-1.638c-0.756,0.986-2.016,1.869-3.926,1.869
	C282.215,139.432,280.178,138.276,280.178,136.051z M288.178,135.211v-1.05c-0.798-0.231-1.869-0.462-3.191-0.462
	c-2.037,0-3.17,0.882-3.17,2.246v0.043c0,1.364,1.26,2.162,2.729,2.162C286.54,138.15,288.178,136.933,288.178,135.211z"/>
<path fill="#FFFFFF" d="M293.156,128.345h1.617v2.834c0.798-1.806,2.373-3.107,4.43-3.023v1.743h-0.126
	c-2.373,0-4.304,1.701-4.304,4.976v4.325h-1.617V128.345z"/>
<path fill="#FFFFFF" d="M302.228,136.324v-6.551h-1.512v-1.428h1.512v-3.275h1.617v3.275h3.443v1.428h-3.443v6.34
	c0,1.323,0.735,1.807,1.827,1.807c0.546,0,1.008-0.105,1.575-0.379v1.387c-0.567,0.293-1.176,0.461-1.953,0.461
	C303.551,139.389,302.228,138.528,302.228,136.324z"/>
<path fill="#FFFFFF" d="M309.242,137.814l0.819-1.154c1.176,0.881,2.478,1.385,3.758,1.385c1.302,0,2.247-0.672,2.247-1.721v-0.043
	c0-1.092-1.281-1.512-2.708-1.91c-1.701-0.482-3.59-1.07-3.59-3.065v-0.042c0-1.869,1.554-3.107,3.695-3.107
	c1.323,0,2.792,0.462,3.905,1.197l-0.735,1.217c-1.008-0.65-2.163-1.049-3.212-1.049c-1.281,0-2.1,0.672-2.1,1.575v0.042
	c0,1.028,1.344,1.428,2.792,1.868c1.68,0.504,3.485,1.155,3.485,3.107v0.043c0,2.057-1.701,3.254-3.863,3.254
	C312.182,139.41,310.46,138.801,309.242,137.814z"/>
<path fill="#FFFFFF" d="M326.083,136.051v-0.042c0-2.288,1.89-3.507,4.64-3.507c1.386,0,2.373,0.189,3.338,0.463v-0.379
	c0-1.952-1.197-2.96-3.233-2.96c-1.281,0-2.289,0.336-3.296,0.798l-0.483-1.323c1.197-0.546,2.373-0.903,3.947-0.903
	c1.533,0,2.708,0.399,3.506,1.197c0.735,0.735,1.113,1.785,1.113,3.17v6.635h-1.554v-1.638c-0.756,0.986-2.016,1.869-3.926,1.869
	C328.12,139.432,326.083,138.276,326.083,136.051z M334.083,135.211v-1.05c-0.798-0.231-1.869-0.462-3.191-0.462
	c-2.037,0-3.17,0.882-3.17,2.246v0.043c0,1.364,1.26,2.162,2.729,2.162C332.445,138.15,334.083,136.933,334.083,135.211z"/>
<path fill="#FFFFFF" d="M339.523,136.324v-6.551h-1.512v-1.428h1.512v-3.275h1.617v3.275h3.443v1.428h-3.443v6.34
	c0,1.323,0.735,1.807,1.827,1.807c0.546,0,1.008-0.105,1.575-0.379v1.387c-0.567,0.293-1.176,0.461-1.953,0.461
	C340.846,139.389,339.523,138.528,339.523,136.324z"/>
<path fill="#FFFFFF" d="M362.517,127.484c-1.028-0.84-2.058-1.344-3.171-1.512v5.186c3.191,0.715,4.535,1.932,4.535,4.074
	c0,2.268-1.848,3.8-4.472,3.968v2.058h-1.344v-2.1c-1.868-0.168-3.485-0.902-4.955-2.162l0.945-1.26
	c1.26,1.133,2.499,1.826,4.074,2.016v-5.271c-3.108-0.735-4.473-1.868-4.473-4.073v-0.021c0-2.163,1.827-3.758,4.409-3.884v-1.218
	h1.344v1.26c1.575,0.168,2.771,0.735,4.011,1.68L362.517,127.484z M358.129,130.865v-4.956c-1.785,0.084-2.856,1.092-2.856,2.373
	C355.273,129.479,355.819,130.256,358.129,130.865z M359.346,132.754v5.061c1.807-0.105,2.919-1.092,2.919-2.457v-0.021
	C362.265,134.098,361.656,133.363,359.346,132.754z"/>
<path fill="#FFFFFF" d="M369.049,126.12l-2.771,0.861l-0.399-1.344l3.591-1.239h1.217V139.2h-1.637V126.12z"/>
<path fill="#FFFFFF" d="M388.408,122.445h1.491l-9.742,19.442h-1.491L388.408,122.445z"/>
<path fill="#FFFFFF" d="M397.063,136.051v-0.042c0-2.288,1.889-3.507,4.64-3.507c1.386,0,2.372,0.189,3.339,0.463v-0.379
	c0-1.952-1.197-2.96-3.234-2.96c-1.28,0-2.288,0.336-3.296,0.798l-0.483-1.323c1.197-0.546,2.373-0.903,3.947-0.903
	c1.533,0,2.709,0.399,3.507,1.197c0.735,0.735,1.112,1.785,1.112,3.17v6.635h-1.553v-1.638c-0.756,0.986-2.016,1.869-3.927,1.869
	C399.099,139.432,397.063,138.276,397.063,136.051z M405.062,135.211v-1.05c-0.798-0.231-1.868-0.462-3.191-0.462
	c-2.036,0-3.171,0.882-3.171,2.246v0.043c0,1.364,1.26,2.162,2.73,2.162C403.424,138.15,405.062,136.933,405.062,135.211z"/>
<path fill="#FFFFFF" d="M415.709,133.805v-0.043c0-3.548,2.583-5.647,5.187-5.647c2.016,0,3.317,1.092,4.157,2.31v-6.551h1.617
	V139.2h-1.617v-2.184c-0.882,1.302-2.162,2.415-4.157,2.415C418.292,139.432,415.709,137.373,415.709,133.805z M425.115,133.783
	v-0.042c0-2.499-1.91-4.178-3.926-4.178c-2.1,0-3.821,1.554-3.821,4.178v0.042c0,2.562,1.784,4.199,3.821,4.199
	C423.205,137.982,425.115,136.281,425.115,133.783z"/>
<path fill="#FFFFFF" d="M429.465,136.051v-0.042c0-2.288,1.889-3.507,4.64-3.507c1.386,0,2.372,0.189,3.339,0.463v-0.379
	c0-1.952-1.197-2.96-3.234-2.96c-1.28,0-2.288,0.336-3.296,0.798l-0.483-1.323c1.197-0.546,2.373-0.903,3.947-0.903
	c1.533,0,2.709,0.399,3.507,1.197c0.735,0.735,1.112,1.785,1.112,3.17v6.635h-1.553v-1.638c-0.756,0.986-2.016,1.869-3.927,1.869
	C431.501,139.432,429.465,138.276,429.465,136.051z M437.464,135.211v-1.05c-0.798-0.231-1.868-0.462-3.191-0.462
	c-2.036,0-3.171,0.882-3.171,2.246v0.043c0,1.364,1.26,2.162,2.73,2.162C435.826,138.15,437.464,136.933,437.464,135.211z"/>
<path fill="#FFFFFF" d="M450.148,128.345h1.721l-4.556,11.211c-0.924,2.247-1.974,3.066-3.611,3.066
	c-0.903,0-1.575-0.189-2.31-0.547l0.546-1.28c0.524,0.272,1.008,0.399,1.7,0.399c0.967,0,1.575-0.504,2.227-2.037l-4.935-10.813
	h1.784l3.947,9.049L450.148,128.345z"/>
<rect x="1" y="176" fill="#6698C9" width="708" height="80"/>
<path fill="#FFFFFF" d="M475,215.5c0,8.008-6.492,14.5-14.5,14.5h-211c-8.008,0-14.5-6.492-14.5-14.5l0,0
	c0-8.008,6.492-14.5,14.5-14.5h211C468.508,201,475,207.492,475,215.5L475,215.5z"/>
<path fill="#0069AA" d="M255.003,211.231h1.599v7.645h4.784v1.456h-6.383V211.231z"/>
<path fill="#0069AA" d="M263.05,211.231h6.748v1.431h-5.148v2.366h4.563v1.43h-4.563v2.444h5.213v1.43h-6.813V211.231z"/>
<path fill="#0069AA" d="M274.984,211.167h1.482l4.004,9.165h-1.69l-0.923-2.197h-4.303l-0.936,2.197h-1.638L274.984,211.167z
	 M277.272,216.718l-1.573-3.64l-1.56,3.64H277.272z"/>
<path fill="#0069AA" d="M282.03,211.231h4.056c1.144,0,2.041,0.338,2.626,0.91c0.481,0.494,0.754,1.17,0.754,1.963v0.026
	c0,1.495-0.897,2.392-2.158,2.756l2.457,3.445h-1.898l-2.236-3.172h-2.002v3.172h-1.599V211.231z M285.97,215.743
	c1.144,0,1.872-0.599,1.872-1.521v-0.025c0-0.976-0.702-1.509-1.885-1.509h-2.327v3.056H285.97z"/>
<path fill="#0069AA" d="M291.429,211.231h1.482l4.875,6.293v-6.293h1.573v9.101h-1.339l-5.018-6.475v6.475h-1.573V211.231z"/>
<path fill="#0069AA" d="M305.599,211.231h1.703l2.769,4.304l2.769-4.304h1.703v9.101h-1.599v-6.526l-2.873,4.29h-0.052l-2.847-4.264
	v6.5h-1.573V211.231z"/>
<path fill="#0069AA" d="M316.48,215.808v-0.025c0-2.562,1.976-4.707,4.771-4.707c2.795,0,4.745,2.119,4.745,4.681v0.026
	c0,2.561-1.976,4.706-4.771,4.706S316.48,218.369,316.48,215.808z M324.319,215.808v-0.025c0-1.769-1.287-3.237-3.094-3.237
	s-3.068,1.442-3.068,3.211v0.026c0,1.768,1.287,3.224,3.094,3.224S324.319,217.576,324.319,215.808z"/>
<path fill="#0069AA" d="M327.933,211.231h4.056c1.144,0,2.041,0.338,2.626,0.91c0.481,0.494,0.754,1.17,0.754,1.963v0.026
	c0,1.495-0.897,2.392-2.158,2.756l2.457,3.445h-1.898l-2.236-3.172h-2.002v3.172h-1.599V211.231z M331.872,215.743
	c1.144,0,1.872-0.599,1.872-1.521v-0.025c0-0.976-0.702-1.509-1.885-1.509h-2.327v3.056H331.872z"/>
<path fill="#0069AA" d="M337.332,211.231h6.748v1.431h-5.148v2.366h4.563v1.43h-4.563v2.444h5.213v1.43h-6.813V211.231z"/>
<polygon fill="#0069AA" points="458.75,215.125 449,209.496 449,213 439,213 439,218 449,218 449,220.754 "/>
</svg>
