<?xml version="1.0" encoding="utf-8"?>
<!-- Generator: Adobe Illustrator 15.0.2, SVG Export Plug-In  -->
<!DOCTYPE svg PUBLIC "-//W3C//DTD SVG 1.1//EN" "http://www.w3.org/Graphics/SVG/1.1/DTD/svg11.dtd" [
	<!ENTITY ns_flows "http://ns.adobe.com/Flows/1.0/">
]>
<svg version="1.1"
	 xmlns="http://www.w3.org/2000/svg" xmlns:xlink="http://www.w3.org/1999/xlink" xmlns:a="http://ns.adobe.com/AdobeSVGViewerExtensions/3.0/"
	 x="0px" y="0px" width="45px" height="45px" viewBox="-0.454 -0.452 45 45" enable-background="new -0.454 -0.452 45 45"
	 xml:space="preserve">
<defs>
</defs>
<rect fill="#CA2128" width="44.093" height="44.096"/>
<path fill="#FFFFFF" d="M22.045,6.101c-8.806,0-15.947,7.137-15.947,15.947c0,6.528,3.925,12.14,9.55,14.606
	c-0.051-1.116-0.012-2.451,0.273-3.663c0.307-1.296,2.052-8.691,2.052-8.691s-0.508-1.018-0.508-2.521
	c0-2.36,1.372-4.129,3.074-4.129c1.448,0,2.152,1.091,2.152,2.396c0,1.456-0.931,3.638-1.409,5.66
	c-0.397,1.692,0.849,3.068,2.516,3.068c3.021,0,5.059-3.88,5.059-8.479c0-3.493-2.355-6.11-6.639-6.11
	c-4.837,0-7.852,3.608-7.852,7.638c0,1.391,0.412,2.368,1.055,3.128c0.297,0.347,0.336,0.489,0.227,0.887
	c-0.071,0.295-0.248,1.001-0.324,1.281c-0.104,0.403-0.433,0.549-0.798,0.399c-2.228-0.908-3.267-3.348-3.267-6.095
	c0-4.526,3.82-9.961,11.401-9.961c6.086,0,10.096,4.409,10.096,9.134c0,6.258-3.48,10.933-8.605,10.933
	c-1.726,0-3.341-0.932-3.898-1.986c0,0-0.928,3.675-1.118,4.383c-0.342,1.229-1.002,2.46-1.609,3.415
	c1.433,0.423,2.95,0.655,4.521,0.655c8.806,0,15.951-7.141,15.951-15.947C37.996,13.237,30.851,6.101,22.045,6.101z"/>
</svg>
