<?xml version="1.0" encoding="utf-8"?>
<!-- Generator: Adobe Illustrator 15.0.2, SVG Export Plug-In  -->
<!DOCTYPE svg PUBLIC "-//W3C//DTD SVG 1.1//EN" "http://www.w3.org/Graphics/SVG/1.1/DTD/svg11.dtd" [
	<!ENTITY ns_flows "http://ns.adobe.com/Flows/1.0/">
]>
<svg version="1.1"
	 xmlns="http://www.w3.org/2000/svg" xmlns:xlink="http://www.w3.org/1999/xlink" xmlns:a="http://ns.adobe.com/AdobeSVGViewerExtensions/3.0/"
	 x="0px" y="0px" width="45px" height="45px" viewBox="-0.918 -0.947 45 45" enable-background="new -0.918 -0.947 45 45"
	 xml:space="preserve">
<defs>
</defs>
<path fill-rule="evenodd" clip-rule="evenodd" fill="#E77D24" d="M0.07,0.323c0,3.447,0,6.895,0,10.342
	c10.135,0.331,17.66,4.15,22.947,9.481c5.288,5.332,9.188,12.775,9.48,22.948c3.557,0,7.109,0,10.666,0
	c-0.133-13.813-5.813-23.072-12.604-30.381C23.756,5.39,13.606,0.547,0.177,0C0.052,0.018,0.061,0.17,0.07,0.323z"/>
<path fill-rule="evenodd" clip-rule="evenodd" fill="#E77D24" d="M0.07,16.484c0,3.195,0,6.391,0,9.587
	c10.476,0.871,16.157,6.54,17.022,17.022c3.303,0,6.607,0,9.911,0c-0.149-8.237-3.344-14.44-7.865-18.961
	C14.91,19.904,8.171,16.117,0.177,16.16C0.052,16.179,0.061,16.331,0.07,16.484z"/>
<path fill-rule="evenodd" clip-rule="evenodd" fill="#E77D24" d="M1.04,40.401c0.814,1.251,2.556,2.543,4.632,2.693
	c4.001,0.289,8.859-4.48,5.602-9.48c-0.763-1.173-3.064-2.907-5.817-2.586C1.463,31.494-1.726,36.155,1.04,40.401z"/>
<path fill-rule="evenodd" clip-rule="evenodd" fill="#E77D24" d="M0.177,0C13.606,0.547,23.756,5.39,30.56,12.713
	c6.791,7.31,12.472,16.569,12.604,30.381c-3.557,0-7.109,0-10.666,0c-0.293-10.173-4.192-17.616-9.48-22.948
	c-5.288-5.331-12.813-9.15-22.947-9.481c0-3.447,0-6.895,0-10.342C0.061,0.17,0.052,0.018,0.177,0z"/>
<path fill-rule="evenodd" clip-rule="evenodd" fill="#E77D24" d="M0.177,16.16c7.994-0.043,14.732,3.744,18.961,7.973
	c4.521,4.521,7.716,10.724,7.865,18.961c-3.304,0-6.608,0-9.911,0C16.227,32.612,10.546,26.943,0.07,26.072c0-3.196,0-6.392,0-9.587
	C0.061,16.331,0.052,16.179,0.177,16.16z"/>
<path fill-rule="evenodd" clip-rule="evenodd" fill="#E77D24" d="M5.457,31.028c2.753-0.321,5.054,1.413,5.817,2.586
	c3.257,5-1.601,9.77-5.602,9.48c-2.076-0.15-3.817-1.442-4.632-2.693C-1.726,36.155,1.463,31.494,5.457,31.028z"/>
</svg>
