<?xml version="1.0" encoding="utf-8"?>
<!-- Generator: Adobe Illustrator 15.0.2, SVG Export Plug-In  -->
<!DOCTYPE svg PUBLIC "-//W3C//DTD SVG 1.1//EN" "http://www.w3.org/Graphics/SVG/1.1/DTD/svg11.dtd" [
	<!ENTITY ns_flows "http://ns.adobe.com/Flows/1.0/">
]>
<svg version="1.1"
	 xmlns="http://www.w3.org/2000/svg" xmlns:xlink="http://www.w3.org/1999/xlink" xmlns:a="http://ns.adobe.com/AdobeSVGViewerExtensions/3.0/"
	 x="0px" y="0px" width="45px" height="45px" viewBox="-0.452 -0.454 45 45" enable-background="new -0.452 -0.454 45 45"
	 xml:space="preserve">
<defs>
</defs>
<rect fill="#29A7DF" width="44.097" height="44.093"/>
<path fill="#FFFFFF" d="M36.747,12.929c-1.081,0.479-2.246,0.806-3.465,0.949c1.246-0.746,2.203-1.926,2.653-3.335
	c-1.164,0.689-2.455,1.193-3.829,1.464c-1.101-1.173-2.667-1.906-4.402-1.906c-3.331,0-6.029,2.702-6.029,6.032
	c0,0.472,0.049,0.934,0.153,1.373c-5.014-0.251-9.455-2.649-12.432-6.301c-0.515,0.891-0.812,1.927-0.812,3.034
	c0,2.093,1.062,3.939,2.681,5.019c-0.992-0.03-1.92-0.303-2.731-0.757v0.078c0,2.921,2.079,5.359,4.837,5.914
	c-0.507,0.138-1.042,0.212-1.592,0.212c-0.386,0-0.763-0.035-1.131-0.111c0.767,2.397,2.992,4.139,5.633,4.195
	c-2.063,1.612-4.667,2.579-7.491,2.579c-0.485,0-0.966-0.029-1.439-0.085c2.671,1.708,5.842,2.708,9.249,2.708
	c11.091,0,17.154-9.189,17.154-17.159c0-0.26-0.006-0.521-0.016-0.78C34.915,15.202,35.937,14.14,36.747,12.929z"/>
</svg>
