<?xml version="1.0" encoding="utf-8"?>
<!-- Generator: Adobe Illustrator 15.0.2, SVG Export Plug-In  -->
<!DOCTYPE svg PUBLIC "-//W3C//DTD SVG 1.1//EN" "http://www.w3.org/Graphics/SVG/1.1/DTD/svg11.dtd" [
	<!ENTITY ns_flows "http://ns.adobe.com/Flows/1.0/">
]>
<svg version="1.1"
	 xmlns="http://www.w3.org/2000/svg" xmlns:xlink="http://www.w3.org/1999/xlink" xmlns:a="http://ns.adobe.com/AdobeSVGViewerExtensions/3.0/"
	 x="0px" y="0px" width="125px" height="125px" viewBox="-0.727 -0.727 125 125" enable-background="new -0.727 -0.727 125 125"
	 xml:space="preserve">
<defs>
</defs>
<circle fill="none" stroke="#0069AA" stroke-width="3" stroke-miterlimit="10" cx="61.773" cy="61.773" r="60.273"/>
<path fill="#0069AA" d="M95.124,92.176l-3.23-11.425c-0.044-0.139-0.095-0.268-0.155-0.42c-0.03-0.06-0.06-0.104-0.087-0.165
	c-0.052-0.091-0.091-0.17-0.138-0.264c-0.04-0.063-0.088-0.13-0.13-0.198c-0.044-0.078-0.096-0.159-0.147-0.231
	c-0.052-0.07-0.104-0.139-0.155-0.209c-0.058-0.072-0.109-0.146-0.17-0.223c-0.057-0.053-0.113-0.123-0.173-0.193
	c-0.061-0.06-0.121-0.129-0.187-0.194c-0.06-0.06-0.12-0.12-0.182-0.181c-0.07-0.064-0.135-0.117-0.203-0.173
	c-0.063-0.062-0.126-0.109-0.196-0.161c-0.067-0.052-0.134-0.104-0.203-0.147c-0.069-0.047-0.138-0.351-0.206-0.401
	c-0.023-0.018-0.054-0.316-0.079-0.316c-0.004,0-0.004,0-0.004,0c-0.087,0-0.173,0.16-0.251,0.125l-17.35-7.471l0,0l-1.309-0.387
	c-0.01,0-0.296,0.062-0.296,0.057v-3.389c0-2.64,3.927-6.191,4.517-10.221c0.096,0.014-0.845,0.031-0.751,0.031
	c1.252,0,1.234-1.013,1.234-2.26v-4.519v-0.091v-8.875v1h2.313c-0.047-9-7.104-13.557-15.814-13.557
	c-8.708,0-15.773,4.557-15.816,13.557h-1.683v-1v8.875v4.61c0,1.248,1.854,2.26,3.096,2.26c0.096,0,0.877-0.017,0.968-0.031
	c0.589,4.03,4.937,7.582,4.937,10.221v2.064c0,0-0.427,0-0.43,0l-18.455,8.465c-0.086,0.035-0.208,0.535-0.285,0.535
	c-0.004,0-0.023,0-0.023,0c-0.029,0-0.064,0.299-0.091,0.316c-0.069,0.051-0.139,0.223-0.208,0.268
	c-0.07,0.057-0.138,0.163-0.208,0.216c-0.069,0.052-0.129,0.135-0.191,0.186c-0.074,0.062-0.138,0.132-0.207,0.191
	c-0.063,0.065-0.123,0.13-0.183,0.186c-0.07,0.069-0.13,0.149-0.19,0.21c-0.061,0.065-0.114,0.136-0.169,0.195
	c-0.06,0.074-0.116,0.154-0.178,0.225c-0.047,0.068-0.1,0.139-0.146,0.203c-0.058,0.082-0.104,0.16-0.157,0.236
	c-0.042,0.07-0.085,0.14-0.12,0.199c-0.052,0.098-0.095,0.188-0.139,0.273c-0.03,0.065-0.061,0.118-0.086,0.178
	c-0.06,0.146-0.114,0.295-0.155,0.437l-3.23,11.384c-0.336,1.195,0.402,2.098,1.645,2.098h8.52h23.185h23.187h8.515
	C94.722,94.273,95.46,93.371,95.124,92.176z"/>
</svg>
