<?xml version="1.0" encoding="utf-8"?>
<!-- Generator: Adobe Illustrator 15.0.2, SVG Export Plug-In  -->
<!DOCTYPE svg PUBLIC "-//W3C//DTD SVG 1.1//EN" "http://www.w3.org/Graphics/SVG/1.1/DTD/svg11.dtd" [
	<!ENTITY ns_flows "http://ns.adobe.com/Flows/1.0/">
]>
<svg version="1.1"
	 xmlns="http://www.w3.org/2000/svg" xmlns:xlink="http://www.w3.org/1999/xlink" xmlns:a="http://ns.adobe.com/AdobeSVGViewerExtensions/3.0/"
	 x="0px" y="0px" width="125px" height="125px" viewBox="-0.727 -0.727 125 125" enable-background="new -0.727 -0.727 125 125"
	 xml:space="preserve">
<defs>
</defs>
<circle fill="none" stroke="#0069AA" stroke-width="3" stroke-miterlimit="10" cx="61.773" cy="61.773" r="60.273"/>
<path fill="#0069AA" d="M103.713,29.404H92.578c-4.184,0-8.479,3.114-9.782,7.084l-0.871,2.667c-0.93-0.42-1.975-0.649-3.089-0.649
	l-51.235,0.003c-2.369,0-4.402,0.988-5.586,2.721c-1.184,1.724-1.369,3.979-0.506,6.185l6.786,17.462
	c1.491,3.837,5.884,6.842,10.003,6.842l0,0h31.517c0.493,0,0.987-0.051,1.474-0.131l-0.155,0.475
	c-0.548,1.647-2.642,3.163-4.383,3.163H34.32c-1.574,0-2.849,1.275-2.849,2.844c0,1.575,1.275,2.847,2.849,2.847h2.109
	c-1.301,1.406-2.099,3.28-2.099,5.339c0,4.331,3.522,7.858,7.856,7.858c4.331,0,7.859-3.527,7.859-7.858
	c0-2.059-0.803-3.933-2.104-5.339h13.16c-1.297,1.406-2.1,3.28-2.1,5.339c0,4.331,3.523,7.858,7.859,7.858
	c4.333,0,7.856-3.527,7.856-7.858c0-2.703-1.364-5.08-3.438-6.502c2.416-1.247,4.434-3.407,5.259-5.905l3.097-9.339v-0.005
	l5.619-17.139c0.05-0.16,0.089-0.319,0.129-0.478l2.826-8.621c0.544-1.657,2.624-3.164,4.368-3.164h11.14
	c1.572,0,2.845-1.279,2.845-2.853S105.29,29.404,103.713,29.404z M42.187,88.959c-1.488,0-2.702-1.214-2.702-2.704
	c0-1.493,1.214-2.703,2.702-2.703c1.489,0,2.7,1.21,2.7,2.703C44.887,87.745,43.676,88.959,42.187,88.959z M78.836,44.206
	c0.481,0,0.861,0.121,1.009,0.326c0.108,0.15,0.133,0.405,0.08,0.711l-2.671,8.144H65.738l2.494-9.18H78.836z M48.659,66.019
	l-2.461-9.181h15.029l-2.493,9.181H48.659z M45.267,53.386l-2.459-9.18h21.844l-2.486,9.18H45.267z M26.717,44.445
	c0.064-0.098,0.352-0.237,0.884-0.237l11.631-0.002l2.462,9.18H29.94l-3.125-8.031C26.622,44.858,26.651,44.536,26.717,44.445z
	 M38.297,66.022c-1.799,0-4.042-1.536-4.693-3.208l-2.32-5.977h11.335l2.463,9.185H38.297z M69.814,66.019h-7.499l2.489-9.181
	h11.319l-0.67,2.042c-0.028,0.088-0.037,0.176-0.059,0.264l-1.166,3.568l0,0l-0.052,0.151
	C73.633,64.518,71.555,66.019,69.814,66.019z M66.861,88.959c-1.491,0-2.705-1.214-2.705-2.704c0-1.493,1.214-2.703,2.705-2.703
	c1.488,0,2.701,1.21,2.701,2.703C69.563,87.745,68.35,88.959,66.861,88.959z"/>
</svg>
