<?xml version="1.0" encoding="utf-8"?>
<!-- Generator: Adobe Illustrator 15.0.2, SVG Export Plug-In  -->
<!DOCTYPE svg PUBLIC "-//W3C//DTD SVG 1.1//EN" "http://www.w3.org/Graphics/SVG/1.1/DTD/svg11.dtd" [
	<!ENTITY ns_flows "http://ns.adobe.com/Flows/1.0/">
]>
<svg version="1.1"
	 xmlns="http://www.w3.org/2000/svg" xmlns:xlink="http://www.w3.org/1999/xlink" xmlns:a="http://ns.adobe.com/AdobeSVGViewerExtensions/3.0/"
	 x="0px" y="0px" width="125px" height="125px" viewBox="-0.727 -0.727 125 125" enable-background="new -0.727 -0.727 125 125"
	 xml:space="preserve">
<defs>
</defs>
<circle fill="none" stroke="#0069AA" stroke-width="3" stroke-miterlimit="10" cx="61.773" cy="61.773" r="60.273"/>
<path fill="#0069AA" d="M57.51,88.672c-0.084,0-0.173,0.01-0.258,0.01c-15.083,0-27.354-12.271-27.354-27.36
	c0-1.745,0.185-3.45,0.498-5.108c0.807,3.506,2.729,5.777,5.083,7.074c3.147,1.731,3.064,5.901,4.324,9.198
	c0.856,2.248,3.013,4.679,5.264,6.492c0.538,0.43,1.275,0.526,1.913,0.258c0.639-0.271,1.079-0.864,1.144-1.555
	c0.41-4.334,2.565-8.986,5.827-11.88c4.129-3.652,5.073-8.017,3.304-12.971c-1.768-4.951-6.133-7.54-11.674-6.719
	c-5.54,0.827,4.805-6.048-1.85-8.535c3.995-2.281,8.605-3.611,13.523-3.611c13.291,0,24.359,9.541,26.813,22.118l5.795,0.33
	c-2.373-15.896-16.051-28.103-32.608-28.103c-18.229,0-33.017,14.782-33.017,33.011c0,18.235,14.789,33.015,33.017,33.015
	c1.153,0,2.302-0.062,3.425-0.174L57.51,88.672z"/>
<path fill="#0069AA" d="M91.426,77.682l-4.34,0.02c-0.453,0-0.873-0.24-1.101-0.635l-4.457-7.73l17.781-3.668l-1.479-2.567
	c-0.213-0.373-0.598-0.607-1.02-0.626l-19.896-1.118l-6.02-10.443c-1.041-1.805-3.359-2.423-5.168-1.377
	c-1.807,1.041-2.424,3.348-1.381,5.161l6.027,10.438l-8.991,17.787c-0.187,0.385-0.181,0.832,0.037,1.199l1.483,2.569L74.98,73.114
	l4.463,7.729c0.225,0.4,0.223,0.879-0.004,1.271l-2.195,3.748c-0.223,0.396-0.223,0.877,0,1.269l0.9,1.551l15.273-8.818
	l-0.896-1.549C92.299,77.92,91.879,77.678,91.426,77.682z"/>
</svg>
