<?xml version="1.0" encoding="utf-8"?>
<!-- Generator: Adobe Illustrator 15.0.2, SVG Export Plug-In  -->
<!DOCTYPE svg PUBLIC "-//W3C//DTD SVG 1.1//EN" "http://www.w3.org/Graphics/SVG/1.1/DTD/svg11.dtd" [
	<!ENTITY ns_flows "http://ns.adobe.com/Flows/1.0/">
]>
<svg version="1.1"
	 xmlns="http://www.w3.org/2000/svg" xmlns:xlink="http://www.w3.org/1999/xlink" xmlns:a="http://ns.adobe.com/AdobeSVGViewerExtensions/3.0/"
	 x="0px" y="0px" width="1200px" height="510px" viewBox="-65.107 -53.699 1200 510"
	 enable-background="new -65.107 -53.699 1200 510" xml:space="preserve">
<defs>
</defs>
<path fill="#6898C8" d="M0,1.231h6.011l6.663,10.718l6.663-10.718h6.01v25.346h-5.54V10.03l-7.133,10.826h-0.145L5.468,10.139
	v16.439H0V1.231z"/>
<path fill="#6898C8" d="M30.702,19.734V7.169h5.504v10.827c0,2.607,1.231,3.947,3.331,3.947s3.44-1.34,3.44-3.947V7.169h5.504
	v19.408h-5.504v-2.752c-1.267,1.629-2.897,3.114-5.685,3.114C33.127,26.94,30.702,24.188,30.702,19.734z"/>
<path fill="#6898C8" d="M53.655,0.145h5.503v26.433h-5.503V0.145z"/>
<path fill="#6898C8" d="M65.241,21.074v-9.197h-2.317V7.169h2.317v-4.96h5.503v4.96h4.563v4.708h-4.563v8.292
	c0,1.268,0.543,1.883,1.774,1.883c1.014,0,1.919-0.253,2.716-0.688v4.417c-1.159,0.688-2.499,1.122-4.345,1.122
	C67.521,26.903,65.241,25.564,65.241,21.074z"/>
<path fill="#6898C8" d="M79.469,0.145h5.793v4.888h-5.793V0.145z M79.614,7.169h5.503v19.408h-5.503V7.169z"/>
<path fill="#6898C8" d="M90.547,0.145h5.503v26.433h-5.503V0.145z"/>
<path fill="#6898C8" d="M100.286,16.982V16.91c0-5.576,4.49-10.102,10.537-10.102c6.011,0,10.464,4.454,10.464,10.03v0.072
	c0,5.576-4.49,10.103-10.537,10.103C104.74,27.012,100.286,22.559,100.286,16.982z M115.856,16.982V16.91
	c0-2.86-2.064-5.359-5.105-5.359c-3.15,0-5.033,2.426-5.033,5.287v0.072c0,2.861,2.064,5.359,5.105,5.359
	C113.973,22.269,115.856,19.843,115.856,16.982z"/>
<path fill="#6898C8" d="M130.771,24.043v2.535h-5.503V0.145h5.503v9.813c1.34-1.811,3.187-3.15,6.047-3.15
	c4.526,0,8.835,3.548,8.835,10.03v0.072c0,6.481-4.237,10.03-8.835,10.03C133.885,26.94,132.074,25.6,130.771,24.043z
	 M140.149,16.91v-0.072c0-3.223-2.173-5.359-4.744-5.359s-4.707,2.136-4.707,5.359v0.072c0,3.223,2.136,5.359,4.707,5.359
	S140.149,20.168,140.149,16.91z"/>
<path fill="#6898C8" d="M148.546,21.001v-0.072c0-4.237,3.223-6.192,7.821-6.192c1.956,0,3.368,0.326,4.744,0.796v-0.326
	c0-2.281-1.412-3.548-4.164-3.548c-2.1,0-3.585,0.398-5.359,1.05l-1.376-4.2c2.136-0.941,4.236-1.557,7.531-1.557
	c3.005,0,5.178,0.797,6.554,2.173c1.448,1.448,2.1,3.584,2.1,6.191v11.261h-5.323v-2.1c-1.34,1.484-3.187,2.462-5.866,2.462
	C151.552,26.94,148.546,24.839,148.546,21.001z M161.183,19.734v-0.978c-0.941-0.435-2.172-0.724-3.512-0.724
	c-2.354,0-3.802,0.941-3.802,2.68v0.072c0,1.484,1.231,2.354,3.005,2.354C159.445,23.138,161.183,21.726,161.183,19.734z"/>
<path fill="#6898C8" d="M171.138,7.169h5.503v3.911c1.123-2.679,2.933-4.417,6.192-4.272v5.757h-0.29
	c-3.657,0-5.902,2.208-5.902,6.843v7.169h-5.503V7.169z"/>
<path fill="#6898C8" d="M197.133,7.169h5.503v2.788c1.34-1.811,3.187-3.15,6.047-3.15c4.526,0,8.835,3.548,8.835,10.03v0.072
	c0,6.481-4.237,10.03-8.835,10.03c-2.933,0-4.743-1.34-6.047-2.897v8.328h-5.503V7.169z M212.015,16.91v-0.072
	c0-3.223-2.173-5.359-4.744-5.359s-4.707,2.136-4.707,5.359v0.072c0,3.223,2.136,5.359,4.707,5.359S212.015,20.168,212.015,16.91z"
	/>
<path fill="#6898C8" d="M221.571,7.169h5.503v2.752c1.268-1.629,2.897-3.114,5.685-3.114c4.164,0,6.59,2.752,6.59,7.206v12.564
	h-5.503V15.751c0-2.607-1.231-3.947-3.332-3.947s-3.44,1.34-3.44,3.947v10.827h-5.503V7.169z"/>
<path fill="#6898C8" d="M243.185,16.982V16.91c0-5.54,3.947-10.102,9.595-10.102c6.481,0,9.451,5.033,9.451,10.537
	c0,0.435-0.036,0.941-0.073,1.448h-13.506c0.543,2.499,2.281,3.802,4.744,3.802c1.847,0,3.186-0.58,4.707-1.992l3.15,2.788
	c-1.811,2.245-4.418,3.621-7.93,3.621C247.494,27.012,243.185,22.92,243.185,16.982z M256.872,15.353
	c-0.326-2.462-1.774-4.128-4.092-4.128c-2.281,0-3.766,1.629-4.2,4.128H256.872z"/>
<path fill="#6898C8" d="M266.175,19.734V7.169h5.504v10.827c0,2.607,1.231,3.947,3.331,3.947s3.44-1.34,3.44-3.947V7.169h5.504
	v19.408h-5.504v-2.752c-1.268,1.629-2.897,3.114-5.685,3.114C268.601,26.94,266.175,24.188,266.175,19.734z"/>
<path fill="#6898C8" d="M288.875,7.169h5.503v2.752c1.268-1.629,2.933-3.114,5.721-3.114c2.535,0,4.454,1.123,5.468,3.078
	c1.702-1.992,3.729-3.078,6.373-3.078c4.092,0,6.554,2.462,6.554,7.133v12.637h-5.503V15.751c0-2.607-1.159-3.947-3.223-3.947
	s-3.332,1.34-3.332,3.947v10.827h-5.503V15.751c0-2.607-1.159-3.947-3.223-3.947s-3.332,1.34-3.332,3.947v10.827h-5.503V7.169z"/>
<path fill="#6898C8" d="M322.328,16.982V16.91c0-5.576,4.49-10.102,10.537-10.102c6.011,0,10.464,4.454,10.464,10.03v0.072
	c0,5.576-4.49,10.103-10.537,10.103C326.782,27.012,322.328,22.559,322.328,16.982z M337.898,16.982V16.91
	c0-2.86-2.064-5.359-5.105-5.359c-3.15,0-5.033,2.426-5.033,5.287v0.072c0,2.861,2.064,5.359,5.105,5.359
	C336.015,22.269,337.898,19.843,337.898,16.982z"/>
<path fill="#6898C8" d="M347.31,7.169h5.503v2.752c1.268-1.629,2.897-3.114,5.685-3.114c4.164,0,6.59,2.752,6.59,7.206v12.564
	h-5.503V15.751c0-2.607-1.231-3.947-3.332-3.947s-3.44,1.34-3.44,3.947v10.827h-5.503V7.169z"/>
<path fill="#6898C8" d="M369.973,0.145h5.793v4.888h-5.793V0.145z M370.118,7.169h5.503v19.408h-5.503V7.169z"/>
<path fill="#6898C8" d="M379.639,21.001v-0.072c0-4.237,3.223-6.192,7.821-6.192c1.956,0,3.368,0.326,4.744,0.796v-0.326
	c0-2.281-1.412-3.548-4.164-3.548c-2.1,0-3.585,0.398-5.359,1.05l-1.376-4.2c2.136-0.941,4.236-1.557,7.531-1.557
	c3.005,0,5.178,0.797,6.554,2.173c1.448,1.448,2.1,3.584,2.1,6.191v11.261h-5.323v-2.1c-1.34,1.484-3.187,2.462-5.866,2.462
	C382.645,26.94,379.639,24.839,379.639,21.001z M392.276,19.734v-0.978c-0.941-0.435-2.172-0.724-3.512-0.724
	c-2.354,0-3.802,0.941-3.802,2.68v0.072c0,1.484,1.231,2.354,3.005,2.354C390.538,23.138,392.276,21.726,392.276,19.734z"/>
<path fill="#6898C8" d="M427.793,24.115c-2.064,1.702-4.49,2.825-7.423,2.825c-4.852,0-8.509-2.825-8.509-7.314v-0.072
	c0-3.223,1.738-5.504,4.925-6.952c-1.231-1.738-1.774-3.332-1.774-5.069V7.459c0-3.477,2.788-6.663,7.676-6.663
	c4.309,0,7.133,2.824,7.133,6.373v0.073c0,3.403-2.173,5.395-5.323,6.626l3.367,3.368c0.833-1.304,1.666-2.788,2.462-4.345
	l4.092,2.245c-0.978,1.774-2.064,3.657-3.332,5.359l3.729,3.729l-4.091,2.86L427.793,24.115z M424.679,20.929l-4.852-4.925
	c-1.666,0.869-2.354,2.1-2.354,3.332v0.072c0,1.774,1.484,2.969,3.548,2.969C422.289,22.377,423.521,21.834,424.679,20.929z
	 M424.969,7.568V7.496c0-1.449-0.978-2.354-2.39-2.354c-1.485,0-2.462,1.05-2.462,2.571v0.072c0,1.123,0.435,1.955,1.484,3.15
	C423.81,10.103,424.969,9.161,424.969,7.568z"/>
<path fill="#6898C8" d="M450.058,21.074v-9.197h-2.317V7.169h2.317v-4.96h5.503v4.96h4.563v4.708h-4.563v8.292
	c0,1.268,0.543,1.883,1.774,1.883c1.014,0,1.919-0.253,2.716-0.688v4.417c-1.159,0.688-2.499,1.122-4.345,1.122
	C452.338,26.903,450.058,25.564,450.058,21.074z"/>
<path fill="#6898C8" d="M462.692,16.982V16.91c0-5.576,4.49-10.102,10.537-10.102c6.011,0,10.464,4.454,10.464,10.03v0.072
	c0,5.576-4.49,10.103-10.537,10.103C467.146,27.012,462.692,22.559,462.692,16.982z M478.262,16.982V16.91
	c0-2.86-2.064-5.359-5.105-5.359c-3.15,0-5.033,2.426-5.033,5.287v0.072c0,2.861,2.064,5.359,5.105,5.359
	C476.379,22.269,478.262,19.843,478.262,16.982z"/>
<path fill="#6898C8" d="M487.674,7.169h5.503v2.752c1.268-1.629,2.897-3.114,5.685-3.114c4.164,0,6.59,2.752,6.59,7.206v12.564
	h-5.503V15.751c0-2.607-1.231-3.947-3.332-3.947s-3.44,1.34-3.44,3.947v10.827h-5.503V7.169z"/>
<path fill="#6898C8" d="M508.708,24.007l2.354-3.621c2.1,1.521,4.309,2.317,6.12,2.317c1.593,0,2.317-0.579,2.317-1.448v-0.072
	c0-1.195-1.883-1.593-4.02-2.245c-2.715-0.796-5.793-2.064-5.793-5.83v-0.072c0-3.947,3.187-6.156,7.097-6.156
	c2.462,0,5.142,0.833,7.242,2.245l-2.101,3.802c-1.919-1.123-3.838-1.811-5.25-1.811c-1.339,0-2.027,0.58-2.027,1.34v0.072
	c0,1.086,1.847,1.593,3.947,2.317c2.716,0.905,5.866,2.209,5.866,5.757v0.073c0,4.309-3.223,6.264-7.423,6.264
	C514.32,26.94,511.279,26.035,508.708,24.007z"/>
<path fill="#6898C8" d="M528.513,0.145h5.793v4.888h-5.793V0.145z M528.658,7.169h5.504v19.408h-5.504V7.169z"/>
<path fill="#6898C8" d="M539.59,0.145h5.504v26.433h-5.504V0.145z"/>
<path fill="#6898C8" d="M550.524,0.145h5.504v26.433h-5.504V0.145z"/>
<path fill="#6898C8" d="M561.313,0.145h5.793v4.888h-5.793V0.145z M561.458,7.169h5.504v19.408h-5.504V7.169z"/>
<path fill="#6898C8" d="M573.042,21.074v-9.197h-2.317V7.169h2.317v-4.96h5.504v4.96h4.563v4.708h-4.563v8.292
	c0,1.268,0.543,1.883,1.774,1.883c1.014,0,1.919-0.253,2.716-0.688v4.417c-1.159,0.688-2.499,1.122-4.346,1.122
	C575.324,26.903,573.042,25.564,573.042,21.074z"/>
<path fill="#6898C8" d="M587.272,0.145h5.793v4.888h-5.793V0.145z M587.417,7.169h5.504v19.408h-5.504V7.169z"/>
<path fill="#6898C8" d="M596.575,24.007l2.354-3.621c2.101,1.521,4.309,2.317,6.119,2.317c1.594,0,2.317-0.579,2.317-1.448v-0.072
	c0-1.195-1.883-1.593-4.019-2.245c-2.716-0.796-5.794-2.064-5.794-5.83v-0.072c0-3.947,3.187-6.156,7.097-6.156
	c2.463,0,5.143,0.833,7.242,2.245l-2.1,3.802c-1.92-1.123-3.839-1.811-5.251-1.811c-1.34,0-2.027,0.58-2.027,1.34v0.072
	c0,1.086,1.847,1.593,3.946,2.317c2.716,0.905,5.866,2.209,5.866,5.757v0.073c0,4.309-3.223,6.264-7.423,6.264
	C602.187,26.94,599.146,26.035,596.575,24.007z"/>
<path fill="#6898C8" d="M616.234,7.169h5.866v5.793h-5.866V7.169z M616.234,20.784h5.866v5.793h-5.866V20.784z"/>
<path fill="#6898C8" d="M648.349,1.05h2.68l11.551,25.527h-3.078l-2.969-6.699h-13.796l-3.006,6.699h-2.933L648.349,1.05z
	 M655.41,17.272l-5.757-12.891l-5.794,12.891H655.41z"/>
<path fill="#6898C8" d="M677.963,7.857h2.788v4.888c1.376-3.114,4.092-5.359,7.64-5.214v3.005h-0.217
	c-4.092,0-7.423,2.933-7.423,8.582v7.459h-2.788V7.857z"/>
<path fill="#6898C8" d="M690.671,17.272V17.2c0-5.396,3.802-9.74,8.98-9.74c5.54,0,8.726,4.417,8.726,9.885
	c0,0.362,0,0.58-0.036,0.905h-14.846c0.398,4.056,3.259,6.336,6.591,6.336c2.57,0,4.381-1.05,5.901-2.643l1.738,1.557
	c-1.883,2.1-4.164,3.512-7.713,3.512C694.872,27.012,690.671,23.065,690.671,17.272z M705.553,16.186
	c-0.289-3.404-2.245-6.373-5.975-6.373c-3.259,0-5.721,2.715-6.083,6.373H705.553z"/>
<path fill="#6898C8" d="M711.851,21.146v-0.073c0-3.947,3.259-6.047,8.002-6.047c2.39,0,4.092,0.326,5.757,0.797v-0.652
	c0-3.368-2.063-5.105-5.576-5.105c-2.208,0-3.946,0.579-5.685,1.376l-0.833-2.281c2.064-0.941,4.092-1.557,6.808-1.557
	c2.644,0,4.671,0.688,6.047,2.064c1.268,1.267,1.919,3.078,1.919,5.468v11.442h-2.68v-2.824c-1.303,1.702-3.476,3.223-6.771,3.223
	C715.363,26.976,711.851,24.984,711.851,21.146z M725.646,19.698v-1.811c-1.376-0.398-3.223-0.796-5.503-0.796
	c-3.513,0-5.468,1.521-5.468,3.875v0.072c0,2.354,2.172,3.729,4.707,3.729C722.822,24.767,725.646,22.667,725.646,19.698z"/>
<path fill="#6898C8" d="M734.479,0.145h2.788v26.433h-2.788V0.145z"/>
<path fill="#6898C8" d="M742.987,14.23h10.066v2.933h-10.066V14.23z"/>
<path fill="#6898C8" d="M758.772,0.145h2.788v26.433h-2.788V0.145z"/>
<path fill="#6898C8" d="M768.112,0.688h3.187v3.078h-3.187V0.688z M768.292,7.857h2.788v18.72h-2.788V7.857z"/>
<path fill="#6898C8" d="M778.611,10.32h-2.571V7.894h2.571V6.264c0-2.136,0.579-3.766,1.629-4.815
	C781.182,0.507,782.558,0,784.259,0c1.304,0,2.173,0.145,3.078,0.471v2.426c-1.014-0.29-1.774-0.471-2.716-0.471
	c-2.173,0-3.259,1.303-3.259,3.983V7.93h5.938v2.39h-5.902v16.258h-2.788V10.32z"/>
<path fill="#6898C8" d="M789.328,17.272V17.2c0-5.396,3.802-9.74,8.98-9.74c5.54,0,8.726,4.417,8.726,9.885
	c0,0.362,0,0.58-0.036,0.905h-14.846c0.398,4.056,3.259,6.336,6.591,6.336c2.57,0,4.381-1.05,5.901-2.643l1.738,1.557
	c-1.883,2.1-4.164,3.512-7.713,3.512C793.528,27.012,789.328,23.065,789.328,17.272z M804.209,16.186
	c-0.289-3.404-2.245-6.373-5.975-6.373c-3.259,0-5.721,2.715-6.083,6.373H804.209z"/>
<path fill="#6898C8" d="M821.622,17.308v-0.072c0-5.287,4.128-9.776,9.596-9.776c3.549,0,5.757,1.484,7.495,3.331l-1.847,1.955
	c-1.484-1.557-3.15-2.824-5.685-2.824c-3.802,0-6.699,3.223-6.699,7.242v0.073c0,4.055,2.97,7.278,6.88,7.278
	c2.39,0,4.236-1.195,5.722-2.788l1.773,1.666c-1.883,2.1-4.127,3.621-7.64,3.621C825.75,27.012,821.622,22.559,821.622,17.308z"/>
<path fill="#6898C8" d="M843.707,0.145h2.788v26.433h-2.788V0.145z"/>
<path fill="#6898C8" d="M851.563,21.146v-0.073c0-3.947,3.259-6.047,8.002-6.047c2.39,0,4.092,0.326,5.757,0.797v-0.652
	c0-3.368-2.063-5.105-5.576-5.105c-2.208,0-3.946,0.579-5.685,1.376l-0.833-2.281c2.064-0.941,4.092-1.557,6.808-1.557
	c2.644,0,4.671,0.688,6.047,2.064c1.268,1.267,1.919,3.078,1.919,5.468v11.442h-2.68v-2.824c-1.303,1.702-3.476,3.223-6.771,3.223
	C855.075,26.976,851.563,24.984,851.563,21.146z M865.358,19.698v-1.811c-1.376-0.398-3.223-0.796-5.503-0.796
	c-3.513,0-5.468,1.521-5.468,3.875v0.072c0,2.354,2.172,3.729,4.707,3.729C862.534,24.767,865.358,22.667,865.358,19.698z"/>
<path fill="#6898C8" d="M874.01,0.688h3.187v3.078h-3.187V0.688z M874.191,7.857h2.788v18.72h-2.788V7.857z"/>
<path fill="#6898C8" d="M883.459,7.857h2.788v3.15c1.23-1.847,2.896-3.548,6.047-3.548c3.041,0,4.997,1.629,6.011,3.729
	c1.34-2.064,3.331-3.729,6.59-3.729c4.309,0,6.952,2.896,6.952,7.531v11.587h-2.788V15.643c0-3.621-1.811-5.649-4.853-5.649
	c-2.824,0-5.142,2.101-5.142,5.793v10.791h-2.788V15.57c0-3.512-1.847-5.576-4.815-5.576s-5.214,2.462-5.214,5.902v10.682h-2.788
	V7.857z"/>
<path fill="#6898C8" d="M927.592,17.272V17.2c0-5.396,3.802-9.74,8.98-9.74c5.54,0,8.726,4.417,8.726,9.885
	c0,0.362,0,0.58-0.036,0.905h-14.846c0.398,4.056,3.259,6.336,6.591,6.336c2.57,0,4.381-1.05,5.901-2.643l1.738,1.557
	c-1.883,2.1-4.164,3.512-7.713,3.512C931.792,27.012,927.592,23.065,927.592,17.272z M942.474,16.186
	c-0.289-3.404-2.245-6.373-5.975-6.373c-3.259,0-5.721,2.715-6.083,6.373H942.474z"/>
<path fill="#6898C8" d="M956.375,15.172l5.576-7.314h3.114l-7.097,9.161l7.387,9.559h-3.223l-5.794-7.712l-5.829,7.712h-3.114
	l7.314-9.523l-7.024-9.197h3.187L956.375,15.172z"/>
<path fill="#6898C8" d="M967.924,21.146v-0.073c0-3.947,3.259-6.047,8.002-6.047c2.39,0,4.092,0.326,5.757,0.797v-0.652
	c0-3.368-2.063-5.105-5.576-5.105c-2.208,0-3.946,0.579-5.685,1.376l-0.833-2.281c2.064-0.941,4.092-1.557,6.808-1.557
	c2.644,0,4.671,0.688,6.047,2.064c1.268,1.267,1.919,3.078,1.919,5.468v11.442h-2.68v-2.824c-1.303,1.702-3.476,3.223-6.771,3.223
	C971.436,26.976,967.924,24.984,967.924,21.146z M981.719,19.698v-1.811c-1.376-0.398-3.223-0.796-5.503-0.796
	c-3.513,0-5.468,1.521-5.468,3.875v0.072c0,2.354,2.172,3.729,4.707,3.729C978.895,24.767,981.719,22.667,981.719,19.698z"/>
<path fill="#6898C8" d="M990.299,7.857h2.788v3.15c1.23-1.847,2.896-3.548,6.047-3.548c3.041,0,4.997,1.629,6.011,3.729
	c1.34-2.064,3.331-3.729,6.59-3.729c4.309,0,6.952,2.896,6.952,7.531v11.587h-2.788V15.643c0-3.621-1.811-5.649-4.853-5.649
	c-2.824,0-5.142,2.101-5.142,5.793v10.791h-2.788V15.57c0-3.512-1.847-5.576-4.815-5.576s-5.214,2.462-5.214,5.902v10.682h-2.788
	V7.857z"/>
<path fill="#6898C8" d="M1024.73,7.857h2.788v3.766c1.521-2.245,3.729-4.164,7.169-4.164c4.49,0,8.943,3.548,8.943,9.704v0.073
	c0,6.119-4.417,9.74-8.943,9.74c-3.476,0-5.721-1.883-7.169-3.983v9.378h-2.788V7.857z M1040.77,17.272V17.2
	c0-4.418-3.041-7.242-6.59-7.242c-3.476,0-6.771,2.933-6.771,7.206v0.073c0,4.345,3.295,7.242,6.771,7.242
	C1037.801,24.478,1040.77,21.798,1040.77,17.272z"/>
<path fill="#6898C8" d="M1049.022,0.145h2.788v26.433h-2.788V0.145z"/>
<path fill="#6898C8" d="M1057.131,17.272V17.2c0-5.396,3.802-9.74,8.98-9.74c5.54,0,8.726,4.417,8.726,9.885
	c0,0.362,0,0.58-0.036,0.905h-14.846c0.398,4.056,3.259,6.336,6.591,6.336c2.57,0,4.381-1.05,5.901-2.643l1.738,1.557
	c-1.883,2.1-4.164,3.512-7.713,3.512C1061.332,27.012,1057.131,23.065,1057.131,17.272z M1072.013,16.186
	c-0.289-3.404-2.245-6.373-5.975-6.373c-3.259,0-5.721,2.715-6.083,6.373H1072.013z"/>
<path fill="#6898C8" d="M338.769,289.547h4.152l9.655,28.145l9.269-28.24h3.137l9.269,28.24l9.655-28.145h4.006l-12.068,34.033
	h-3.234l-9.269-27.42l-9.316,27.42h-3.186L338.769,289.547z"/>
<path fill="#6898C8" d="M395.153,289.547h3.813v33.791h-3.813V289.547z"/>
<path fill="#6898C8" d="M417.792,293.07h-11.344v-3.523h26.551v3.523h-11.345v30.268h-3.862V293.07z"/>
<path fill="#6898C8" d="M440.141,289.547h3.815v15.014h19.501v-15.014h3.813v33.791h-3.813v-15.205h-19.501v15.205h-3.815V289.547z"
	/>
<path fill="#DBDADD" d="M106.365,197.145h13.009v59.131h-13.009V197.145z"/>
<path fill="#DBDADD" d="M132.807,210.998h12.84v6.42c2.957-3.801,6.758-7.265,13.262-7.265c9.714,0,15.374,6.42,15.374,16.81v29.312
	h-12.84v-25.257c0-6.082-2.872-9.208-7.771-9.208s-8.025,3.125-8.025,9.208v25.257h-12.84V210.998z"/>
<path fill="#DBDADD" d="M181.888,250.278l5.491-8.447c4.899,3.548,10.052,5.406,14.276,5.406c3.717,0,5.406-1.352,5.406-3.379
	v-0.169c0-2.788-4.393-3.717-9.376-5.237c-6.335-1.858-13.516-4.815-13.516-13.6v-0.169c0-9.208,7.434-14.36,16.557-14.36
	c5.744,0,11.995,1.943,16.895,5.237l-4.899,8.87c-4.477-2.619-8.954-4.224-12.249-4.224c-3.125,0-4.73,1.352-4.73,3.125v0.169
	c0,2.534,4.308,3.717,9.208,5.406c6.335,2.112,13.685,5.153,13.685,13.431v0.169c0,10.052-7.518,14.614-17.317,14.614
	C194.981,257.12,187.886,255.008,181.888,250.278z"/>
<path fill="#DBDADD" d="M227.506,240.31v-29.312h12.84v25.257c0,6.082,2.872,9.208,7.771,9.208s8.025-3.125,8.025-9.208v-25.257
	h12.84v45.277h-12.84v-6.42c-2.957,3.801-6.758,7.265-13.262,7.265C233.166,257.12,227.506,250.7,227.506,240.31z"/>
<path fill="#DBDADD" d="M280.473,210.998h12.84v9.123c2.619-6.251,6.842-10.306,14.445-9.968v13.431h-0.676
	c-8.532,0-13.769,5.153-13.769,15.965v16.726h-12.84V210.998z"/>
<path fill="#DBDADD" d="M310.971,243.267v-0.169c0-9.883,7.518-14.445,18.246-14.445c4.562,0,7.856,0.76,11.066,1.858v-0.76
	c0-5.322-3.294-8.278-9.714-8.278c-4.899,0-8.363,0.929-12.502,2.45l-3.21-9.799c4.984-2.196,9.883-3.632,17.57-3.632
	c7.011,0,12.08,1.858,15.29,5.068c3.379,3.379,4.899,8.363,4.899,14.445v26.271h-12.417v-4.899
	c-3.125,3.463-7.434,5.744-13.685,5.744C317.982,257.12,310.971,252.221,310.971,243.267z M340.452,240.31v-2.281
	c-2.196-1.014-5.068-1.689-8.194-1.689c-5.491,0-8.87,2.196-8.87,6.251v0.169c0,3.463,2.872,5.491,7.011,5.491
	C336.397,248.25,340.452,244.956,340.452,240.31z"/>
<path fill="#DBDADD" d="M363.685,210.998h12.84v6.42c2.957-3.801,6.758-7.265,13.262-7.265c9.714,0,15.374,6.42,15.374,16.81v29.312
	h-12.84v-25.257c0-6.082-2.872-9.208-7.771-9.208s-8.025,3.125-8.025,9.208v25.257h-12.84V210.998z"/>
<path fill="#DBDADD" d="M414.117,233.89v-0.169c0-12.924,9.883-23.568,23.737-23.568c8.532,0,13.854,2.872,18.077,7.603
	l-7.856,8.447c-2.872-3.041-5.744-4.984-10.306-4.984c-6.42,0-10.981,5.66-10.981,12.333v0.169c0,6.927,4.477,12.502,11.488,12.502
	c4.308,0,7.265-1.858,10.39-4.815l7.518,7.603c-4.393,4.814-9.461,8.278-18.5,8.278C424.085,257.289,414.117,246.814,414.117,233.89
	z"/>
<path fill="#DBDADD" d="M461.087,233.89v-0.169c0-12.924,9.208-23.568,22.385-23.568c15.121,0,22.047,11.742,22.047,24.582
	c0,1.014-0.084,2.196-0.169,3.379h-31.508c1.267,5.829,5.322,8.87,11.066,8.87c4.308,0,7.434-1.352,10.981-4.646l7.349,6.504
	c-4.224,5.237-10.306,8.447-18.5,8.447C471.14,257.289,461.087,247.744,461.087,233.89z M493.018,230.089
	c-0.76-5.744-4.139-9.63-9.545-9.63c-5.322,0-8.785,3.801-9.799,9.63H493.018z"/>
<path fill="#006AAB" d="M95.756,141.706h4.3l10,29.151l9.601-29.251h3.25l9.601,29.251l10-29.151h4.15l-12.501,35.252h-3.35
	l-9.601-28.402l-9.65,28.402h-3.3L95.756,141.706z"/>
<path fill="#006AAB" d="M154.154,141.706h3.95v35.002h-3.95V141.706z"/>
<path fill="#006AAB" d="M177.603,145.355h-11.75v-3.65h27.501v3.65h-11.75v31.352h-4V145.355z"/>
<path fill="#006AAB" d="M200.75,141.706h3.95v15.551h20.201v-15.551h3.951v35.002h-3.951v-15.751H204.7v15.751h-3.95V141.706z"/>
<path fill="#006AAB" d="M237.198,159.307v-0.1c0-9.651,7.25-18.101,17.901-18.101c10.651,0,17.801,8.351,17.801,18.001v0.1
	c0,9.65-7.25,18.101-17.901,18.101C244.349,177.308,237.198,168.957,237.198,159.307z M268.8,159.307v-0.1
	c0-7.951-5.8-14.451-13.801-14.451s-13.701,6.4-13.701,14.351v0.1c0,7.95,5.8,14.451,13.801,14.451S268.8,167.257,268.8,159.307z"/>
<path fill="#006AAB" d="M280.696,162.057v-20.351h3.95v20.101c0,7.55,4.05,11.801,10.701,11.801c6.45,0,10.55-3.9,10.55-11.551
	v-20.351h3.951v20.051c0,10.2-5.851,15.5-14.601,15.5C286.596,177.257,280.696,171.957,280.696,162.057z"/>
<path fill="#006AAB" d="M328.443,145.355h-11.75v-3.65h27.501v3.65h-11.75v31.352h-4V145.355z"/>
<path fill="#006AAB" stroke="#FFFFFF" stroke-width="0.25" stroke-miterlimit="10" d="M101.193,190.248h13.009v59.131h-13.009
	V190.248z"/>
<path fill="#006AAB" stroke="#FFFFFF" stroke-width="0.25" stroke-miterlimit="10" d="M127.635,204.102h12.84v6.42
	c2.957-3.801,6.758-7.265,13.262-7.265c9.714,0,15.374,6.42,15.374,16.81v29.312h-12.84v-25.257c0-6.082-2.872-9.208-7.771-9.208
	s-8.025,3.125-8.025,9.208v25.257h-12.84V204.102z"/>
<path fill="#006AAB" stroke="#FFFFFF" stroke-width="0.25" stroke-miterlimit="10" d="M176.716,243.381l5.491-8.447
	c4.899,3.548,10.052,5.406,14.276,5.406c3.717,0,5.406-1.352,5.406-3.379v-0.169c0-2.788-4.393-3.717-9.376-5.237
	c-6.335-1.858-13.516-4.815-13.516-13.6v-0.169c0-9.208,7.434-14.36,16.557-14.36c5.744,0,11.995,1.943,16.895,5.237l-4.899,8.87
	c-4.477-2.619-8.954-4.224-12.249-4.224c-3.125,0-4.73,1.352-4.73,3.125v0.169c0,2.534,4.308,3.717,9.208,5.406
	c6.335,2.112,13.685,5.153,13.685,13.431v0.169c0,10.052-7.518,14.614-17.317,14.614
	C189.81,250.224,182.714,248.112,176.716,243.381z"/>
<path fill="#006AAB" stroke="#FFFFFF" stroke-width="0.25" stroke-miterlimit="10" d="M222.334,233.414v-29.312h12.84v25.257
	c0,6.082,2.872,9.208,7.771,9.208s8.025-3.125,8.025-9.208v-25.257h12.84v45.277h-12.84v-6.42
	c-2.957,3.801-6.758,7.265-13.262,7.265C227.994,250.224,222.334,243.804,222.334,233.414z"/>
<path fill="#006AAB" stroke="#FFFFFF" stroke-width="0.25" stroke-miterlimit="10" d="M275.301,204.102h12.84v9.123
	c2.619-6.251,6.842-10.306,14.445-9.968v13.431h-0.676c-8.532,0-13.769,5.153-13.769,15.965v16.726h-12.84V204.102z"/>
<path fill="#006AAB" stroke="#FFFFFF" stroke-width="0.25" stroke-miterlimit="10" d="M305.799,236.37v-0.169
	c0-9.883,7.518-14.445,18.246-14.445c4.562,0,7.856,0.76,11.066,1.858v-0.76c0-5.322-3.294-8.278-9.714-8.278
	c-4.899,0-8.363,0.929-12.502,2.45l-3.21-9.799c4.984-2.196,9.883-3.632,17.57-3.632c7.011,0,12.08,1.858,15.29,5.068
	c3.379,3.379,4.899,8.363,4.899,14.445v26.271h-12.417v-4.899c-3.125,3.463-7.434,5.744-13.685,5.744
	C312.81,250.224,305.799,245.324,305.799,236.37z M335.28,233.414v-2.281c-2.196-1.014-5.068-1.689-8.194-1.689
	c-5.491,0-8.87,2.196-8.87,6.251v0.169c0,3.463,2.872,5.491,7.011,5.491C331.225,241.354,335.28,238.06,335.28,233.414z"/>
<path fill="#006AAB" stroke="#FFFFFF" stroke-width="0.25" stroke-miterlimit="10" d="M358.513,204.102h12.84v6.42
	c2.957-3.801,6.758-7.265,13.262-7.265c9.714,0,15.374,6.42,15.374,16.81v29.312h-12.84v-25.257c0-6.082-2.872-9.208-7.771-9.208
	s-8.025,3.125-8.025,9.208v25.257h-12.84V204.102z"/>
<path fill="#006AAB" stroke="#FFFFFF" stroke-width="0.25" stroke-miterlimit="10" d="M408.945,226.994v-0.169
	c0-12.924,9.883-23.568,23.737-23.568c8.532,0,13.854,2.872,18.077,7.603l-7.856,8.447c-2.872-3.041-5.744-4.984-10.306-4.984
	c-6.42,0-10.981,5.66-10.981,12.333v0.169c0,6.927,4.477,12.502,11.488,12.502c4.308,0,7.265-1.858,10.39-4.815l7.518,7.603
	c-4.393,4.815-9.461,8.278-18.5,8.278C418.913,250.393,408.945,239.918,408.945,226.994z"/>
<path fill="#006AAB" stroke="#FFFFFF" stroke-width="0.25" stroke-miterlimit="10" d="M455.916,226.994v-0.169
	c0-12.924,9.208-23.568,22.385-23.568c15.121,0,22.047,11.742,22.047,24.582c0,1.014-0.084,2.196-0.169,3.379h-31.508
	c1.267,5.829,5.322,8.87,11.066,8.87c4.308,0,7.434-1.352,10.981-4.646l7.349,6.504c-4.224,5.237-10.306,8.447-18.5,8.447
	C465.968,250.393,455.916,240.847,455.916,226.994z M487.846,223.192c-0.76-5.744-4.139-9.63-9.545-9.63
	c-5.322,0-8.785,3.801-9.799,9.63H487.846z"/>
<path fill="#DBDADD" d="M549.346,255.823l12.023-16.376l0.933-1.399c2.004-2.902,4.25-4.353,6.737-4.353
	c1.623,0,2.954,0.51,3.99,1.529c1.036,1.02,1.555,2.324,1.555,3.913c0,1.728-1.036,3.938-3.109,6.633L552.3,270.593
	c-2.143,2.798-4.664,4.197-7.566,4.197c-2.453,0-4.388-0.855-5.804-2.565c-1.417-1.71-2.125-4.05-2.125-7.021
	c0-0.622,0.017-1.122,0.052-1.503l1.865-20.678c0.242-2.798,0.993-4.931,2.255-6.4c1.261-1.468,2.962-2.203,5.104-2.203
	c3.282,0,4.923,1.658,4.923,4.975c0,0.484-0.069,1.313-0.207,2.487L549.346,255.823z"/>
<path fill="#DBDADD" d="M589.147,248.568l-0.985,2.384c-1.521,3.42-3.679,5.13-6.478,5.13c-1.417,0-2.687-0.492-3.809-1.478
	c-1.123-0.984-1.685-2.115-1.685-3.394c0-1.209,0.5-2.815,1.503-4.82l6.893-13.992c1.692-3.351,3.8-5.027,6.322-5.027
	c1.348,0,2.505,0.44,3.473,1.321c0.967,0.881,1.45,1.926,1.45,3.135c0,0.311-0.104,0.985-0.311,2.021
	c-0.139,0.76-0.207,1.434-0.207,2.021c0,2.176,0.812,4.405,2.436,6.685l2.954,4.094c3.006,4.181,4.509,8.223,4.509,12.126
	c0,4.354-1.625,7.99-4.872,10.909c-3.248,2.92-7.29,4.379-12.126,4.379h-10.832c-4.388,0-6.581-1.52-6.581-4.561
	c0-2.106,0.777-3.757,2.332-4.949c1.555-1.191,3.696-1.787,6.426-1.787h6.012c4.802,0,7.203-1.744,7.203-5.234
	c0-1.278-0.449-2.781-1.347-4.509L589.147,248.568z"/>
<path fill="#DBDADD" d="M619.101,261.005c1.969,0,3.661,0.709,5.078,2.125c1.416,1.417,2.125,3.109,2.125,5.079
	c0,2.004-0.709,3.714-2.125,5.13c-1.417,1.416-3.109,2.125-5.078,2.125c-2.005,0-3.715-0.709-5.131-2.125
	c-1.417-1.416-2.125-3.126-2.125-5.13c0-1.97,0.708-3.662,2.125-5.079C615.386,261.714,617.096,261.005,619.101,261.005z"/>
<path fill="#6898C8" stroke="#FFFFFF" stroke-width="0.25" stroke-miterlimit="10" d="M542.451,252.375l12.023-16.376l0.933-1.399
	c2.003-2.902,4.25-4.353,6.737-4.353c1.623,0,2.954,0.51,3.99,1.529c1.036,1.02,1.555,2.324,1.555,3.913
	c0,1.728-1.036,3.938-3.109,6.633l-19.175,24.824c-2.143,2.798-4.664,4.197-7.566,4.197c-2.453,0-4.388-0.854-5.804-2.565
	c-1.417-1.71-2.125-4.05-2.125-7.021c0-0.622,0.017-1.122,0.052-1.503l1.865-20.678c0.242-2.798,0.993-4.931,2.255-6.4
	c1.261-1.468,2.962-2.203,5.104-2.203c3.282,0,4.923,1.658,4.923,4.975c0,0.484-0.069,1.313-0.207,2.487L542.451,252.375z"/>
<path fill="#6898C8" stroke="#FFFFFF" stroke-width="0.25" stroke-miterlimit="10" d="M582.251,245.12l-0.985,2.384
	c-1.521,3.42-3.679,5.13-6.478,5.13c-1.417,0-2.687-0.492-3.809-1.477c-1.123-0.984-1.685-2.116-1.685-3.394
	c0-1.209,0.5-2.815,1.503-4.82l6.893-13.992c1.692-3.351,3.8-5.027,6.322-5.027c1.348,0,2.505,0.44,3.473,1.321
	c0.967,0.881,1.45,1.926,1.45,3.135c0,0.311-0.104,0.985-0.311,2.021c-0.139,0.76-0.207,1.434-0.207,2.021
	c0,2.176,0.812,4.405,2.436,6.685l2.954,4.094c3.006,4.181,4.509,8.223,4.509,12.126c0,4.354-1.625,7.99-4.872,10.909
	c-3.248,2.92-7.29,4.379-12.126,4.379h-10.832c-4.388,0-6.581-1.52-6.581-4.561c0-2.106,0.777-3.757,2.332-4.949
	c1.555-1.191,3.696-1.787,6.426-1.787h6.012c4.802,0,7.203-1.744,7.203-5.234c0-1.278-0.449-2.781-1.347-4.509L582.251,245.12z"/>
<path fill="#6898C8" stroke="#FFFFFF" stroke-width="0.25" stroke-miterlimit="10" d="M612.206,257.557
	c1.969,0,3.661,0.709,5.078,2.125c1.416,1.417,2.125,3.109,2.125,5.079c0,2.004-0.709,3.714-2.125,5.13
	c-1.417,1.417-3.109,2.125-5.078,2.125c-2.005,0-3.715-0.708-5.131-2.125c-1.417-1.416-2.125-3.126-2.125-5.13
	c0-1.97,0.708-3.662,2.125-5.079C608.491,258.266,610.201,257.557,612.206,257.557z"/>
<path fill="#DBDADD" d="M481.489,339.942h11.995l25.342,59.553h-13.6l-5.406-13.262h-25.004l-5.406,13.262h-13.262L481.489,339.942z
	 M495.173,374.745l-7.856-19.176l-7.856,19.176H495.173z"/>
<path fill="#DBDADD" d="M526.179,386.655v-21.456h-5.406v-10.981h5.406v-11.572h12.84v11.572h10.643v10.981h-10.643v19.345
	c0,2.956,1.267,4.393,4.139,4.393c2.365,0,4.477-0.592,6.336-1.605v10.306c-2.703,1.604-5.829,2.618-10.137,2.618
	C531.5,400.255,526.179,397.13,526.179,386.655z"/>
<path fill="#DBDADD" d="M559.716,337.83h12.84v61.665h-12.84V337.83z"/>
<path fill="#DBDADD" d="M581.933,386.486v-0.169c0-9.883,7.518-14.445,18.246-14.445c4.562,0,7.855,0.761,11.066,1.859v-0.761
	c0-5.321-3.295-8.278-9.715-8.278c-4.899,0-8.363,0.93-12.502,2.449l-3.21-9.799c4.983-2.195,9.884-3.632,17.57-3.632
	c7.011,0,12.079,1.858,15.29,5.068c3.379,3.379,4.898,8.362,4.898,14.444v26.271h-12.417v-4.899
	c-3.126,3.464-7.434,5.744-13.685,5.744C588.945,400.34,581.933,395.44,581.933,386.486z M611.414,383.53v-2.281
	c-2.195-1.014-5.068-1.689-8.193-1.689c-5.49,0-8.869,2.196-8.869,6.251v0.169c0,3.463,2.871,5.49,7.011,5.49
	C607.359,391.47,611.414,388.176,611.414,383.53z"/>
<path fill="#DBDADD" d="M631.099,393.497l5.49-8.447c4.9,3.549,10.053,5.406,14.276,5.406c3.717,0,5.406-1.352,5.406-3.379v-0.168
	c0-2.788-4.393-3.717-9.376-5.238c-6.336-1.857-13.516-4.814-13.516-13.6v-0.169c0-9.208,7.434-14.36,16.557-14.36
	c5.744,0,11.994,1.943,16.895,5.237l-4.9,8.87c-4.477-2.619-8.953-4.225-12.248-4.225c-3.125,0-4.73,1.352-4.73,3.126v0.169
	c0,2.534,4.309,3.717,9.207,5.406c6.336,2.111,13.686,5.152,13.686,13.432v0.168c0,10.053-7.519,14.614-17.317,14.614
	C644.193,400.34,637.097,398.228,631.099,393.497z"/>
<path fill="#DBDADD" d="M717.519,352.359h-17.993v-11.995h48.994v11.995h-17.993v47.136h-13.008V352.359z"/>
<path fill="#DBDADD" d="M752.071,354.218h12.84v9.123c2.618-6.251,6.843-10.306,14.444-9.968v13.431h-0.676
	c-8.531,0-13.769,5.153-13.769,15.966v16.726h-12.84V354.218z"/>
<path fill="#DBDADD" d="M782.569,386.486v-0.169c0-9.883,7.519-14.445,18.246-14.445c4.562,0,7.856,0.761,11.065,1.859v-0.761
	c0-5.321-3.294-8.278-9.714-8.278c-4.899,0-8.362,0.93-12.502,2.449l-3.21-9.799c4.984-2.195,9.883-3.632,17.57-3.632
	c7.012,0,12.08,1.858,15.289,5.068c3.379,3.379,4.9,8.362,4.9,14.444v26.271h-12.418v-4.899c-3.125,3.464-7.434,5.744-13.685,5.744
	C789.58,400.34,782.569,395.44,782.569,386.486z M812.05,383.53v-2.281c-2.197-1.014-5.068-1.689-8.194-1.689
	c-5.491,0-8.87,2.196-8.87,6.251v0.169c0,3.463,2.873,5.49,7.012,5.49C807.996,391.47,812.05,388.176,812.05,383.53z"/>
<path fill="#DBDADD" d="M829.54,354.218h13.601l10.137,30.326l10.221-30.326h13.347l-17.823,45.615h-11.658L829.54,354.218z"/>
<path fill="#DBDADD" d="M879.549,377.11v-0.17c0-12.924,9.208-23.567,22.386-23.567c15.12,0,22.047,11.741,22.047,24.581
	c0,1.014-0.084,2.197-0.169,3.379h-31.509c1.268,5.829,5.322,8.87,11.066,8.87c4.309,0,7.434-1.352,10.981-4.646l7.349,6.504
	c-4.223,5.237-10.305,8.447-18.499,8.447C889.601,400.509,879.549,390.964,879.549,377.11z M911.48,373.309
	c-0.76-5.744-4.139-9.63-9.545-9.63c-5.322,0-8.785,3.801-9.799,9.63H911.48z"/>
<path fill="#DBDADD" d="M934.123,337.83h12.84v61.665h-12.84V337.83z"/>
<path fill="#DBDADD" d="M955.664,354.387v-0.085c0-8.024,6.504-14.782,14.698-14.782c8.278,0,14.698,6.673,14.698,14.698v0.084
	c0,8.025-6.504,14.783-14.698,14.783C962.083,369.085,955.664,362.411,955.664,354.387z M983.371,354.302v-0.084
	c0-7.18-5.575-13.094-13.009-13.094c-7.349,0-13.009,5.998-13.009,13.178v0.085c0,7.181,5.575,13.093,13.009,13.093
	C977.71,367.479,983.371,361.482,983.371,354.302z M964.618,346.53h6.758c3.294,0,5.744,1.605,5.744,4.73
	c0,2.45-1.437,3.971-3.464,4.563l3.971,5.659h-3.463l-3.549-5.153h-3.125v5.153h-2.872V346.53z M971.123,353.964
	c1.942,0,3.041-1.014,3.041-2.449c0-1.605-1.099-2.449-3.041-2.449h-3.633v4.898H971.123z"/>
<path fill="#6898C8" stroke="#FFFFFF" stroke-width="0.25" stroke-miterlimit="10" d="M480.054,333.044h11.995l25.342,59.554h-13.6
	l-5.406-13.263h-25.004l-5.406,13.263h-13.262L480.054,333.044z M493.739,367.847l-7.856-19.175l-7.856,19.175H493.739z"/>
<path fill="#6898C8" stroke="#FFFFFF" stroke-width="0.25" stroke-miterlimit="10" d="M524.744,379.758v-21.456h-5.406V347.32h5.406
	v-11.573h12.84v11.573h10.645v10.981h-10.645v19.344c0,2.957,1.268,4.393,4.14,4.393c2.365,0,4.478-0.591,6.335-1.604v10.306
	c-2.703,1.605-5.828,2.619-10.137,2.619C530.066,393.358,524.744,390.232,524.744,379.758z"/>
<path fill="#6898C8" stroke="#FFFFFF" stroke-width="0.25" stroke-miterlimit="10" d="M558.283,330.933h12.84v61.665h-12.84V330.933
	z"/>
<path fill="#6898C8" stroke="#FFFFFF" stroke-width="0.25" stroke-miterlimit="10" d="M580.499,379.589v-0.169
	c0-9.884,7.519-14.444,18.246-14.444c4.562,0,7.856,0.76,11.065,1.857v-0.76c0-5.322-3.294-8.278-9.714-8.278
	c-4.899,0-8.362,0.929-12.502,2.45l-3.21-9.799c4.984-2.197,9.883-3.633,17.57-3.633c7.012,0,12.08,1.858,15.289,5.068
	c3.379,3.379,4.9,8.363,4.9,14.445v26.271h-12.418v-4.899c-3.125,3.463-7.434,5.744-13.685,5.744
	C587.509,393.442,580.499,388.543,580.499,379.589z M609.98,376.632v-2.28c-2.197-1.014-5.068-1.689-8.194-1.689
	c-5.491,0-8.87,2.196-8.87,6.251v0.169c0,3.464,2.873,5.491,7.012,5.491C605.925,384.573,609.98,381.278,609.98,376.632z"/>
<path fill="#6898C8" stroke="#FFFFFF" stroke-width="0.25" stroke-miterlimit="10" d="M629.665,386.601l5.491-8.447
	c4.898,3.547,10.052,5.406,14.275,5.406c3.717,0,5.406-1.352,5.406-3.379v-0.17c0-2.787-4.393-3.717-9.377-5.236
	c-6.335-1.859-13.516-4.815-13.516-13.601v-0.169c0-9.207,7.434-14.36,16.557-14.36c5.744,0,11.996,1.942,16.895,5.237l-4.898,8.869
	c-4.478-2.618-8.955-4.223-12.249-4.223c-3.126,0-4.73,1.352-4.73,3.125v0.169c0,2.534,4.308,3.717,9.208,5.406
	c6.335,2.112,13.684,5.153,13.684,13.431v0.17c0,10.052-7.518,14.613-17.316,14.613
	C642.757,393.442,635.662,391.331,629.665,386.601z"/>
<path fill="#6898C8" stroke="#FFFFFF" stroke-width="0.25" stroke-miterlimit="10" d="M716.083,345.462h-17.992v-11.995h48.994
	v11.995h-17.992v47.136h-13.01V345.462z"/>
<path fill="#6898C8" stroke="#FFFFFF" stroke-width="0.25" stroke-miterlimit="10" d="M750.636,347.32h12.84v9.123
	c2.619-6.251,6.842-10.306,14.445-9.968v13.432h-0.676c-8.532,0-13.77,5.152-13.77,15.965v16.726h-12.84V347.32z"/>
<path fill="#6898C8" stroke="#FFFFFF" stroke-width="0.25" stroke-miterlimit="10" d="M781.134,379.589v-0.169
	c0-9.884,7.518-14.444,18.246-14.444c4.562,0,7.855,0.76,11.066,1.857v-0.76c0-5.322-3.295-8.278-9.715-8.278
	c-4.899,0-8.363,0.929-12.502,2.45l-3.21-9.799c4.983-2.197,9.884-3.633,17.57-3.633c7.011,0,12.079,1.858,15.29,5.068
	c3.379,3.379,4.898,8.363,4.898,14.445v26.271h-12.417v-4.899c-3.126,3.463-7.434,5.744-13.685,5.744
	C788.146,393.442,781.134,388.543,781.134,379.589z M810.615,376.632v-2.28c-2.195-1.014-5.068-1.689-8.193-1.689
	c-5.49,0-8.869,2.196-8.869,6.251v0.169c0,3.464,2.871,5.491,7.011,5.491C806.56,384.573,810.615,381.278,810.615,376.632z"/>
<path fill="#6898C8" stroke="#FFFFFF" stroke-width="0.25" stroke-miterlimit="10" d="M828.105,347.32h13.6l10.137,30.325
	l10.222-30.325h13.347l-17.824,45.615h-11.656L828.105,347.32z"/>
<path fill="#6898C8" stroke="#FFFFFF" stroke-width="0.25" stroke-miterlimit="10" d="M878.116,370.212v-0.168
	c0-12.925,9.208-23.568,22.386-23.568c15.12,0,22.047,11.742,22.047,24.582c0,1.014-0.084,2.195-0.169,3.379h-31.509
	c1.268,5.828,5.322,8.869,11.066,8.869c4.309,0,7.434-1.352,10.981-4.646l7.349,6.505c-4.223,5.237-10.305,8.447-18.499,8.447
	C888.167,393.611,878.116,384.065,878.116,370.212z M910.046,366.411c-0.76-5.744-4.139-9.63-9.545-9.63
	c-5.322,0-8.785,3.802-9.799,9.63H910.046z"/>
<path fill="#6898C8" stroke="#FFFFFF" stroke-width="0.25" stroke-miterlimit="10" d="M932.687,330.933h12.84v61.665h-12.84V330.933
	z"/>
<path fill="#6898C8" stroke="#FFFFFF" stroke-width="0.25" stroke-miterlimit="10" d="M954.229,347.489v-0.084
	c0-8.025,6.505-14.783,14.698-14.783c8.278,0,14.698,6.674,14.698,14.698v0.085c0,8.024-6.505,14.782-14.698,14.782
	C960.649,362.188,954.229,355.515,954.229,347.489z M981.936,347.405v-0.085c0-7.181-5.575-13.093-13.009-13.093
	c-7.35,0-13.009,5.997-13.009,13.178v0.084c0,7.18,5.575,13.094,13.009,13.094C976.277,360.583,981.936,354.585,981.936,347.405z
	 M963.183,339.634h6.758c3.295,0,5.744,1.604,5.744,4.73c0,2.449-1.436,3.97-3.463,4.561l3.97,5.66h-3.464l-3.547-5.152h-3.126
	v5.152h-2.872V339.634z M969.687,347.067c1.943,0,3.041-1.014,3.041-2.45c0-1.604-1.098-2.45-3.041-2.45h-3.632v4.9H969.687z"/>
<path fill="#DBDADD" d="M790.653,166.956c2.889,0.299,5.934,0.456,9.148,0.467c1.367,0,2.786-0.028,4.218-0.084
	c0.137-0.007,0.274-0.01,0.409-0.01c1.31,0,2.561,0.251,3.708,0.702c4.886-3.102,9.452-6.63,13.572-10.177
	c-0.191,3.027-0.316,6.069-0.39,9.05c3.503-2.072,6.266-4.864,8.423-8.532c2.327-3.914,3.494-8.462,4.041-12.008
	c0.349-2.274,0.448-4.14,0.428-5.155c0-0.281-0.003-0.432-0.005-0.487c-0.241-5.58,4.073-10.312,9.625-10.59
	c0.013,0,0.025-0.003,0.038-0.004c0.162-0.006,0.324-0.009,0.484-0.009c5.424,0,9.874,4.248,10.129,9.675
	c0.006,0.101,0.023,0.586,0.023,1.375c-0.018,4.357-0.59,11.13-3.223,18.694c-2.621,7.575-8.253,18.034-20.165,24.828
	c-2.979,1.707-6.204,3.088-9.651,4.151c0,0.058,0.001,0.12,0.004,0.175c0.52,16.806-5.85,53.904-0.13,62.101
	c1.618,2.319,7.558,3.747,15.263,4.402l-1.351,41.533c-0.227,7.004,5.265,12.865,12.268,13.092c0.142,0.006,0.28,0.008,0.42,0.008
	c6.815,0,12.448-5.412,12.673-12.273l1.382-42.545c13.527-1.154,25.276-3.885,25.699-7.74
	c6.237-56.592-9.496-123.751-39.628-125.596c-12.223-0.748-14.437,1.018-17.084,3.044c-1.136,0.871-2.137,2.101-3.03,3.596
	c-2.896,3.375-9.479,10.69-17.531,17.51c-4.861,4.125-10.253,8.05-15.487,10.813c-1.973,1.05-3.914,1.919-5.777,2.594
	c-0.195,0.371-0.358,0.701-0.488,0.979C790.13,162.554,790.803,164.826,790.653,166.956z M835.588,220.67l-1.215-4.225l3.527-0.864
	l13.65-3.342l0.68,2.873l-14.472,4.834L835.588,220.67z"/>
<path fill="#DBDADD" d="M805.333,134.491c-0.036,0.074-0.061,0.152-0.089,0.229c-16.791,11.562-21.275,21.083-22.209,23.597
	c-4.569-2.409-9.745-1.573-11.583,1.882c-0.246,0.461-0.157,1.018,0.172,1.626c1.154,0.576,2.363,1.097,3.609,1.583
	c3.996,1.559,8.453,2.662,13.41,3.31c0.114-1.97-0.723-4.082-2.316-5.854c0.039-0.109,0.101-0.274,0.186-0.481
	c1.114-2.688,6.506-13.396,25.719-25.394c8.005-4.999,14.121-10.657,18.748-16.053c0.896,0.039,1.797,0.031,2.707-0.038
	c1.494-0.114,3.001-0.376,4.502-0.799c12.131-3.422,19.192-16.038,15.77-28.171c-3.426-12.134-16.041-19.194-28.175-15.771
	c-12.129,3.424-19.192,16.038-15.77,28.173c0.721,2.552,1.853,4.876,3.296,6.928c0.478,0.68,0.985,1.333,1.533,1.951
	C812.75,117.931,809.721,125.925,805.333,134.491z M811.804,130.438c2.669-5.818,4.729-11.283,6.32-16.169
	c0.566,0.43,1.148,0.834,1.747,1.209c1.315,0.822,2.715,1.509,4.173,2.051c0.703,0.26,1.421,0.488,2.149,0.68
	C822.399,122.345,817.67,126.572,811.804,130.438z"/>
<circle fill="#DBDADD" cx="759.463" cy="107.186" r="22.83"/>
<path fill="#DBDADD" d="M724.67,148.132c-9.087,19.605-12.008,32.692-11.845,55.391c1.386,16.589,12.338,19.471,21.595,20.361
	c1.137,0.11,2.194,0.196,3.18,0.24c0.743,0.148,1.51,0.228,2.296,0.228c9.05-0.032,16.263,1.939,20.475,5.43
	c2.172,1.772,3.896,3.928,5.309,7.298c1.393,3.364,2.388,8.042,2.388,14.461c0.003,5.529-0.749,12.317-2.527,20.426
	c-1.379,6.297,2.607,12.52,8.904,13.898c0.841,0.186,1.68,0.273,2.509,0.273c5.365,0,10.194-3.723,11.392-9.176
	c2.058-9.41,3.062-17.813,3.063-25.422c0-8.801-1.357-16.593-4.154-23.37c-4.126-10.209-11.837-17.672-20.443-21.733
	c-5.751-2.758-11.788-4.239-17.852-4.93c0.842-8.891,3.097-17.975,5.558-26.318c-2.251-1.605-4.189-3.237-5.837-4.808
	c-9.192-8.709-12.014-17.584-12.488-19.275c-0.706-2.635-0.352-5.368,1-7.719c1.354-2.349,3.538-4.03,6.156-4.735
	c0.866-0.233,1.758-0.354,2.65-0.354c4.513,0,8.523,3.038,9.754,7.383c0.019,0.062,0.068,0.204,0.145,0.405
	c0.173,0.445,0.487,1.191,0.995,2.144c0.779,1.464,2.095,3.54,4.131,5.762c1.582-8.607-1.279-17.726-8.289-20.308
	C744.356,130.6,731.36,133.914,724.67,148.132z"/>
<path fill="#DBDADD" d="M753.997,146.802c-0.097-0.254-0.157-0.43-0.183-0.514c-0.001-0.009-0.005-0.016-0.006-0.022
	c-0.004-0.009-0.005-0.017-0.009-0.027c0-0.001,0-0.002,0-0.002c-1.21-4.267-5.63-6.784-9.925-5.625
	c-4.328,1.165-6.894,5.621-5.726,9.95h-0.002c0.26,0.928,2.745,9.646,11.935,18.351c1.496,1.427,3.19,2.833,5.055,4.193
	c7.108,5.191,16.97,9.647,30.066,11.565c-0.617-1.52-0.857-3.18-0.686-4.857c0.099-0.922,0.316-1.801,0.635-2.628
	c1.479-3.826,5.166-6.476,9.452-6.476c0.349,0,0.699,0.018,1.054,0.056c2.475,0.257,4.876,0.387,7.144,0.387
	c0.004,0,0.009,0,0.015,0c2.193-0.004,4.241-0.136,6.186-0.371c-0.959-0.657-2.06-1.121-3.247-1.316
	c-0.536-0.087-1.089-0.125-1.655-0.102c-1.482,0.057-2.915,0.086-4.304,0.086c-3.439-0.011-6.609-0.19-9.535-0.505
	c-0.716-0.076-1.413-0.163-2.1-0.256c-4.641-0.626-8.633-1.605-12.07-2.809c-0.766-0.269-1.503-0.547-2.215-0.835
	c-1.313-0.531-2.531-1.094-3.674-1.68c-3.79-1.944-6.697-4.141-8.97-6.257c-0.268-0.252-0.515-0.503-0.762-0.754
	c-2.666-2.682-4.359-5.267-5.373-7.171C754.545,148.146,754.193,147.313,753.997,146.802z"/>
<path fill="#DBDADD" d="M710.087,292.498h29.941l1.952,16.916h10.188l-4.192-70.894v-8.542h-45.841v8.553l-4.188,70.882h10.187
	L710.087,292.498z M712.188,240.128h25.739l1.724,47.974h-29.187L712.188,240.128z"/>
<path fill="#DBDADD" d="M802.8,173.185c-1.229,0-2.516-0.041-3.849-0.117c-1.13-0.066-2.296-0.156-3.501-0.282
	c-3.282-0.34-6.307,1.33-7.862,4.013c-0.558,0.961-0.93,2.05-1.051,3.227c-0.188,1.801,0.239,3.523,1.1,4.972
	c0.52,0.877,1.202,1.65,2.01,2.277c1.157,0.898,2.564,1.501,4.13,1.663c3.152,0.325,6.16,0.484,9.023,0.484c0.025,0,0.05,0,0.075,0
	c6.964,0,13.136-0.964,18.528-2.69c3.171-1.017,6.076-2.296,8.708-3.804c10.747-6.128,16.45-15.635,19.257-23.732
	c2.838-8.159,3.095-15.178,3.107-18.027c0-0.722-0.018-1.166-0.022-1.279c-0.21-4.472-3.996-7.928-8.465-7.733
	c-0.007,0.001-0.014,0-0.023,0c-4.471,0.208-7.927,3.993-7.733,8.458h-0.001v0.002v0.001c0.001,0.029,0.008,0.222,0.008,0.551
	c0.013,0.547-0.012,1.492-0.116,2.704c-0.318,3.746-1.4,10.092-4.632,15.529c-2.133,3.63-5.044,6.906-9.434,9.428
	c-0.257,0.146-0.519,0.288-0.787,0.429c-2.27,1.198-4.959,2.213-8.194,2.913c-0.701,0.151-1.431,0.285-2.184,0.405
	C808.482,172.96,805.806,173.181,802.8,173.185z"/>
</svg>
