<?xml version="1.0" encoding="utf-8"?>
<!-- Generator: Adobe Illustrator 15.0.2, SVG Export Plug-In  -->
<!DOCTYPE svg PUBLIC "-//W3C//DTD SVG 1.1//EN" "http://www.w3.org/Graphics/SVG/1.1/DTD/svg11.dtd" [
	<!ENTITY ns_flows "http://ns.adobe.com/Flows/1.0/">
]>
<svg version="1.1"
	 xmlns="http://www.w3.org/2000/svg" xmlns:xlink="http://www.w3.org/1999/xlink" xmlns:a="http://ns.adobe.com/AdobeSVGViewerExtensions/3.0/"
	 x="0px" y="0px" width="575px" height="212px" viewBox="-54.049 -54.547 575 212" enable-background="new -54.049 -54.547 575 212"
	 xml:space="preserve">
<defs>
</defs>
<path fill="#6898C8" d="M0,1.362h2.78l6.467,18.851l6.208-18.915h2.102l6.208,18.915l6.467-18.851h2.684l-8.083,22.796h-2.166
	L16.458,5.792l-6.241,18.366H8.083L0,1.362z"/>
<path fill="#6898C8" d="M37.768,1.362h2.554v22.634h-2.554V1.362z"/>
<path fill="#6898C8" d="M52.932,3.723h-7.599v-2.36h17.784v2.36h-7.599v20.273h-2.587V3.723z"/>
<path fill="#6898C8" d="M67.903,1.362h2.554v10.056h13.063V1.362h2.554v22.634h-2.554V13.812H70.457v10.185h-2.554V1.362z"/>
<path fill="#6898C8" d="M118.59,1.437h8.162l17.244,40.523h-9.254l-3.679-9.024H114.05l-3.679,9.024h-9.024L118.59,1.437z
	 M127.902,25.118l-5.346-13.048l-5.346,13.048H127.902z"/>
<path fill="#6898C8" d="M149.001,33.223v-14.6h-3.679V11.15h3.679V3.276h8.737v7.874h7.242v7.473h-7.242v13.163
	c0,2.012,0.861,2.989,2.816,2.989c1.609,0,3.046-0.402,4.311-1.093v7.013c-1.839,1.092-3.966,1.782-6.897,1.782
	C152.622,42.478,149.001,40.351,149.001,33.223z"/>
<path fill="#6898C8" d="M171.822,0h8.737v41.96h-8.737V0z"/>
<path fill="#6898C8" d="M186.94,33.108v-0.115c0-6.726,5.115-9.829,12.416-9.829c3.104,0,5.345,0.518,7.529,1.265v-0.518
	c0-3.621-2.241-5.633-6.61-5.633c-3.334,0-5.69,0.632-8.507,1.667l-2.185-6.668c3.392-1.494,6.726-2.472,11.956-2.472
	c4.771,0,8.22,1.265,10.404,3.449c2.299,2.299,3.334,5.69,3.334,9.829V41.96h-8.45v-3.334c-2.127,2.356-5.058,3.909-9.312,3.909
	C191.711,42.535,186.94,39.201,186.94,33.108z M207.001,31.097v-1.553c-1.494-0.689-3.449-1.149-5.576-1.149
	c-3.735,0-6.035,1.495-6.035,4.254v0.115c0,2.356,1.954,3.735,4.771,3.735C204.242,36.499,207.001,34.258,207.001,31.097z"/>
<path fill="#6898C8" d="M220.396,37.879l3.736-5.748c3.334,2.414,6.84,3.679,9.714,3.679c2.529,0,3.679-0.92,3.679-2.299v-0.115
	c0-1.896-2.988-2.529-6.38-3.563c-4.311-1.265-9.196-3.276-9.196-9.255v-0.114c0-6.266,5.058-9.771,11.266-9.771
	c3.908,0,8.162,1.321,11.496,3.563l-3.334,6.035c-3.047-1.782-6.093-2.874-8.335-2.874c-2.126,0-3.219,0.92-3.219,2.127v0.115
	c0,1.724,2.932,2.528,6.266,3.679c4.311,1.437,9.312,3.506,9.312,9.139v0.115c0,6.84-5.115,9.944-11.783,9.944
	C229.307,42.535,224.478,41.098,220.396,37.879z"/>
<path fill="#6898C8" d="M279.202,9.886h-12.243V1.724h33.339v8.162h-12.243V41.96h-8.853V9.886z"/>
<path fill="#6898C8" d="M302.714,11.15h8.737v6.208c1.782-4.253,4.656-7.013,9.829-6.782v9.139h-0.46
	c-5.806,0-9.369,3.507-9.369,10.864V41.96h-8.737V11.15z"/>
<path fill="#6898C8" d="M323.467,33.108v-0.115c0-6.726,5.115-9.829,12.416-9.829c3.104,0,5.345,0.518,7.529,1.265v-0.518
	c0-3.621-2.241-5.633-6.61-5.633c-3.334,0-5.69,0.632-8.507,1.667l-2.185-6.668c3.392-1.494,6.726-2.472,11.956-2.472
	c4.771,0,8.22,1.265,10.404,3.449c2.299,2.299,3.334,5.69,3.334,9.829V41.96h-8.45v-3.334c-2.127,2.356-5.058,3.909-9.312,3.909
	C328.237,42.535,323.467,39.201,323.467,33.108z M343.527,31.097v-1.553c-1.494-0.689-3.449-1.149-5.575-1.149
	c-3.736,0-6.036,1.495-6.036,4.254v0.115c0,2.356,1.954,3.735,4.771,3.735C340.769,36.499,343.527,34.258,343.527,31.097z"/>
<path fill="#6898C8" d="M355.43,11.15h9.255l6.897,20.636l6.955-20.636h9.081L375.49,42.189h-7.932L355.43,11.15z"/>
<path fill="#6898C8" d="M389.46,26.728v-0.114c0-8.795,6.266-16.037,15.232-16.037c10.289,0,15.002,7.989,15.002,16.727
	c0,0.689-0.058,1.494-0.115,2.299H398.14c0.862,3.967,3.621,6.035,7.529,6.035c2.932,0,5.059-0.919,7.473-3.161l5.001,4.426
	c-2.874,3.564-7.013,5.748-12.588,5.748C396.3,42.649,389.46,36.154,389.46,26.728z M411.188,24.142
	c-0.518-3.909-2.816-6.553-6.495-6.553c-3.621,0-5.979,2.586-6.668,6.553H411.188z"/>
<path fill="#6898C8" d="M426.595,0h8.737v41.96h-8.737V0z"/>
<g>
	<g>
		<path fill="#006AAB" d="M284.546,68.619c-2.155-1.455-4.473-2.587-6.683-3.18v8.191c8.192,2.21,11.695,5.498,11.695,11.533v0.108
			c0,6.036-4.635,9.916-11.426,10.617v5.335h-5.604v-5.443c-4.636-0.593-9.162-2.425-12.72-5.119l4.204-6.145
			c2.91,2.21,5.604,3.719,8.784,4.365v-8.568c-7.761-2.103-11.587-5.013-11.587-11.426v-0.107c0-5.929,4.527-9.863,11.318-10.563
			v-3.126h5.604v3.287c3.826,0.485,7.061,1.887,10.024,3.935L284.546,68.619z M272.797,72.284v-7.33
			c-2.641,0.323-3.718,1.617-3.718,3.342v0.107C269.079,70.128,269.833,71.206,272.797,72.284z M277.863,81.607v7.545
			c2.533-0.377,3.826-1.509,3.826-3.449v-0.107C281.689,83.817,280.773,82.686,277.863,81.607z"/>
		<path fill="#006AAB" d="M294.569,90.932l5.012-5.982c2.856,2.587,5.659,4.096,9.001,4.096c3.88,0,6.306-1.887,6.306-5.228v-0.108
			c0-3.233-2.749-5.119-6.684-5.119c-2.371,0-4.526,0.646-6.305,1.4l-4.797-3.18l1.078-18.593h23.174v7.275h-16.061l-0.431,6.521
			c1.509-0.378,2.856-0.647,4.958-0.647c7.33,0,13.204,3.558,13.204,12.072v0.108c0,7.977-5.659,13.042-14.336,13.042
			C302.653,96.59,298.234,94.435,294.569,90.932z"/>
		<path fill="#006AAB" d="M333.587,92.548c-2.749-2.748-4.474-6.79-4.474-14.282v-0.107c0-11.641,5.282-20.588,16.546-20.588
			c5.119,0,8.461,1.51,11.803,4.15l-4.365,6.413c-2.479-1.886-4.474-3.018-7.707-3.018c-5.659,0-7.33,5.443-7.6,8.73
			c1.994-1.348,4.365-2.425,7.814-2.425c7.492,0,13.259,4.149,13.259,12.018v0.108c0,7.707-6.198,13.042-14.39,13.042
			C339.569,96.59,336.228,95.188,333.587,92.548z M350.617,83.925v-0.107c0-3.18-2.479-5.497-6.575-5.497s-6.467,2.264-6.467,5.443
			v0.107c0,3.18,2.479,5.605,6.574,5.605C348.246,89.477,350.617,87.158,350.617,83.925z"/>
		<path fill="#006AAB" d="M364.305,85.596v-0.107c0-4.581,2.103-7.276,6.091-9.108c-2.91-1.778-4.797-4.204-4.797-8.246v-0.107
			c0-5.767,5.281-10.348,13.258-10.348s13.258,4.527,13.258,10.348v0.107c0,4.042-1.886,6.468-4.797,8.246
			c3.827,1.994,6.091,4.419,6.091,8.893v0.107c0,7.007-6.198,11.103-14.552,11.103S364.305,92.171,364.305,85.596z M385.378,84.949
			v-0.108c0-2.91-2.749-4.635-6.521-4.635s-6.521,1.725-6.521,4.635v0.108c0,2.587,2.426,4.688,6.521,4.688
			S385.378,87.59,385.378,84.949z M384.246,69.05v-0.107c0-2.317-1.994-4.419-5.39-4.419s-5.39,2.048-5.39,4.365v0.107
			c0,2.641,2.103,4.635,5.39,4.635S384.246,71.691,384.246,69.05z"/>
		<path fill="#006AAB" d="M399.173,87.32h8.73v8.623h-8.73V87.32z"/>
		<path fill="#006AAB" d="M431.563,65.386h-17.73v-7.168h27.162v6.251l-16.923,31.475h-9.377L431.563,65.386z"/>
		<path fill="#006AAB" d="M445.412,85.596v-0.107c0-4.581,2.103-7.276,6.091-9.108c-2.91-1.778-4.797-4.204-4.797-8.246v-0.107
			c0-5.767,5.281-10.348,13.258-10.348s13.258,4.527,13.258,10.348v0.107c0,4.042-1.886,6.468-4.797,8.246
			c3.827,1.994,6.091,4.419,6.091,8.893v0.107c0,7.007-6.198,11.103-14.552,11.103S445.412,92.171,445.412,85.596z M466.485,84.949
			v-0.108c0-2.91-2.749-4.635-6.521-4.635s-6.521,1.725-6.521,4.635v0.108c0,2.587,2.426,4.688,6.521,4.688
			S466.485,87.59,466.485,84.949z M465.354,69.05v-0.107c0-2.317-1.994-4.419-5.39-4.419s-5.39,2.048-5.39,4.365v0.107
			c0,2.641,2.103,4.635,5.39,4.635S465.354,71.691,465.354,69.05z"/>
	</g>
</g>
</svg>
