<?xml version="1.0" encoding="utf-8"?>
<!-- Generator: Adobe Illustrator 15.0.2, SVG Export Plug-In  -->
<!DOCTYPE svg PUBLIC "-//W3C//DTD SVG 1.1//EN" "http://www.w3.org/Graphics/SVG/1.1/DTD/svg11.dtd" [
	<!ENTITY ns_flows "http://ns.adobe.com/Flows/1.0/">
]>
<svg version="1.1"
	 xmlns="http://www.w3.org/2000/svg" xmlns:xlink="http://www.w3.org/1999/xlink" xmlns:a="http://ns.adobe.com/AdobeSVGViewerExtensions/3.0/"
	 x="0px" y="0px" width="1200px" height="212px" viewBox="-69.22 -42 1200 212" enable-background="new -69.22 -42 1200 212"
	 xml:space="preserve">
<defs>
</defs>
<rect x="8" y="11" fill="none" stroke="#DBDADD" stroke-width="2" stroke-miterlimit="10" width="1066" height="124"/>
<rect fill="#DBDADD" width="1065" height="125"/>
<path fill="none" stroke="#E77D24" stroke-miterlimit="10" d="M817.043,36.569c0,14.932-20.014,27.035-44.706,27.035
	c-24.688,0-44.703-12.104-44.703-27.035c0-14.93,20.015-27.03,44.703-27.03C797.029,9.539,817.043,21.64,817.043,36.569z"/>
<ellipse fill="none" stroke="#E77D24" stroke-width="0.5" stroke-miterlimit="10" cx="772.338" cy="38.355" rx="44.705" ry="28.224"/>
<ellipse fill="none" stroke="#E77D24" stroke-width="0.5" stroke-miterlimit="10" cx="773.018" cy="34.377" rx="44.705" ry="27.293"/>
<path fill="#006AAB" d="M92.143,25.062h5.798l5.095,16.657l5.517-16.728h4.639l5.517,16.728l5.096-16.657h5.658l-8.399,24.774
	h-4.708l-5.553-16.095l-5.552,16.095h-4.708L92.143,25.062z"/>
<path fill="#006AAB" d="M132.489,24.007h5.623v4.744h-5.623V24.007z M132.63,30.824h5.341V49.66h-5.341V30.824z"/>
<path fill="#006AAB" d="M143.875,44.318v-8.926h-2.249v-4.568h2.249v-4.813h5.341v4.813h4.428v4.568h-4.428v8.048
	c0,1.229,0.527,1.827,1.722,1.827c0.984,0,1.862-0.246,2.635-0.668v4.287c-1.125,0.668-2.424,1.09-4.217,1.09
	C146.089,49.977,143.875,48.676,143.875,44.318z"/>
<path fill="#006AAB" d="M157.582,24.007h5.341v9.488c1.23-1.581,2.812-3.021,5.517-3.021c4.042,0,6.396,2.67,6.396,6.992V49.66
	h-5.342V39.153c0-2.53-1.195-3.831-3.233-3.831s-3.338,1.301-3.338,3.831V49.66h-5.341V24.007z"/>
<path fill="#006AAB" d="M199.017,24.886h4.99l10.542,24.774h-5.658l-2.249-5.518H196.24l-2.249,5.518h-5.517L199.017,24.886z
	 M204.709,39.364l-3.268-7.978l-3.268,7.978H204.709z"/>
<path fill="#006AAB" d="M217.609,44.318v-8.926h-2.249v-4.568h2.249v-4.813h5.341v4.813h4.428v4.568h-4.428v8.048
	c0,1.229,0.527,1.827,1.722,1.827c0.984,0,1.862-0.246,2.635-0.668v4.287c-1.125,0.668-2.424,1.09-4.217,1.09
	C219.823,49.977,217.609,48.676,217.609,44.318z"/>
<path fill="#006AAB" d="M231.562,24.007h5.341V49.66h-5.341V24.007z"/>
<path fill="#006AAB" d="M240.805,44.248v-0.07c0-4.111,3.127-6.009,7.59-6.009c1.897,0,3.268,0.316,4.604,0.773v-0.316
	c0-2.214-1.371-3.444-4.041-3.444c-2.039,0-3.479,0.387-5.201,1.02l-1.335-4.076c2.074-0.914,4.112-1.512,7.31-1.512
	c2.917,0,5.025,0.773,6.36,2.109c1.406,1.405,2.038,3.479,2.038,6.009V49.66h-5.166v-2.038c-1.3,1.44-3.092,2.39-5.693,2.39
	C243.721,50.012,240.805,47.974,240.805,44.248z M253.069,43.019v-0.949c-0.914-0.421-2.108-0.702-3.409-0.702
	c-2.284,0-3.69,0.913-3.69,2.601v0.069c0,1.441,1.195,2.284,2.917,2.284C251.382,46.321,253.069,44.951,253.069,43.019z"/>
<path fill="#006AAB" d="M261.259,47.165l2.284-3.514c2.038,1.476,4.182,2.249,5.939,2.249c1.546,0,2.249-0.563,2.249-1.406v-0.07
	c0-1.159-1.827-1.546-3.901-2.179c-2.635-0.772-5.623-2.003-5.623-5.657v-0.07c0-3.83,3.093-5.975,6.888-5.975
	c2.39,0,4.99,0.809,7.028,2.18l-2.038,3.689c-1.863-1.09-3.725-1.757-5.096-1.757c-1.3,0-1.968,0.562-1.968,1.3v0.07
	c0,1.055,1.792,1.546,3.831,2.249c2.635,0.879,5.693,2.144,5.693,5.588v0.07c0,4.182-3.128,6.079-7.204,6.079
	C266.706,50.012,263.754,49.133,261.259,47.165z"/>
<path fill="#006AAB" d="M297.212,30.052h-7.485v-4.99h20.382v4.99h-7.485V49.66h-5.412V30.052z"/>
<path fill="#006AAB" d="M311.587,30.824h5.341v3.796c1.089-2.601,2.847-4.287,6.009-4.146v5.587h-0.281
	c-3.549,0-5.728,2.144-5.728,6.642v6.958h-5.341V30.824z"/>
<path fill="#006AAB" d="M324.275,44.248v-0.07c0-4.111,3.127-6.009,7.59-6.009c1.897,0,3.268,0.316,4.604,0.773v-0.316
	c0-2.214-1.371-3.444-4.041-3.444c-2.039,0-3.479,0.387-5.201,1.02l-1.335-4.076c2.074-0.914,4.112-1.512,7.31-1.512
	c2.917,0,5.025,0.773,6.36,2.109c1.406,1.405,2.038,3.479,2.038,6.009V49.66h-5.166v-2.038c-1.3,1.44-3.092,2.39-5.693,2.39
	C327.191,50.012,324.275,47.974,324.275,44.248z M336.539,43.019v-0.949c-0.914-0.421-2.108-0.702-3.409-0.702
	c-2.284,0-3.69,0.913-3.69,2.601v0.069c0,1.441,1.195,2.284,2.917,2.284C334.852,46.321,336.539,44.951,336.539,43.019z"/>
<path fill="#006AAB" d="M343.816,30.824h5.658l4.217,12.616l4.252-12.616h5.552l-7.415,18.977h-4.849L343.816,30.824z"/>
<path fill="#006AAB" d="M364.622,40.348v-0.07c0-5.376,3.83-9.804,9.312-9.804c6.291,0,9.172,4.884,9.172,10.226
	c0,0.422-0.035,0.914-0.07,1.405h-13.107c0.527,2.425,2.214,3.69,4.604,3.69c1.792,0,3.092-0.563,4.568-1.933l3.057,2.705
	c-1.757,2.179-4.287,3.515-7.696,3.515C368.804,50.082,364.622,46.111,364.622,40.348z M377.905,38.767
	c-0.316-2.39-1.722-4.006-3.971-4.006c-2.214,0-3.654,1.581-4.076,4.006H377.905z"/>
<path fill="#006AAB" d="M387.326,24.007h5.341V49.66h-5.341V24.007z"/>
<path fill="#006AAB" d="M396.217,53.139c2.425-0.245,3.62-1.476,3.444-3.479h-2.179v-5.623h5.693v4.744
	c0,4.639-2.319,6.502-6.501,6.571L396.217,53.139z"/>
<path fill="#006AAB" d="M417.374,40.348v-0.07c0-5.411,4.357-9.804,10.226-9.804c5.833,0,10.156,4.322,10.156,9.733v0.07
	c0,5.412-4.358,9.805-10.226,9.805C421.696,50.082,417.374,45.76,417.374,40.348z M432.484,40.348v-0.07
	c0-2.776-2.003-5.201-4.955-5.201c-3.058,0-4.885,2.354-4.885,5.131v0.07c0,2.776,2.003,5.201,4.955,5.201
	C430.657,45.479,432.484,43.124,432.484,40.348z"/>
<path fill="#006AAB" d="M441.483,43.019V30.824h5.341v10.508c0,2.53,1.195,3.83,3.233,3.83c2.039,0,3.338-1.3,3.338-3.83V30.824
	h5.342V49.66h-5.342v-2.671c-1.229,1.581-2.811,3.022-5.517,3.022C443.837,50.012,441.483,47.341,441.483,43.019z"/>
<path fill="#006AAB" d="M463.519,30.824h5.341v3.796c1.089-2.601,2.847-4.287,6.009-4.146v5.587h-0.281
	c-3.549,0-5.728,2.144-5.728,6.642v6.958h-5.341V30.824z"/>
<path fill="#006AAB" d="M488.753,30.824h5.341v2.671c1.23-1.581,2.847-3.021,5.552-3.021c2.46,0,4.322,1.089,5.306,2.986
	c1.652-1.933,3.62-2.986,6.185-2.986c3.971,0,6.36,2.389,6.36,6.922V49.66h-5.341V39.153c0-2.53-1.125-3.831-3.127-3.831
	s-3.233,1.301-3.233,3.831V49.66h-5.342V39.153c0-2.53-1.125-3.831-3.127-3.831s-3.233,1.301-3.233,3.831V49.66h-5.341V30.824z"/>
<path fill="#006AAB" d="M521.228,40.348v-0.07c0-5.376,3.83-9.804,9.312-9.804c6.291,0,9.172,4.884,9.172,10.226
	c0,0.422-0.035,0.914-0.07,1.405h-13.108c0.527,2.425,2.214,3.69,4.604,3.69c1.792,0,3.092-0.563,4.568-1.933l3.057,2.705
	c-1.757,2.179-4.287,3.515-7.696,3.515C525.409,50.082,521.228,46.111,521.228,40.348z M534.511,38.767
	c-0.316-2.39-1.722-4.006-3.971-4.006c-2.214,0-3.654,1.581-4.076,4.006H534.511z"/>
<path fill="#006AAB" d="M543.686,30.824h5.341v2.671c1.23-1.581,2.847-3.021,5.553-3.021c2.46,0,4.322,1.089,5.306,2.986
	c1.652-1.933,3.62-2.986,6.185-2.986c3.972,0,6.361,2.389,6.361,6.922V49.66h-5.342V39.153c0-2.53-1.124-3.831-3.128-3.831
	c-2.003,0-3.232,1.301-3.232,3.831V49.66h-5.342V39.153c0-2.53-1.124-3.831-3.127-3.831s-3.233,1.301-3.233,3.831V49.66h-5.341
	V30.824z"/>
<path fill="#006AAB" d="M582.416,47.2v2.46h-5.342V24.007h5.342v9.523c1.3-1.757,3.092-3.057,5.868-3.057
	c4.393,0,8.574,3.443,8.574,9.733v0.07c0,6.29-4.111,9.734-8.574,9.734C585.438,50.012,583.681,48.711,582.416,47.2z
	 M591.518,40.277v-0.07c0-3.127-2.109-5.2-4.604-5.2c-2.495,0-4.568,2.073-4.568,5.2v0.07c0,3.128,2.073,5.201,4.568,5.201
	C589.408,45.479,591.518,43.44,591.518,40.277z"/>
<path fill="#006AAB" d="M599.883,40.348v-0.07c0-5.376,3.831-9.804,9.313-9.804c6.29,0,9.172,4.884,9.172,10.226
	c0,0.422-0.035,0.914-0.07,1.405h-13.107c0.527,2.425,2.214,3.69,4.604,3.69c1.792,0,3.093-0.563,4.568-1.933l3.058,2.705
	c-1.758,2.179-4.288,3.515-7.696,3.515C604.064,50.082,599.883,46.111,599.883,40.348z M613.166,38.767
	c-0.315-2.39-1.722-4.006-3.971-4.006c-2.214,0-3.654,1.581-4.076,4.006H613.166z"/>
<path fill="#006AAB" d="M622.341,30.824h5.342v3.796c1.089-2.601,2.846-4.287,6.009-4.146v5.587h-0.281
	c-3.549,0-5.728,2.144-5.728,6.642v6.958h-5.342V30.824z"/>
<path fill="#006AAB" d="M647.574,30.824h5.342v2.706c1.3-1.757,3.092-3.057,5.868-3.057c4.393,0,8.574,3.443,8.574,9.733v0.07
	c0,6.29-4.111,9.734-8.574,9.734c-2.847,0-4.604-1.301-5.868-2.812v8.083h-5.342V30.824z M662.018,40.277v-0.07
	c0-3.127-2.109-5.2-4.604-5.2c-2.495,0-4.568,2.073-4.568,5.2v0.07c0,3.128,2.073,5.201,4.568,5.201
	C659.908,45.479,662.018,43.44,662.018,40.277z"/>
<path fill="#006AAB" d="M670.172,44.248v-0.07c0-4.111,3.128-6.009,7.591-6.009c1.897,0,3.269,0.316,4.604,0.773v-0.316
	c0-2.214-1.37-3.444-4.041-3.444c-2.038,0-3.479,0.387-5.201,1.02l-1.335-4.076c2.073-0.914,4.111-1.512,7.309-1.512
	c2.917,0,5.025,0.773,6.361,2.109c1.405,1.405,2.038,3.479,2.038,6.009V49.66h-5.166v-2.038c-1.3,1.44-3.093,2.39-5.692,2.39
	C673.089,50.012,670.172,47.974,670.172,44.248z M682.437,43.019v-0.949c-0.914-0.421-2.108-0.702-3.409-0.702
	c-2.283,0-3.689,0.913-3.689,2.601v0.069c0,1.441,1.195,2.284,2.917,2.284C680.75,46.321,682.437,44.951,682.437,43.019z"/>
<path fill="#006AAB" d="M692.208,24.007h5.622v4.744h-5.622V24.007z M692.349,30.824h5.341V49.66h-5.341V30.824z"/>
<path fill="#006AAB" d="M701.872,40.277v-0.07c0-6.29,4.111-9.733,8.575-9.733c2.846,0,4.603,1.3,5.868,2.811v-9.277h5.342V49.66
	h-5.342v-2.706c-1.301,1.757-3.093,3.058-5.868,3.058C706.054,50.012,701.872,46.567,701.872,40.277z M716.386,40.277v-0.07
	c0-3.127-2.073-5.2-4.568-5.2s-4.604,2.038-4.604,5.2v0.07c0,3.128,2.108,5.201,4.604,5.201S716.386,43.405,716.386,40.277z"/>
<path fill="#006AAB" d="M750.335,39.574c-1.265,1.055-2.882,1.688-4.99,1.688c-5.341,0-8.785-2.952-8.785-7.942v-0.07
	c0-4.954,3.83-8.609,9.383-8.609c3.303,0,5.236,0.809,7.099,2.671c1.757,1.757,2.916,4.428,2.916,9.277v0.07
	c0,7.977-3.76,13.424-10.753,13.424c-3.584,0-6.009-1.195-8.082-2.917l2.847-4.111c1.792,1.44,3.303,2.108,5.376,2.108
	C749.07,45.162,750.124,41.684,750.335,39.574z M750.44,33.108v-0.07c0-2.179-1.616-3.76-4.322-3.76
	c-2.671,0-4.182,1.546-4.182,3.725v0.07c0,2.179,1.616,3.69,4.287,3.69S750.44,35.217,750.44,33.108z"/>
<path fill="#006AAB" d="M759.192,46.392l3.269-3.9c1.862,1.687,3.689,2.671,5.868,2.671c2.53,0,4.111-1.229,4.111-3.408v-0.07
	c0-2.109-1.792-3.339-4.357-3.339c-1.546,0-2.951,0.422-4.111,0.914l-3.127-2.073l0.702-12.124h15.111v4.744h-10.473l-0.281,4.252
	c0.984-0.246,1.863-0.422,3.233-0.422c4.779,0,8.609,2.319,8.609,7.872v0.07c0,5.2-3.689,8.504-9.348,8.504
	C764.464,50.082,761.582,48.676,759.192,46.392z"/>
<path fill="#006AAB" d="M781.404,31.141v-0.07c0-3.479,2.425-6.29,6.01-6.29c3.549,0,5.938,2.776,5.938,6.22v0.07
	c0,3.444-2.425,6.29-6.009,6.29C783.794,37.36,781.404,34.585,781.404,31.141z M801.821,25.062h4.182l-9.839,13.248l-8.118,11.351
	h-4.182l9.84-13.248L801.821,25.062z M785.095,31v0.07c0,1.652,0.913,3.093,2.319,3.093c1.476,0,2.249-1.44,2.249-3.022v-0.07
	c0-1.651-0.914-3.092-2.319-3.092C785.867,27.979,785.095,29.384,785.095,31z M796.516,43.722v-0.07
	c0-3.479,2.424-6.291,6.009-6.291c3.549,0,5.938,2.776,5.938,6.221v0.07c0,3.443-2.425,6.29-6.009,6.29
	C798.905,49.941,796.516,47.165,796.516,43.722z M804.773,43.722v-0.07c0-1.652-0.914-3.093-2.319-3.093
	c-1.476,0-2.249,1.405-2.249,3.022v0.07c0,1.651,0.914,3.092,2.319,3.092C804,46.743,804.773,45.303,804.773,43.722z"/>
<path fill="#006AAB" d="M823.227,24.007h5.341V49.66h-5.341V24.007z"/>
<path fill="#006AAB" d="M832.68,40.348v-0.07c0-5.376,3.831-9.804,9.313-9.804c6.29,0,9.172,4.884,9.172,10.226
	c0,0.422-0.035,0.914-0.07,1.405h-13.107c0.527,2.425,2.214,3.69,4.604,3.69c1.792,0,3.093-0.563,4.568-1.933l3.058,2.705
	c-1.758,2.179-4.288,3.515-7.696,3.515C836.861,50.082,832.68,46.111,832.68,40.348z M845.963,38.767
	c-0.315-2.39-1.722-4.006-3.971-4.006c-2.214,0-3.654,1.581-4.076,4.006H845.963z"/>
<path fill="#006AAB" d="M853.662,47.165l2.284-3.514c2.038,1.476,4.182,2.249,5.938,2.249c1.546,0,2.249-0.563,2.249-1.406v-0.07
	c0-1.159-1.827-1.546-3.9-2.179c-2.636-0.772-5.623-2.003-5.623-5.657v-0.07c0-3.83,3.093-5.975,6.888-5.975
	c2.39,0,4.99,0.809,7.028,2.18l-2.038,3.689c-1.862-1.09-3.725-1.757-5.096-1.757c-1.3,0-1.968,0.562-1.968,1.3v0.07
	c0,1.055,1.792,1.546,3.83,2.249c2.636,0.879,5.693,2.144,5.693,5.588v0.07c0,4.182-3.128,6.079-7.204,6.079
	C859.108,50.012,856.156,49.133,853.662,47.165z"/>
<path fill="#006AAB" d="M870.953,47.165l2.284-3.514c2.038,1.476,4.182,2.249,5.938,2.249c1.546,0,2.249-0.563,2.249-1.406v-0.07
	c0-1.159-1.827-1.546-3.9-2.179c-2.636-0.772-5.623-2.003-5.623-5.657v-0.07c0-3.83,3.093-5.975,6.888-5.975
	c2.39,0,4.99,0.809,7.028,2.18l-2.038,3.689c-1.862-1.09-3.725-1.757-5.096-1.757c-1.3,0-1.968,0.562-1.968,1.3v0.07
	c0,1.055,1.792,1.546,3.83,2.249c2.636,0.879,5.693,2.144,5.693,5.588v0.07c0,4.182-3.128,6.079-7.204,6.079
	C876.399,50.012,873.447,49.133,870.953,47.165z"/>
<path fill="#006AAB" d="M901.493,44.318v-8.926h-2.249v-4.568h2.249v-4.813h5.341v4.813h4.428v4.568h-4.428v8.048
	c0,1.229,0.527,1.827,1.722,1.827c0.984,0,1.863-0.246,2.636-0.668v4.287c-1.124,0.668-2.425,1.09-4.217,1.09
	C903.707,49.977,901.493,48.676,901.493,44.318z"/>
<path fill="#006AAB" d="M915.199,24.007h5.342v9.488c1.229-1.581,2.811-3.021,5.517-3.021c4.041,0,6.396,2.67,6.396,6.992V49.66
	h-5.341V39.153c0-2.53-1.195-3.831-3.233-3.831s-3.338,1.301-3.338,3.831V49.66h-5.342V24.007z"/>
<path fill="#006AAB" d="M935.97,44.248v-0.07c0-4.111,3.128-6.009,7.591-6.009c1.897,0,3.269,0.316,4.604,0.773v-0.316
	c0-2.214-1.37-3.444-4.041-3.444c-2.038,0-3.479,0.387-5.201,1.02l-1.335-4.076c2.073-0.914,4.111-1.512,7.309-1.512
	c2.917,0,5.025,0.773,6.361,2.109c1.405,1.405,2.038,3.479,2.038,6.009V49.66h-5.166v-2.038c-1.3,1.44-3.093,2.39-5.692,2.39
	C938.887,50.012,935.97,47.974,935.97,44.248z M948.234,43.019v-0.949c-0.914-0.421-2.108-0.702-3.408-0.702
	c-2.284,0-3.69,0.913-3.69,2.601v0.069c0,1.441,1.195,2.284,2.917,2.284C946.548,46.321,948.234,44.951,948.234,43.019z"/>
<path fill="#006AAB" d="M957.9,30.824h5.342v2.671c1.229-1.581,2.811-3.021,5.517-3.021c4.041,0,6.396,2.67,6.396,6.992V49.66
	h-5.341V39.153c0-2.53-1.195-3.831-3.233-3.831s-3.338,1.301-3.338,3.831V49.66H957.9V30.824z"/>
<path fill="#006AAB" d="M242.493,72.541h5.341v9.488c1.23-1.581,2.812-3.021,5.517-3.021c4.042,0,6.396,2.67,6.396,6.992v12.194
	h-5.342V87.688c0-2.53-1.195-3.831-3.233-3.831s-3.338,1.301-3.338,3.831v10.507h-5.341V72.541z"/>
<path fill="#006AAB" d="M263.475,88.882v-0.07c0-5.376,3.83-9.804,9.312-9.804c6.291,0,9.172,4.884,9.172,10.226
	c0,0.422-0.035,0.914-0.07,1.405h-13.107c0.527,2.425,2.214,3.69,4.604,3.69c1.792,0,3.092-0.563,4.568-1.933l3.057,2.705
	c-1.757,2.179-4.287,3.515-7.696,3.515C267.656,98.616,263.475,94.646,263.475,88.882z M276.758,87.301
	c-0.316-2.39-1.722-4.006-3.971-4.006c-2.214,0-3.654,1.581-4.076,4.006H276.758z"/>
<path fill="#006AAB" d="M294.929,79.358h5.412l3.022,11.421l3.549-11.491h4.603l3.584,11.526l3.093-11.456h5.306l-5.869,18.977
	h-4.814l-3.619-11.562l-3.69,11.562h-4.779L294.929,79.358z"/>
<path fill="#006AAB" d="M324.944,88.882v-0.07c0-5.411,4.357-9.804,10.226-9.804c5.833,0,10.156,4.322,10.156,9.733v0.07
	c0,5.412-4.358,9.805-10.226,9.805C329.266,98.616,324.944,94.294,324.944,88.882z M340.054,88.882v-0.07
	c0-2.776-2.003-5.201-4.955-5.201c-3.058,0-4.885,2.354-4.885,5.131v0.07c0,2.776,2.003,5.201,4.955,5.201
	C338.227,94.013,340.054,91.658,340.054,88.882z"/>
<path fill="#006AAB" d="M349.053,91.553V79.358h5.341v10.508c0,2.53,1.195,3.83,3.233,3.83c2.039,0,3.338-1.3,3.338-3.83V79.358
	h5.342v18.836h-5.342v-2.671c-1.229,1.581-2.811,3.022-5.517,3.022C351.408,98.546,349.053,95.875,349.053,91.553z"/>
<path fill="#006AAB" d="M371.335,72.541h5.341v25.653h-5.341V72.541z"/>
<path fill="#006AAB" d="M380.859,88.812v-0.07c0-6.29,4.111-9.733,8.574-9.733c2.846,0,4.604,1.3,5.869,2.811v-9.277h5.341v25.653
	h-5.341v-2.706c-1.3,1.757-3.092,3.058-5.869,3.058C385.041,98.546,380.859,95.102,380.859,88.812z M395.372,88.812v-0.07
	c0-3.127-2.073-5.2-4.568-5.2s-4.604,2.038-4.604,5.2v0.07c0,3.128,2.108,5.201,4.604,5.201S395.372,91.939,395.372,88.812z"/>
<path fill="#006AAB" d="M415.968,72.541h5.341v9.488c1.23-1.581,2.812-3.021,5.517-3.021c4.042,0,6.396,2.67,6.396,6.992v12.194
	h-5.342V87.688c0-2.53-1.195-3.831-3.233-3.831s-3.338,1.301-3.338,3.831v10.507h-5.341V72.541z"/>
<path fill="#006AAB" d="M436.739,92.782v-0.07c0-4.111,3.127-6.009,7.59-6.009c1.897,0,3.268,0.316,4.604,0.773V87.16
	c0-2.214-1.371-3.444-4.041-3.444c-2.039,0-3.479,0.387-5.201,1.02l-1.335-4.076c2.074-0.914,4.112-1.512,7.31-1.512
	c2.917,0,5.025,0.773,6.36,2.109c1.406,1.405,2.038,3.479,2.038,6.009v10.929h-5.166v-2.038c-1.3,1.44-3.092,2.39-5.693,2.39
	C439.655,98.546,436.739,96.508,436.739,92.782z M449.003,91.553v-0.949c-0.914-0.421-2.108-0.702-3.409-0.702
	c-2.284,0-3.69,0.913-3.69,2.601v0.07c0,1.44,1.195,2.283,2.917,2.283C447.316,94.855,449.003,93.485,449.003,91.553z"/>
<path fill="#006AAB" d="M456.28,79.358h5.658l4.217,12.616l4.252-12.616h5.552l-7.415,18.977h-4.849L456.28,79.358z"/>
<path fill="#006AAB" d="M477.086,88.882v-0.07c0-5.376,3.83-9.804,9.312-9.804c6.291,0,9.172,4.884,9.172,10.226
	c0,0.422-0.035,0.914-0.07,1.405h-13.107c0.527,2.425,2.214,3.69,4.604,3.69c1.792,0,3.092-0.563,4.568-1.933l3.057,2.705
	c-1.757,2.179-4.287,3.515-7.696,3.515C481.268,98.616,477.086,94.646,477.086,88.882z M490.369,87.301
	c-0.316-2.39-1.722-4.006-3.971-4.006c-2.214,0-3.654,1.581-4.076,4.006H490.369z"/>
<path fill="#006AAB" d="M508.541,79.358h5.412l3.022,11.421l3.549-11.491h4.603l3.584,11.526l3.093-11.456h5.306l-5.869,18.977
	h-4.814l-3.619-11.562l-3.69,11.562h-4.779L508.541,79.358z"/>
<path fill="#006AAB" d="M540.453,72.541h5.622v4.744h-5.622V72.541z M540.594,79.358h5.341v18.836h-5.341V79.358z"/>
<path fill="#006AAB" d="M551.839,92.853v-8.926h-2.249v-4.568h2.249v-4.813h5.341v4.813h4.428v4.568h-4.428v8.048
	c0,1.229,0.527,1.827,1.722,1.827c0.984,0,1.863-0.246,2.636-0.668v4.287c-1.124,0.668-2.425,1.09-4.217,1.09
	C554.053,98.511,551.839,97.21,551.839,92.853z"/>
<path fill="#006AAB" d="M565.545,72.541h5.342v9.488c1.229-1.581,2.811-3.021,5.517-3.021c4.041,0,6.396,2.67,6.396,6.992v12.194
	h-5.341V87.688c0-2.53-1.195-3.831-3.233-3.831s-3.338,1.301-3.338,3.831v10.507h-5.342V72.541z"/>
<path fill="#006AAB" d="M586.526,88.882v-0.07c0-5.411,4.357-9.804,10.227-9.804c5.833,0,10.155,4.322,10.155,9.733v0.07
	c0,5.412-4.357,9.805-10.226,9.805C590.849,98.616,586.526,94.294,586.526,88.882z M601.638,88.882v-0.07
	c0-2.776-2.003-5.201-4.955-5.201c-3.058,0-4.885,2.354-4.885,5.131v0.07c0,2.776,2.003,5.201,4.955,5.201
	C599.81,94.013,601.638,91.658,601.638,88.882z"/>
<path fill="#006AAB" d="M610.636,91.553V79.358h5.342v10.508c0,2.53,1.194,3.83,3.232,3.83s3.339-1.3,3.339-3.83V79.358h5.341
	v18.836h-5.341v-2.671c-1.23,1.581-2.812,3.022-5.518,3.022C612.99,98.546,610.636,95.875,610.636,91.553z"/>
<path fill="#006AAB" d="M633.551,92.853v-8.926h-2.249v-4.568h2.249v-4.813h5.341v4.813h4.428v4.568h-4.428v8.048
	c0,1.229,0.527,1.827,1.722,1.827c0.984,0,1.863-0.246,2.636-0.668v4.287c-1.124,0.668-2.425,1.09-4.217,1.09
	C635.765,98.511,633.551,97.21,633.551,92.853z"/>
<path fill="#006AAB" d="M656.886,88.882v-0.07c0-5.376,4.112-9.804,9.875-9.804c3.549,0,5.763,1.194,7.521,3.162l-3.269,3.515
	c-1.194-1.266-2.39-2.074-4.287-2.074c-2.671,0-4.568,2.354-4.568,5.131v0.07c0,2.882,1.862,5.201,4.779,5.201
	c1.792,0,3.022-0.773,4.322-2.003l3.128,3.162c-1.828,2.003-3.937,3.444-7.696,3.444C661.033,98.616,656.886,94.259,656.886,88.882z
	"/>
<path fill="#006AAB" d="M676.428,88.882v-0.07c0-5.411,4.357-9.804,10.227-9.804c5.833,0,10.155,4.322,10.155,9.733v0.07
	c0,5.412-4.357,9.805-10.226,9.805C680.75,98.616,676.428,94.294,676.428,88.882z M691.539,88.882v-0.07
	c0-2.776-2.003-5.201-4.955-5.201c-3.058,0-4.885,2.354-4.885,5.131v0.07c0,2.776,2.003,5.201,4.955,5.201
	C689.711,94.013,691.539,91.658,691.539,88.882z"/>
<path fill="#006AAB" d="M697.937,79.358h5.657l4.217,12.616l4.252-12.616h5.553L710.2,98.335h-4.85L697.937,79.358z"/>
<path fill="#006AAB" d="M718.741,88.882v-0.07c0-5.376,3.831-9.804,9.313-9.804c6.29,0,9.172,4.884,9.172,10.226
	c0,0.422-0.035,0.914-0.07,1.405h-13.107c0.527,2.425,2.214,3.69,4.604,3.69c1.792,0,3.093-0.563,4.568-1.933l3.058,2.705
	c-1.758,2.179-4.288,3.515-7.696,3.515C722.923,98.616,718.741,94.646,718.741,88.882z M732.024,87.301
	c-0.315-2.39-1.722-4.006-3.971-4.006c-2.214,0-3.654,1.581-4.076,4.006H732.024z"/>
<path fill="#006AAB" d="M741.199,79.358h5.342v3.796c1.089-2.601,2.846-4.287,6.009-4.146v5.587h-0.281
	c-3.549,0-5.728,2.144-5.728,6.642v6.958h-5.342V79.358z"/>
<path fill="#006AAB" d="M753.887,92.782v-0.07c0-4.111,3.128-6.009,7.591-6.009c1.897,0,3.269,0.316,4.604,0.773V87.16
	c0-2.214-1.37-3.444-4.041-3.444c-2.038,0-3.479,0.387-5.201,1.02l-1.335-4.076c2.073-0.914,4.111-1.512,7.309-1.512
	c2.917,0,5.025,0.773,6.361,2.109c1.405,1.405,2.038,3.479,2.038,6.009v10.929h-5.166v-2.038c-1.3,1.44-3.093,2.39-5.692,2.39
	C756.804,98.546,753.887,96.508,753.887,92.782z M766.151,91.553v-0.949c-0.914-0.421-2.108-0.702-3.409-0.702
	c-2.283,0-3.689,0.913-3.689,2.601v0.07c0,1.44,1.195,2.283,2.917,2.283C764.465,94.855,766.151,93.485,766.151,91.553z"/>
<path fill="#006AAB" d="M775.923,101.919l1.827-4.006c1.933,1.09,3.865,1.722,6.36,1.722c3.655,0,5.377-1.757,5.377-5.13v-0.914
	c-1.581,1.897-3.304,3.058-6.149,3.058c-4.393,0-8.364-3.198-8.364-8.785v-0.07c0-5.623,4.042-8.785,8.364-8.785
	c2.916,0,4.639,1.229,6.079,2.811v-2.46h5.342v14.584c0,3.373-0.809,5.833-2.39,7.415c-1.758,1.757-4.463,2.529-8.118,2.529
	C781.194,103.887,778.313,103.185,775.923,101.919z M789.487,87.863v-0.07c0-2.565-2.003-4.357-4.604-4.357
	s-4.568,1.792-4.568,4.357v0.07c0,2.6,1.968,4.357,4.568,4.357S789.487,90.428,789.487,87.863z"/>
<path fill="#006AAB" d="M798.626,88.882v-0.07c0-5.376,3.831-9.804,9.313-9.804c6.29,0,9.172,4.884,9.172,10.226
	c0,0.422-0.035,0.914-0.07,1.405h-13.107c0.527,2.425,2.214,3.69,4.604,3.69c1.792,0,3.093-0.563,4.568-1.933l3.058,2.705
	c-1.758,2.179-4.288,3.515-7.696,3.515C802.808,98.616,798.626,94.646,798.626,88.882z M811.909,87.301
	c-0.315-2.39-1.722-4.006-3.971-4.006c-2.214,0-3.654,1.581-4.076,4.006H811.909z"/>
<path fill="#006AAB" d="M820.521,92.572h5.693v5.622h-5.693V92.572z"/>
</svg>
