<?xml version="1.0" encoding="utf-8"?>
<!-- Generator: Adobe Illustrator 15.0.2, SVG Export Plug-In  -->
<!DOCTYPE svg PUBLIC "-//W3C//DTD SVG 1.1//EN" "http://www.w3.org/Graphics/SVG/1.1/DTD/svg11.dtd" [
	<!ENTITY ns_flows "http://ns.adobe.com/Flows/1.0/">
]>
<svg version="1.1"
	 xmlns="http://www.w3.org/2000/svg" xmlns:xlink="http://www.w3.org/1999/xlink" xmlns:a="http://ns.adobe.com/AdobeSVGViewerExtensions/3.0/"
	 x="0px" y="0px" width="575px" height="212px" viewBox="-64.161 -59.352 575 212" enable-background="new -64.161 -59.352 575 212"
	 xml:space="preserve">
<defs>
</defs>
<path fill="#006AAB" d="M0,0.388h2.78l6.466,18.851l6.209-18.915h2.102l6.208,18.915L30.23,0.388h2.685l-8.083,22.796h-2.167
	L16.457,4.817l-6.24,18.366H8.083L0,0.388z"/>
<path fill="#006AAB" d="M37.768,0.388h2.554v22.634h-2.554V0.388z"/>
<path fill="#006AAB" d="M52.932,2.748h-7.599v-2.36h17.783v2.36h-7.599v20.273h-2.586V2.748z"/>
<path fill="#006AAB" d="M67.903,0.388h2.554v10.056H83.52V0.388h2.555v22.634H83.52V12.837H70.457v10.185h-2.554V0.388z"/>
<path fill="#006AAB" d="M91.476,11.77v-0.064C91.476,5.465,96.164,0,103.051,0s11.511,5.399,11.511,11.641v0.064
	c0,6.24-4.688,11.704-11.575,11.704S91.476,18.01,91.476,11.77z M111.91,11.77v-0.064c0-5.142-3.75-9.345-8.924-9.345
	s-8.859,4.139-8.859,9.28v0.064c0,5.141,3.75,9.344,8.924,9.344S111.91,16.91,111.91,11.77z"/>
<path fill="#006AAB" d="M119.607,13.548V0.388h2.555v12.998c0,4.883,2.618,7.631,6.918,7.631c4.172,0,6.822-2.521,6.822-7.469V0.388
	h2.555v12.966c0,6.597-3.783,10.023-9.441,10.023C123.422,23.377,119.607,19.95,119.607,13.548z"/>
<path fill="#006AAB" d="M150.486,2.748h-7.598v-2.36h17.783v2.36h-7.599v20.273h-2.587V2.748z"/>
<path fill="#006AAB" d="M178.178,0.749h8.852v40.236h-8.852V0.749z"/>
<path fill="#006AAB" d="M196.17,10.176h8.737v4.369c2.012-2.587,4.599-4.943,9.024-4.943c6.61,0,10.461,4.368,10.461,11.438v19.945
	h-8.736V23.799c0-4.139-1.955-6.266-5.289-6.266c-3.333,0-5.46,2.127-5.46,6.266v17.187h-8.737V10.176z"/>
<path fill="#006AAB" d="M229.568,36.904l3.736-5.748c3.334,2.414,6.84,3.679,9.715,3.679c2.529,0,3.678-0.92,3.678-2.299v-0.115
	c0-1.896-2.988-2.529-6.38-3.563c-4.312-1.265-9.196-3.276-9.196-9.255v-0.114c0-6.266,5.058-9.771,11.266-9.771
	c3.908,0,8.162,1.321,11.496,3.563l-3.334,6.035c-3.047-1.782-6.093-2.874-8.334-2.874c-2.127,0-3.219,0.92-3.219,2.127v0.115
	c0,1.724,2.931,2.528,6.265,3.679c4.312,1.437,9.312,3.506,9.312,9.139v0.115c0,6.84-5.115,9.944-11.783,9.944
	C238.479,41.561,233.65,40.123,229.568,36.904z"/>
<path fill="#006AAB" d="M260.61,30.122V10.176h8.737v17.187c0,4.139,1.954,6.266,5.287,6.266c3.334,0,5.461-2.127,5.461-6.266
	V10.176h8.737v30.81h-8.737v-4.368c-2.012,2.586-4.598,4.943-9.023,4.943C264.461,41.561,260.61,37.191,260.61,30.122z"/>
<path fill="#006AAB" d="M296.652,10.176h8.737v6.208c1.782-4.253,4.655-7.013,9.829-6.782v9.139h-0.46
	c-5.806,0-9.369,3.507-9.369,10.864v11.381h-8.737V10.176z"/>
<path fill="#006AAB" d="M317.406,32.134v-0.115c0-6.726,5.115-9.829,12.415-9.829c3.104,0,5.346,0.518,7.53,1.265v-0.518
	c0-3.621-2.242-5.633-6.61-5.633c-3.334,0-5.69,0.632-8.507,1.667l-2.185-6.668c3.392-1.494,6.726-2.472,11.956-2.472
	c4.771,0,8.219,1.265,10.404,3.449c2.299,2.299,3.333,5.69,3.333,9.829v17.876h-8.449v-3.334c-2.127,2.356-5.059,3.909-9.312,3.909
	C322.177,41.561,317.406,38.227,317.406,32.134z M337.467,30.122v-1.553c-1.495-0.689-3.449-1.149-5.576-1.149
	c-3.736,0-6.035,1.495-6.035,4.254v0.115c0,2.356,1.954,3.735,4.771,3.735C334.707,35.524,337.467,33.283,337.467,30.122z"/>
<path fill="#006AAB" d="M353.275,10.176h8.737v4.369c2.012-2.587,4.599-4.943,9.024-4.943c6.61,0,10.461,4.368,10.461,11.438v19.945
	h-8.736V23.799c0-4.139-1.955-6.266-5.289-6.266c-3.333,0-5.46,2.127-5.46,6.266v17.187h-8.737V10.176z"/>
<path fill="#006AAB" d="M387.594,25.753v-0.114c0-8.795,6.725-16.037,16.152-16.037c5.805,0,9.426,1.954,12.301,5.173l-5.346,5.748
	c-1.955-2.069-3.909-3.392-7.014-3.392c-4.367,0-7.472,3.852-7.472,8.393v0.115c0,4.713,3.046,8.507,7.817,8.507
	c2.932,0,4.943-1.265,7.07-3.276l5.115,5.173c-2.988,3.276-6.438,5.633-12.588,5.633C394.377,41.675,387.594,34.548,387.594,25.753z
	"/>
<path fill="#006AAB" d="M419.556,25.753v-0.114c0-8.795,6.266-16.037,15.232-16.037c10.288,0,15.002,7.989,15.002,16.727
	c0,0.689-0.058,1.494-0.114,2.299h-21.44c0.862,3.967,3.621,6.035,7.53,6.035c2.932,0,5.058-0.919,7.472-3.161l5.001,4.426
	c-2.874,3.564-7.013,5.748-12.588,5.748C426.396,41.675,419.556,35.18,419.556,25.753z M441.283,23.167
	c-0.518-3.909-2.816-6.553-6.495-6.553c-3.622,0-5.978,2.586-6.668,6.553H441.283z"/>
<path fill="#AB1D37" d="M151.61,67.646c-2.155-1.455-4.474-2.587-6.683-3.18v8.191c8.191,2.21,11.695,5.497,11.695,11.534v0.107
	c0,6.036-4.636,9.916-11.426,10.617v5.335h-5.605v-5.443c-4.635-0.593-9.162-2.425-12.719-5.119l4.203-6.145
	c2.91,2.21,5.605,3.719,8.785,4.365v-8.568c-7.761-2.103-11.588-5.013-11.588-11.426v-0.108c0-5.928,4.527-9.862,11.318-10.563
	v-3.126h5.605v3.287c3.826,0.485,7.06,1.887,10.023,3.935L151.61,67.646z M139.861,71.311v-7.33
	c-2.641,0.323-3.719,1.617-3.719,3.342v0.107C136.143,69.154,136.896,70.232,139.861,71.311z M144.928,80.634v7.545
	c2.533-0.377,3.826-1.509,3.826-3.449v-0.107C148.754,82.844,147.838,81.712,144.928,80.634z"/>
<path fill="#AB1D37" d="M168.909,65.382l-6.575,1.617l-1.725-6.791l10.832-3.233h5.66V94.97h-8.192V65.382z"/>
<path fill="#AB1D37" d="M184.699,88.395l12.557-10.294c4.689-3.88,6.521-5.928,6.521-9.054c0-3.18-2.102-4.904-5.066-4.904
	c-2.91,0-4.904,1.616-7.707,5.065l-5.82-4.688c3.719-5.066,7.33-7.814,14.066-7.814c7.814,0,12.988,4.581,12.988,11.641v0.108
	c0,6.306-3.232,9.432-9.916,14.605l-6.145,4.742h16.438v7.168h-27.917V88.395z"/>
<path fill="#AB1D37" d="M217.033,100.306c3.719-0.378,5.551-2.264,5.281-5.336h-3.341v-8.623h8.731v7.275
	c0,7.114-3.558,9.971-9.971,10.078L217.033,100.306z"/>
<path fill="#AB1D37" d="M237.945,65.382l-6.576,1.617l-1.725-6.791l10.833-3.233h5.659V94.97h-8.191V65.382z"/>
<path fill="#AB1D37" d="M272.543,86.832h-18.432l-1.347-5.875l20.695-23.982h7.006v23.12h5.066v6.737h-5.066v8.138h-7.923V86.832z
	 M272.543,80.095V68.346L262.52,80.095H272.543z"/>
<path fill="#AB1D37" d="M311.832,79.502c-1.941,1.617-4.42,2.587-7.653,2.587c-8.192,0-13.474-4.527-13.474-12.18v-0.108
	c0-7.599,5.875-13.203,14.39-13.203c5.065,0,8.03,1.239,10.887,4.096c2.694,2.694,4.474,6.79,4.474,14.228v0.108
	c0,12.233-5.768,20.587-16.492,20.587c-5.497,0-9.216-1.832-12.396-4.473l4.365-6.306c2.749,2.209,5.066,3.233,8.246,3.233
	C309.891,88.071,311.508,82.735,311.832,79.502z M311.993,69.586v-0.108c0-3.341-2.479-5.767-6.629-5.767
	c-4.097,0-6.413,2.371-6.413,5.713v0.107c0,3.342,2.479,5.659,6.574,5.659C309.622,75.19,311.993,72.819,311.993,69.586z"/>
<path fill="#AB1D37" d="M326.166,86.347h8.73v8.623h-8.73V86.347z"/>
<path fill="#AB1D37" d="M340.285,89.096l5.713-5.443c2.587,2.91,5.281,4.526,9.107,4.526c3.127,0,5.336-1.778,5.336-4.581V83.49
	c0-3.072-2.748-4.797-7.383-4.797h-3.449l-1.294-5.281l9.001-9.055h-14.821v-7.113h25.491v6.252l-9.539,9.107
	c5.12,0.862,10.133,3.558,10.133,10.563v0.107c0,7.114-5.174,12.342-13.582,12.342C348.207,95.616,343.52,92.922,340.285,89.096z"/>
<path fill="#AB1D37" d="M392.022,64.412h-17.731v-7.168h27.162v6.252L384.531,94.97h-9.377L392.022,64.412z"/>
</svg>
