<?xml version="1.0" encoding="utf-8"?>
<!-- Generator: Adobe Illustrator 15.0.2, SVG Export Plug-In  -->
<!DOCTYPE svg PUBLIC "-//W3C//DTD SVG 1.1//EN" "http://www.w3.org/Graphics/SVG/1.1/DTD/svg11.dtd" [
	<!ENTITY ns_flows "http://ns.adobe.com/Flows/1.0/">
]>
<svg version="1.1"
	 xmlns="http://www.w3.org/2000/svg" xmlns:xlink="http://www.w3.org/1999/xlink" xmlns:a="http://ns.adobe.com/AdobeSVGViewerExtensions/3.0/"
	 x="0px" y="0px" width="280px" height="102px" viewBox="0 0 280 102" enable-background="new 0 0 280 102" xml:space="preserve">
<defs>
</defs>
<rect fill="#DBDADD" width="280" height="102"/>
<ellipse fill="none" stroke="#E77D24" stroke-miterlimit="10" cx="82.116" cy="49.772" rx="20.45" ry="12.366"/>
<ellipse fill="none" stroke="#E77D24" stroke-width="0.5" stroke-miterlimit="10" cx="82.116" cy="50.589" rx="20.45" ry="12.91"/>
<ellipse fill="none" stroke="#E77D24" stroke-width="0.5" stroke-miterlimit="10" cx="82.427" cy="48.769" rx="20.45" ry="12.485"/>
<path fill="#006AAB" d="M16.753,23.369h2.641l2.321,7.587l2.513-7.619h2.113l2.513,7.619l2.321-7.587h2.577l-3.826,11.284h-2.145
	l-2.529-7.331l-2.529,7.331h-2.145L16.753,23.369z"/>
<path fill="#006AAB" d="M35.122,22.888h2.561v2.161h-2.561V22.888z M35.186,25.994h2.434v8.579h-2.434V25.994z"/>
<path fill="#006AAB" d="M40.306,32.14v-4.066h-1.024v-2.08h1.024V23.8h2.434v2.193h2.017v2.08h-2.017v3.666
	c0,0.561,0.24,0.832,0.784,0.832c0.448,0,0.849-0.112,1.2-0.304v1.952c-0.512,0.305-1.104,0.497-1.921,0.497
	C41.314,34.717,40.306,34.125,40.306,32.14z"/>
<path fill="#006AAB" d="M46.546,22.888h2.433v4.321c0.561-0.72,1.28-1.376,2.513-1.376c1.841,0,2.913,1.216,2.913,3.185v5.555
	h-2.433v-4.786c0-1.152-0.544-1.744-1.473-1.744s-1.521,0.592-1.521,1.744v4.786h-2.433V22.888z"/>
<path fill="#006AAB" d="M65.411,23.289h2.272l4.802,11.284h-2.577l-1.024-2.513h-4.737l-1.024,2.513h-2.514L65.411,23.289z
	 M68.004,29.883l-1.488-3.634l-1.489,3.634H68.004z"/>
<path fill="#006AAB" d="M73.873,32.14v-4.066h-1.024v-2.08h1.024V23.8h2.434v2.193h2.017v2.08h-2.017v3.666
	c0,0.561,0.24,0.832,0.784,0.832c0.448,0,0.849-0.112,1.2-0.304v1.952c-0.512,0.305-1.104,0.497-1.921,0.497
	C74.882,34.717,73.873,34.125,73.873,32.14z"/>
<path fill="#006AAB" d="M80.225,22.888h2.434v11.685h-2.434V22.888z"/>
<path fill="#006AAB" d="M84.433,32.108v-0.032c0-1.873,1.425-2.737,3.457-2.737c0.865,0,1.489,0.145,2.098,0.353v-0.145
	c0-1.008-0.625-1.568-1.841-1.568c-0.929,0-1.585,0.176-2.369,0.464l-0.608-1.856c0.944-0.416,1.873-0.688,3.329-0.688
	c1.329,0,2.289,0.353,2.897,0.961c0.641,0.64,0.929,1.584,0.929,2.737v4.978h-2.354v-0.929c-0.592,0.656-1.408,1.089-2.593,1.089
	C85.761,34.733,84.433,33.804,84.433,32.108z M90.019,31.547v-0.432c-0.416-0.192-0.96-0.32-1.553-0.32
	c-1.04,0-1.681,0.416-1.681,1.185v0.031c0,0.657,0.545,1.041,1.329,1.041C89.251,33.052,90.019,32.428,90.019,31.547z"/>
<path fill="#006AAB" d="M93.744,33.436l1.041-1.601c0.928,0.673,1.904,1.024,2.705,1.024c0.704,0,1.024-0.256,1.024-0.64v-0.032
	c0-0.528-0.833-0.704-1.777-0.992c-1.2-0.353-2.561-0.913-2.561-2.577v-0.032c0-1.745,1.408-2.722,3.137-2.722
	c1.089,0,2.273,0.368,3.201,0.993l-0.928,1.681c-0.849-0.496-1.697-0.801-2.321-0.801c-0.592,0-0.896,0.256-0.896,0.593v0.031
	c0,0.48,0.816,0.705,1.745,1.024c1.2,0.4,2.593,0.977,2.593,2.546v0.031c0,1.905-1.425,2.77-3.281,2.77
	C96.226,34.733,94.881,34.333,93.744,33.436z"/>
<path fill="#006AAB" d="M110.113,25.641h-3.409v-2.272h9.284v2.272h-3.409v8.932h-2.466V25.641z"/>
<path fill="#006AAB" d="M116.657,25.994h2.433v1.729c0.496-1.185,1.297-1.953,2.737-1.889v2.545h-0.128
	c-1.617,0-2.609,0.977-2.609,3.025v3.169h-2.433V25.994z"/>
<path fill="#006AAB" d="M122.433,32.108v-0.032c0-1.873,1.425-2.737,3.457-2.737c0.865,0,1.489,0.145,2.098,0.353v-0.145
	c0-1.008-0.625-1.568-1.841-1.568c-0.929,0-1.585,0.176-2.369,0.464l-0.608-1.856c0.944-0.416,1.873-0.688,3.329-0.688
	c1.329,0,2.289,0.353,2.897,0.961c0.641,0.64,0.929,1.584,0.929,2.737v4.978h-2.354v-0.929c-0.592,0.656-1.408,1.089-2.593,1.089
	C123.761,34.733,122.433,33.804,122.433,32.108z M128.019,31.547v-0.432c-0.416-0.192-0.96-0.32-1.553-0.32
	c-1.04,0-1.681,0.416-1.681,1.185v0.031c0,0.657,0.545,1.041,1.329,1.041C127.251,33.052,128.019,32.428,128.019,31.547z"/>
<path fill="#006AAB" d="M131.329,25.994h2.577l1.921,5.746l1.937-5.746h2.529l-3.378,8.644h-2.209L131.329,25.994z"/>
<path fill="#006AAB" d="M140.8,30.331v-0.031c0-2.449,1.745-4.466,4.242-4.466c2.865,0,4.178,2.225,4.178,4.657
	c0,0.192-0.017,0.417-0.032,0.641h-5.971c0.24,1.104,1.009,1.681,2.098,1.681c0.815,0,1.408-0.256,2.08-0.88l1.393,1.232
	c-0.8,0.992-1.952,1.601-3.505,1.601C142.705,34.765,140.8,32.957,140.8,30.331z M146.851,29.611
	c-0.144-1.089-0.784-1.825-1.809-1.825c-1.009,0-1.665,0.721-1.856,1.825H146.851z"/>
<path fill="#006AAB" d="M151.136,22.888h2.434v11.685h-2.434V22.888z"/>
<path fill="#006AAB" d="M155.184,36.158c1.104-0.112,1.648-0.673,1.568-1.585h-0.992v-2.562h2.593v2.161
	c0,2.113-1.056,2.962-2.961,2.993L155.184,36.158z"/>
<path fill="#006AAB" d="M164.815,30.331v-0.031c0-2.465,1.985-4.466,4.658-4.466c2.657,0,4.626,1.969,4.626,4.434v0.032
	c0,2.465-1.984,4.466-4.658,4.466C166.784,34.765,164.815,32.796,164.815,30.331z M171.698,30.331v-0.031
	c0-1.265-0.912-2.369-2.257-2.369c-1.393,0-2.225,1.072-2.225,2.337v0.032c0,1.265,0.912,2.369,2.257,2.369
	C170.866,32.668,171.698,31.595,171.698,30.331z"/>
<path fill="#006AAB" d="M175.792,31.547v-5.554h2.433v4.785c0,1.153,0.545,1.745,1.473,1.745c0.929,0,1.521-0.592,1.521-1.745
	v-4.785h2.434v8.579h-2.434v-1.217c-0.56,0.721-1.28,1.377-2.513,1.377C176.864,34.733,175.792,33.516,175.792,31.547z"/>
<path fill="#006AAB" d="M185.824,25.994h2.433v1.729c0.496-1.185,1.297-1.953,2.737-1.889v2.545h-0.128
	c-1.617,0-2.609,0.977-2.609,3.025v3.169h-2.433V25.994z"/>
<path fill="#006AAB" d="M197.313,25.994h2.433v1.216c0.561-0.72,1.297-1.376,2.529-1.376c1.12,0,1.969,0.496,2.417,1.36
	c0.752-0.881,1.648-1.36,2.816-1.36c1.81,0,2.897,1.088,2.897,3.153v5.586h-2.433v-4.786c0-1.152-0.513-1.744-1.425-1.744
	s-1.473,0.592-1.473,1.744v4.786h-2.433v-4.786c0-1.152-0.513-1.744-1.425-1.744s-1.473,0.592-1.473,1.744v4.786h-2.433V25.994z"/>
<path fill="#006AAB" d="M212.096,30.331v-0.031c0-2.449,1.745-4.466,4.242-4.466c2.865,0,4.178,2.225,4.178,4.657
	c0,0.192-0.017,0.417-0.032,0.641h-5.971c0.24,1.104,1.009,1.681,2.098,1.681c0.815,0,1.408-0.256,2.08-0.88l1.393,1.232
	c-0.8,0.992-1.952,1.601-3.505,1.601C214.001,34.765,212.096,32.957,212.096,30.331z M218.146,29.611
	c-0.144-1.089-0.784-1.825-1.809-1.825c-1.009,0-1.665,0.721-1.856,1.825H218.146z"/>
<path fill="#006AAB" d="M222.32,25.994h2.433v1.216c0.561-0.72,1.297-1.376,2.529-1.376c1.12,0,1.969,0.496,2.417,1.36
	c0.752-0.881,1.648-1.36,2.816-1.36c1.81,0,2.897,1.088,2.897,3.153v5.586h-2.433v-4.786c0-1.152-0.513-1.744-1.425-1.744
	s-1.473,0.592-1.473,1.744v4.786h-2.433v-4.786c0-1.152-0.513-1.744-1.425-1.744s-1.473,0.592-1.473,1.744v4.786h-2.433V25.994z"/>
<path fill="#006AAB" d="M239.953,33.453v1.12h-2.433V22.888h2.433v4.338c0.592-0.801,1.408-1.393,2.673-1.393
	c2.001,0,3.905,1.568,3.905,4.434v0.032c0,2.865-1.872,4.434-3.905,4.434C241.33,34.733,240.529,34.14,239.953,33.453z
	 M244.099,30.299v-0.032c0-1.425-0.96-2.369-2.097-2.369s-2.081,0.944-2.081,2.369v0.032c0,1.424,0.944,2.369,2.081,2.369
	S244.099,31.74,244.099,30.299z"/>
<path fill="#006AAB" d="M247.903,30.331v-0.031c0-2.449,1.745-4.466,4.242-4.466c2.865,0,4.178,2.225,4.178,4.657
	c0,0.192-0.017,0.417-0.032,0.641h-5.971c0.24,1.104,1.009,1.681,2.098,1.681c0.815,0,1.408-0.256,2.08-0.88l1.393,1.232
	c-0.8,0.992-1.952,1.601-3.505,1.601C249.809,34.765,247.903,32.957,247.903,30.331z M253.954,29.611
	c-0.144-1.089-0.784-1.825-1.809-1.825c-1.009,0-1.665,0.721-1.856,1.825H253.954z"/>
<path fill="#006AAB" d="M258.128,25.994h2.433v1.729c0.496-1.185,1.297-1.953,2.737-1.889v2.545h-0.128
	c-1.617,0-2.609,0.977-2.609,3.025v3.169h-2.433V25.994z"/>
<path fill="#006AAB" d="M25.978,46.994h2.433v1.232c0.592-0.801,1.409-1.393,2.673-1.393c2.001,0,3.905,1.568,3.905,4.434v0.032
	c0,2.865-1.872,4.434-3.905,4.434c-1.296,0-2.097-0.593-2.673-1.28v3.682h-2.433V46.994z M32.557,51.299v-0.032
	c0-1.425-0.96-2.369-2.097-2.369c-1.137,0-2.081,0.944-2.081,2.369v0.032c0,1.424,0.944,2.369,2.081,2.369
	C31.596,53.668,32.557,52.74,32.557,51.299z"/>
<path fill="#006AAB" d="M36.266,53.108v-0.032c0-1.873,1.425-2.737,3.457-2.737c0.865,0,1.489,0.145,2.098,0.353v-0.145
	c0-1.008-0.625-1.568-1.841-1.568c-0.929,0-1.585,0.176-2.369,0.464l-0.608-1.856c0.944-0.416,1.873-0.688,3.329-0.688
	c1.329,0,2.289,0.353,2.897,0.961c0.641,0.64,0.929,1.584,0.929,2.737v4.978h-2.354v-0.929c-0.592,0.656-1.408,1.089-2.593,1.089
	C37.594,55.733,36.266,54.804,36.266,53.108z M41.852,52.547v-0.432c-0.416-0.192-0.96-0.32-1.552-0.32
	c-1.041,0-1.682,0.416-1.682,1.185v0.031c0,0.657,0.545,1.041,1.329,1.041C41.084,54.052,41.852,53.428,41.852,52.547z"/>
<path fill="#006AAB" d="M46.298,43.888h2.561v2.161h-2.561V43.888z M46.361,46.994h2.434v8.579h-2.434V46.994z"/>
<path fill="#006AAB" d="M50.697,51.299v-0.032c0-2.865,1.873-4.434,3.905-4.434c1.297,0,2.098,0.592,2.674,1.28v-4.226h2.433v11.685
	h-2.433V54.34c-0.593,0.8-1.409,1.393-2.674,1.393C52.603,55.733,50.697,54.165,50.697,51.299z M57.309,51.299v-0.032
	c0-1.425-0.945-2.369-2.081-2.369c-1.137,0-2.097,0.929-2.097,2.369v0.032c0,1.424,0.96,2.369,2.097,2.369
	C56.363,53.668,57.309,52.723,57.309,51.299z"/>
<path fill="#006AAB" d="M72.764,50.979c-0.576,0.48-1.313,0.769-2.272,0.769c-2.434,0-4.002-1.345-4.002-3.618v-0.031
	c0-2.257,1.744-3.922,4.273-3.922c1.505,0,2.385,0.368,3.233,1.217c0.801,0.8,1.329,2.017,1.329,4.226v0.031
	c0,3.634-1.713,6.115-4.898,6.115c-1.633,0-2.737-0.545-3.682-1.329l1.297-1.872c0.816,0.656,1.504,0.96,2.449,0.96
	C72.188,53.524,72.668,51.939,72.764,50.979z M72.812,48.034v-0.032c0-0.992-0.736-1.713-1.969-1.713
	c-1.217,0-1.904,0.705-1.904,1.697v0.032c0,0.992,0.736,1.681,1.952,1.681C72.107,49.699,72.812,48.994,72.812,48.034z"/>
<path fill="#006AAB" d="M76.793,54.084l1.488-1.777c0.849,0.769,1.681,1.217,2.673,1.217c1.152,0,1.873-0.561,1.873-1.553v-0.032
	c0-0.96-0.816-1.521-1.984-1.521c-0.705,0-1.345,0.192-1.873,0.416l-1.425-0.944l0.32-5.521h6.883v2.16h-4.77l-0.129,1.938
	c0.448-0.112,0.849-0.192,1.473-0.192c2.177,0,3.922,1.057,3.922,3.585v0.032c0,2.369-1.681,3.874-4.258,3.874
	C79.193,55.765,77.881,55.125,76.793,54.084z"/>
<path fill="#006AAB" d="M86.905,47.137v-0.032c0-1.584,1.104-2.865,2.736-2.865c1.617,0,2.705,1.265,2.705,2.834v0.031
	c0,1.569-1.104,2.865-2.736,2.865C87.993,49.97,86.905,48.706,86.905,47.137z M96.205,44.369h1.904l-4.481,6.034l-3.698,5.17h-1.904
	l4.481-6.034L96.205,44.369z M88.586,47.074v0.031c0,0.753,0.416,1.409,1.056,1.409c0.673,0,1.024-0.656,1.024-1.377v-0.032
	c0-0.752-0.416-1.408-1.056-1.408C88.938,45.697,88.586,46.337,88.586,47.074z M93.788,52.868v-0.032
	c0-1.584,1.104-2.865,2.736-2.865c1.617,0,2.705,1.265,2.705,2.833v0.032c0,1.568-1.104,2.865-2.736,2.865
	C94.876,55.701,93.788,54.436,93.788,52.868z M97.549,52.868v-0.032c0-0.752-0.416-1.408-1.056-1.408
	c-0.673,0-1.024,0.64-1.024,1.376v0.032c0,0.753,0.416,1.409,1.056,1.409C97.197,54.245,97.549,53.588,97.549,52.868z"/>
<path fill="#006AAB" d="M105.944,43.888h2.434v11.685h-2.434V43.888z"/>
<path fill="#006AAB" d="M110.248,51.331v-0.031c0-2.449,1.745-4.466,4.242-4.466c2.865,0,4.178,2.225,4.178,4.657
	c0,0.192-0.017,0.417-0.032,0.641h-5.971c0.24,1.104,1.009,1.681,2.098,1.681c0.815,0,1.408-0.256,2.08-0.88l1.393,1.232
	c-0.8,0.992-1.952,1.601-3.505,1.601C112.153,55.765,110.248,53.957,110.248,51.331z M116.299,50.611
	c-0.144-1.089-0.784-1.825-1.809-1.825c-1.009,0-1.665,0.721-1.856,1.825H116.299z"/>
<path fill="#006AAB" d="M119.8,54.436l1.041-1.601c0.928,0.673,1.904,1.024,2.705,1.024c0.704,0,1.024-0.256,1.024-0.64v-0.032
	c0-0.528-0.833-0.704-1.777-0.992c-1.2-0.353-2.561-0.913-2.561-2.577v-0.032c0-1.745,1.408-2.722,3.137-2.722
	c1.089,0,2.273,0.368,3.201,0.993l-0.928,1.681c-0.849-0.496-1.697-0.801-2.321-0.801c-0.592,0-0.896,0.256-0.896,0.593v0.031
	c0,0.48,0.816,0.705,1.745,1.024c1.2,0.4,2.593,0.977,2.593,2.546v0.031c0,1.905-1.425,2.77-3.281,2.77
	C122.281,55.733,120.937,55.333,119.8,54.436z"/>
<path fill="#006AAB" d="M127.673,54.436l1.041-1.601c0.928,0.673,1.904,1.024,2.705,1.024c0.704,0,1.024-0.256,1.024-0.64v-0.032
	c0-0.528-0.833-0.704-1.777-0.992c-1.2-0.353-2.561-0.913-2.561-2.577v-0.032c0-1.745,1.408-2.722,3.137-2.722
	c1.089,0,2.273,0.368,3.201,0.993l-0.928,1.681c-0.849-0.496-1.697-0.801-2.321-0.801c-0.592,0-0.896,0.256-0.896,0.593v0.031
	c0,0.48,0.816,0.705,1.745,1.024c1.2,0.4,2.593,0.977,2.593,2.546v0.031c0,1.905-1.425,2.77-3.281,2.77
	C130.154,55.733,128.81,55.333,127.673,54.436z"/>
<path fill="#006AAB" d="M141.577,53.14v-4.066h-1.024v-2.08h1.024V44.8h2.434v2.193h2.017v2.08h-2.017v3.666
	c0,0.561,0.24,0.832,0.784,0.832c0.448,0,0.849-0.112,1.2-0.304v1.952c-0.512,0.305-1.104,0.497-1.921,0.497
	C142.586,55.717,141.577,55.125,141.577,53.14z"/>
<path fill="#006AAB" d="M147.816,43.888h2.433v4.321c0.561-0.72,1.28-1.376,2.513-1.376c1.841,0,2.913,1.216,2.913,3.185v5.555
	h-2.433v-4.786c0-1.152-0.544-1.744-1.473-1.744s-1.521,0.592-1.521,1.744v4.786h-2.433V43.888z"/>
<path fill="#006AAB" d="M157.272,53.108v-0.032c0-1.873,1.425-2.737,3.457-2.737c0.865,0,1.489,0.145,2.098,0.353v-0.145
	c0-1.008-0.625-1.568-1.841-1.568c-0.929,0-1.585,0.176-2.369,0.464l-0.608-1.856c0.944-0.416,1.873-0.688,3.329-0.688
	c1.329,0,2.289,0.353,2.897,0.961c0.641,0.64,0.929,1.584,0.929,2.737v4.978h-2.354v-0.929c-0.592,0.656-1.408,1.089-2.593,1.089
	C158.601,55.733,157.272,54.804,157.272,53.108z M162.858,52.547v-0.432c-0.416-0.192-0.96-0.32-1.553-0.32
	c-1.04,0-1.681,0.416-1.681,1.185v0.031c0,0.657,0.545,1.041,1.329,1.041C162.091,54.052,162.858,53.428,162.858,52.547z"/>
<path fill="#006AAB" d="M167.256,46.994h2.433v1.216c0.561-0.72,1.28-1.376,2.513-1.376c1.841,0,2.913,1.216,2.913,3.185v5.555
	h-2.433v-4.786c0-1.152-0.544-1.744-1.473-1.744s-1.521,0.592-1.521,1.744v4.786h-2.433V46.994z"/>
<path fill="#006AAB" d="M182.023,43.888h2.433v4.321c0.561-0.72,1.28-1.376,2.513-1.376c1.841,0,2.913,1.216,2.913,3.185v5.555
	h-2.433v-4.786c0-1.152-0.544-1.744-1.473-1.744s-1.521,0.592-1.521,1.744v4.786h-2.433V43.888z"/>
<path fill="#006AAB" d="M191.575,51.331v-0.031c0-2.449,1.745-4.466,4.242-4.466c2.865,0,4.178,2.225,4.178,4.657
	c0,0.192-0.017,0.417-0.032,0.641h-5.971c0.24,1.104,1.009,1.681,2.098,1.681c0.815,0,1.408-0.256,2.08-0.88l1.393,1.232
	c-0.8,0.992-1.952,1.601-3.505,1.601C193.48,55.765,191.575,53.957,191.575,51.331z M197.626,50.611
	c-0.144-1.089-0.784-1.825-1.809-1.825c-1.009,0-1.665,0.721-1.856,1.825H197.626z"/>
<path fill="#006AAB" d="M205.895,46.994h2.466l1.376,5.202l1.617-5.234h2.097l1.633,5.25l1.408-5.218h2.417l-2.673,8.644h-2.193
	l-1.648-5.267l-1.681,5.267h-2.177L205.895,46.994z"/>
<path fill="#006AAB" d="M219.559,51.331v-0.031c0-2.465,1.985-4.466,4.658-4.466c2.657,0,4.626,1.969,4.626,4.434v0.032
	c0,2.465-1.984,4.466-4.658,4.466C221.527,55.765,219.559,53.796,219.559,51.331z M226.441,51.331v-0.031
	c0-1.265-0.912-2.369-2.257-2.369c-1.393,0-2.225,1.072-2.225,2.337v0.032c0,1.265,0.912,2.369,2.257,2.369
	C225.609,53.668,226.441,52.595,226.441,51.331z"/>
<path fill="#006AAB" d="M230.535,52.547v-5.554h2.433v4.785c0,1.153,0.545,1.745,1.473,1.745c0.929,0,1.521-0.592,1.521-1.745
	v-4.785h2.434v8.579h-2.434v-1.217c-0.56,0.721-1.28,1.377-2.513,1.377C231.607,55.733,230.535,54.516,230.535,52.547z"/>
<path fill="#006AAB" d="M240.679,43.888h2.434v11.685h-2.434V43.888z"/>
<path fill="#006AAB" d="M245.015,51.299v-0.032c0-2.865,1.873-4.434,3.906-4.434c1.296,0,2.097,0.592,2.673,1.28v-4.226h2.433
	v11.685h-2.433V54.34c-0.593,0.8-1.409,1.393-2.673,1.393C246.92,55.733,245.015,54.165,245.015,51.299z M251.626,51.299v-0.032
	c0-1.425-0.945-2.369-2.081-2.369c-1.137,0-2.097,0.929-2.097,2.369v0.032c0,1.424,0.96,2.369,2.097,2.369
	C250.681,53.668,251.626,52.723,251.626,51.299z"/>
<path fill="#006AAB" d="M46.666,64.888h2.433v4.321c0.561-0.72,1.28-1.376,2.513-1.376c1.841,0,2.913,1.216,2.913,3.185v5.555
	h-2.433v-4.786c0-1.152-0.544-1.744-1.473-1.744s-1.521,0.592-1.521,1.744v4.786h-2.433V64.888z"/>
<path fill="#006AAB" d="M56.121,74.108v-0.032c0-1.873,1.425-2.737,3.457-2.737c0.865,0,1.489,0.145,2.098,0.353v-0.145
	c0-1.008-0.625-1.568-1.841-1.568c-0.929,0-1.585,0.176-2.369,0.464l-0.608-1.856c0.944-0.416,1.873-0.688,3.329-0.688
	c1.329,0,2.289,0.353,2.897,0.961c0.641,0.64,0.929,1.584,0.929,2.737v4.978h-2.354v-0.929c-0.592,0.656-1.408,1.089-2.593,1.089
	C57.449,76.733,56.121,75.804,56.121,74.108z M61.707,73.547v-0.432c-0.416-0.192-0.96-0.32-1.552-0.32
	c-1.041,0-1.682,0.416-1.682,1.185v0.031c0,0.657,0.545,1.041,1.329,1.041C60.939,75.052,61.707,74.428,61.707,73.547z"/>
<path fill="#006AAB" d="M65.017,67.994h2.577l1.921,5.746l1.937-5.746h2.529l-3.378,8.644h-2.209L65.017,67.994z"/>
<path fill="#006AAB" d="M74.488,72.331v-0.031c0-2.449,1.745-4.466,4.242-4.466c2.865,0,4.178,2.225,4.178,4.657
	c0,0.192-0.017,0.417-0.032,0.641h-5.971c0.24,1.104,1.009,1.681,2.098,1.681c0.815,0,1.408-0.256,2.08-0.88l1.393,1.232
	c-0.8,0.992-1.952,1.601-3.505,1.601C76.394,76.765,74.488,74.957,74.488,72.331z M80.539,71.611
	c-0.144-1.089-0.784-1.825-1.809-1.825c-1.009,0-1.665,0.721-1.856,1.825H80.539z"/>
<path fill="#006AAB" d="M88.808,67.994h2.466l1.376,5.202l1.617-5.234h2.097l1.633,5.25l1.408-5.218h2.417l-2.673,8.644h-2.193
	l-1.648-5.267l-1.681,5.267h-2.177L88.808,67.994z"/>
<path fill="#006AAB" d="M103.336,64.888h2.561v2.161h-2.561V64.888z M103.399,67.994h2.434v8.579h-2.434V67.994z"/>
<path fill="#006AAB" d="M108.52,74.14v-4.066h-1.024v-2.08h1.024V65.8h2.434v2.193h2.017v2.08h-2.017v3.666
	c0,0.561,0.24,0.832,0.784,0.832c0.448,0,0.849-0.112,1.2-0.304v1.952c-0.512,0.305-1.104,0.497-1.921,0.497
	C109.528,76.717,108.52,76.125,108.52,74.14z"/>
<path fill="#006AAB" d="M114.76,64.888h2.433v4.321c0.561-0.72,1.28-1.376,2.513-1.376c1.841,0,2.913,1.216,2.913,3.185v5.555
	h-2.433v-4.786c0-1.152-0.544-1.744-1.473-1.744s-1.521,0.592-1.521,1.744v4.786h-2.433V64.888z"/>
<path fill="#006AAB" d="M124.311,72.331v-0.031c0-2.465,1.985-4.466,4.658-4.466c2.657,0,4.626,1.969,4.626,4.434v0.032
	c0,2.465-1.984,4.466-4.658,4.466C126.279,76.765,124.311,74.796,124.311,72.331z M131.193,72.331v-0.031
	c0-1.265-0.912-2.369-2.257-2.369c-1.393,0-2.225,1.072-2.225,2.337v0.032c0,1.265,0.912,2.369,2.257,2.369
	C130.361,74.668,131.193,73.595,131.193,72.331z"/>
<path fill="#006AAB" d="M135.287,73.547v-5.554h2.433v4.785c0,1.153,0.545,1.745,1.473,1.745c0.929,0,1.521-0.592,1.521-1.745
	v-4.785h2.434v8.579h-2.434v-1.217c-0.56,0.721-1.28,1.377-2.513,1.377C136.359,76.733,135.287,75.516,135.287,73.547z"/>
<path fill="#006AAB" d="M145.719,74.14v-4.066h-1.024v-2.08h1.024V65.8h2.434v2.193h2.017v2.08h-2.017v3.666
	c0,0.561,0.24,0.832,0.784,0.832c0.448,0,0.849-0.112,1.2-0.304v1.952c-0.512,0.305-1.104,0.497-1.921,0.497
	C146.728,76.717,145.719,76.125,145.719,74.14z"/>
<path fill="#006AAB" d="M156.342,72.331v-0.031c0-2.449,1.873-4.466,4.498-4.466c1.617,0,2.625,0.544,3.426,1.44l-1.489,1.601
	c-0.544-0.576-1.088-0.944-1.952-0.944c-1.217,0-2.081,1.072-2.081,2.337v0.032c0,1.313,0.849,2.369,2.177,2.369
	c0.816,0,1.377-0.353,1.969-0.913l1.425,1.44c-0.832,0.913-1.793,1.569-3.506,1.569C158.231,76.765,156.342,74.78,156.342,72.331z"
	/>
<path fill="#006AAB" d="M165.237,72.331v-0.031c0-2.465,1.985-4.466,4.658-4.466c2.657,0,4.626,1.969,4.626,4.434v0.032
	c0,2.465-1.984,4.466-4.658,4.466C167.206,76.765,165.237,74.796,165.237,72.331z M172.12,72.331v-0.031
	c0-1.265-0.912-2.369-2.257-2.369c-1.393,0-2.225,1.072-2.225,2.337v0.032c0,1.265,0.912,2.369,2.257,2.369
	C171.288,74.668,172.12,73.595,172.12,72.331z"/>
<path fill="#006AAB" d="M175.03,67.994h2.577l1.921,5.746l1.937-5.746h2.529l-3.378,8.644h-2.209L175.03,67.994z"/>
<path fill="#006AAB" d="M184.501,72.331v-0.031c0-2.449,1.745-4.466,4.242-4.466c2.865,0,4.178,2.225,4.178,4.657
	c0,0.192-0.017,0.417-0.032,0.641h-5.971c0.24,1.104,1.009,1.681,2.098,1.681c0.815,0,1.408-0.256,2.08-0.88l1.393,1.232
	c-0.8,0.992-1.952,1.601-3.505,1.601C186.406,76.765,184.501,74.957,184.501,72.331z M190.552,71.611
	c-0.144-1.089-0.784-1.825-1.809-1.825c-1.009,0-1.665,0.721-1.856,1.825H190.552z"/>
<path fill="#006AAB" d="M194.726,67.994h2.433v1.729c0.496-1.185,1.297-1.953,2.737-1.889v2.545h-0.128
	c-1.617,0-2.609,0.977-2.609,3.025v3.169h-2.433V67.994z"/>
<path fill="#006AAB" d="M200.502,74.108v-0.032c0-1.873,1.425-2.737,3.457-2.737c0.865,0,1.489,0.145,2.098,0.353v-0.145
	c0-1.008-0.625-1.568-1.841-1.568c-0.929,0-1.585,0.176-2.369,0.464l-0.608-1.856c0.944-0.416,1.873-0.688,3.329-0.688
	c1.329,0,2.289,0.353,2.897,0.961c0.641,0.64,0.929,1.584,0.929,2.737v4.978h-2.354v-0.929c-0.592,0.656-1.408,1.089-2.593,1.089
	C201.83,76.733,200.502,75.804,200.502,74.108z M206.088,73.547v-0.432c-0.416-0.192-0.96-0.32-1.552-0.32
	c-1.041,0-1.682,0.416-1.682,1.185v0.031c0,0.657,0.545,1.041,1.329,1.041C205.32,75.052,206.088,74.428,206.088,73.547z"/>
<path fill="#006AAB" d="M210.534,78.269l0.832-1.824c0.881,0.496,1.761,0.784,2.897,0.784c1.664,0,2.449-0.801,2.449-2.337v-0.416
	c-0.721,0.864-1.505,1.393-2.802,1.393c-2.001,0-3.81-1.457-3.81-4.002v-0.032c0-2.561,1.841-4.001,3.81-4.001
	c1.329,0,2.113,0.56,2.77,1.28v-1.12h2.433v6.643c0,1.536-0.368,2.657-1.088,3.377c-0.801,0.801-2.033,1.152-3.698,1.152
	C212.935,79.166,211.622,78.845,210.534,78.269z M216.713,71.867v-0.032c0-1.168-0.913-1.984-2.098-1.984s-2.08,0.816-2.08,1.984
	v0.032c0,1.185,0.896,1.985,2.08,1.985S216.713,73.036,216.713,71.867z"/>
<path fill="#006AAB" d="M220.869,72.331v-0.031c0-2.449,1.745-4.466,4.242-4.466c2.865,0,4.178,2.225,4.178,4.657
	c0,0.192-0.017,0.417-0.032,0.641h-5.971c0.24,1.104,1.009,1.681,2.098,1.681c0.815,0,1.408-0.256,2.08-0.88l1.393,1.232
	c-0.8,0.992-1.952,1.601-3.505,1.601C222.774,76.765,220.869,74.957,220.869,72.331z M226.92,71.611
	c-0.144-1.089-0.784-1.825-1.809-1.825c-1.009,0-1.665,0.721-1.856,1.825H226.92z"/>
<path fill="#006AAB" d="M230.837,74.011h2.594v2.562h-2.594V74.011z"/>
</svg>
