<?xml version="1.0" encoding="utf-8"?>
<!-- Generator: Adobe Illustrator 15.0.2, SVG Export Plug-In  -->
<!DOCTYPE svg PUBLIC "-//W3C//DTD SVG 1.1//EN" "http://www.w3.org/Graphics/SVG/1.1/DTD/svg11.dtd" [
	<!ENTITY ns_flows "http://ns.adobe.com/Flows/1.0/">
]>
<svg version="1.1"
	 xmlns="http://www.w3.org/2000/svg" xmlns:xlink="http://www.w3.org/1999/xlink" xmlns:a="http://ns.adobe.com/AdobeSVGViewerExtensions/3.0/"
	 x="0px" y="0px" width="1200px" height="800px" viewBox="0 2.496 1200 800" enable-background="new 0 2.496 1200 800"
	 xml:space="preserve">
<defs>
</defs>
<rect fill="#8BD8EF" width="1200.5" height="804.492"/>
<path fill="#50CDEA" d="M380,166.674c0-0.005,0-0.012,0-0.017c0-2.042-1.13-4.07-2.877-5.411l-3.414-2.351
	c-2.549-1.955-6.965-3.399-10.184-3.399h-32.018l-22.371-21.354c-0.6-0.579-1.402-0.646-2.234-0.646h-10.241
	c-1.229,0-2.343,0.228-2.883,1.326c-0.273,0.56-0.372,1.033-0.308,1.529c0.035,0.515,0.243,1.377,0.65,1.901l13.398,17.244h-16.542
	c-1.75,0-4.674-1.085-6.024-2.197l-7.406-5.641c-2.515-2.071-6.861-3.162-10.117-3.162h-3.476c-3.551,0-4.866,1.478-5.263,2.344
	c-0.201,0.435-0.473,1.036-0.402,1.986c0.036,1.016,0.415,2.225,1.623,3.642l18.056,20.811c2.233,2.622,6.512,4.218,9.953,4.218
	h75.605c3.219,0,7.57-1.19,10.12-3.147l3.348-2.315c1.208-0.923,2.177-2.164,2.588-3.525c0.183-0.589,0.418-1.187,0.418-1.817
	C380,166.685,380,166.68,380,166.674z"/>
<path fill="#FFFFFF" d="M310.409,531.369c-1.688-0.453-3.376-0.9-5.178-1.129c-2.703-0.336-5.405,0.229-7.994,1.691
	c-0.787,0.447-1.576,1.012-2.25,1.576l-3.04-4.168c-4.953-4.951-11.146-7.094-18.463-6.191c-4.615,0.789-9.119,2.139-13.284,4.391
	c-3.828,2.027-6.979,4.84-9.457,8.219c-2.477,3.266-3.94,6.756-4.39,10.582c-0.452-0.113-0.901-0.225-1.351-0.225
	c-3.378,0.451-6.418,1.688-9.344,3.604c-1.803,1.238-3.266,2.814-4.279,4.725l-1.239,3.492c-3.489-1.125-6.866-1.125-10.356-0.225
	c-2.702,0.787-4.952,2.363-6.642,4.617c0,0.111-0.112,0.223-0.225,0.336c-4.954-3.152-11.034-4.391-18.239-3.715
	c-3.376,0.563-6.642,1.801-10.019,3.49c-8.443,4.502-11.595,10.693-9.457,18.35c-2.589,1.012-4.165,2.928-4.729,5.629
	c-0.224,0.9-0.224,1.576-0.112,2.363c0.225,0.676,0.451,1.463,0.901,2.027c2.252,3.488,5.404,5.402,9.569,5.854
	c0.112,0,0.225,0,0.338,0c1.125,0.227,2.139,0.111,3.265-0.338c1.237-0.338,2.25-1.014,3.151-1.801
	c5.291,1.914,10.807,2.477,16.436,1.576c2.139-0.113,4.165-0.676,6.192-1.576c1.801-0.564,3.377-1.352,4.841-2.365
	c0.112,0.338,0.226,0.564,0.451,0.789c1.351,2.363,3.377,4.053,5.741,5.178c0.337,0.111,0.676,0.227,1.125,0.451
	c6.531,2.475,12.834,2.027,18.802-1.688c1.351-0.789,2.365-1.916,3.039-3.154c3.039,2.139,6.755,2.928,11.257,2.477
	c1.015-0.111,2.14-0.338,3.152-0.449c3.377-0.789,5.967-2.252,7.767-4.504c1.127,1.354,2.59,2.59,4.278,3.715
	c6.531,3.828,13.509,4.955,21.166,3.152c1.914-0.449,3.939-1.125,5.854-1.914c3.04-1.35,5.741-2.928,8.332-4.84l0.563-0.227
	c1.576,2.59,3.939,4.393,7.093,5.518c5.626,2.139,11.594,2.701,17.562,1.803c0.562,0.561,1.125,1.123,1.913,1.463
	c2.026,1.123,4.165,2.025,6.529,2.59c3.49,0.785,6.98,0.785,10.47-0.115c2.927-0.787,5.405-2.023,7.43-3.938
	c1.576,2.023,3.713,3.488,6.417,4.277c4.166,1.012,8.332,1.012,12.384-0.225c2.476-0.678,4.615-1.803,6.415-3.154
	c0.115,0,0.226,0,0.226,0.113c2.365,1.574,5.067,2.252,7.882,2.025c2.025-0.223,3.713-0.787,4.953-1.688l1.801-1.578
	c2.477,2.029,5.516,3.379,8.78,3.83c2.252,0.563,4.503,0.451,6.755-0.227c0.563-0.111,1.126-0.338,1.801-0.561
	c6.417,5.627,14.298,7.543,23.867,5.627c4.84-0.9,8.443-3.152,10.694-6.527c0.226-0.229,0.675-0.34,1.013-0.451l0.225,0.111
	c1.24,0.449,2.704,0.676,4.055,0.564c1.912-0.115,3.489-0.789,4.952-2.027c0.676-0.676,1.239-1.24,1.803-2.027
	c0.899-0.9,1.349-2.025,1.349-3.15c0-0.115,0-0.115,0-0.227c0.225-1.35,0.115-2.588-0.337-3.488c-0.45-1.467-1.351-2.365-2.7-2.928
	c-2.591-0.9-5.18-0.9-7.77,0.225c-1.125,0.564-2.139,1.125-2.926,1.801c-6.418-9.904-16.324-14.297-29.385-12.945
	c-0.112,0-0.336,0-0.448,0.111c-3.828-5.74-9.908-9.119-18.464-10.242c-1.912,0-3.939,0.336-6.078,1.012
	c-1.464,0.449-2.701,1.012-3.828,1.689c-3.49-4.615-8.332-6.869-14.298-6.869c-5.178,0.563-9.681,2.59-13.509,5.969
	c-0.45,0.449-0.899,0.9-1.238,1.238c-4.39-10.922-12.945-18.35-25.893-22.178c-3.602-0.902-6.979-0.789-9.906,0.338
	c-0.112-0.225-0.227-0.451-0.227-0.564c-0.787-1.914-1.8-3.602-2.814-5.293c-1.125-1.686-2.363-3.15-3.828-4.5
	c-1.236-1.238-2.7-2.365-4.163-3.152C313.675,532.492,312.097,531.816,310.409,531.369z M240.498,587.881
	c-0.225,0.113-0.337,0.113-0.45,0.113L240.498,587.881L240.498,587.881z"/>
<path fill="#FFFFFF" d="M1121.821,128.65c-0.485-0.352-0.9-0.634-1.315-0.916l0.761,0.494c0.402-6.469-1.438-11.078-5.661-13.688
	c-4.153-2.68-8.043-3.616-11.599-2.88c-3.275,0.599-6.002,2.106-8.248,4.454c-2.248,2.418-3.246,5.331-2.855,8.675
	c-2.844-1.137-5.699-1.091-8.563,0.207c-1.396,0.615-2.795,1.229-4.123,1.984c-3.703,1.985-6.58,4.815-8.629,8.418
	c-1.627,2.979-2.279,6.174-1.75,9.519c0.395,2.786,1.348,5.301,2.928,7.68c0.757,1.051,1.514,2.171,2.339,3.222
	c0.069,0.07,0.14,0.14,0.275,0.28c-2.596,2.761-3.597,5.885-3.21,9.508c0.197,1.461,0.742,2.789,1.568,3.91
	c0.273,0.42,0.55,0.768,0.825,1.188c1.103,1.265,2.276,2.457,3.659,3.442c0.762,0.494,1.454,0.917,2.215,1.343
	c0.973,0.492,2.012,0.85,3.055,1.066c1.18,0.358,2.36,0.646,3.61,0.865c2.158-0.051,4.044-0.799,5.587-2.318l0.623,0.423
	c2.56,1.83,5.475,2.761,8.814,2.786c2.783,0.023,5.572-0.509,8.156-1.74c1.258-0.546,2.518-1.371,3.709-2.406
	c4.091,1.914,8.332,2.297,12.795,1.152c1.605-0.543,3.073-1.298,4.266-2.331c0.209-0.206,0.421-0.343,0.562-0.552
	c2.418,2.039,5.194,2.968,8.259,2.783c1.81-0.123,3.555-0.736,5.025-1.837c0.559-0.343,0.981-0.897,1.265-1.45
	c2.144,1.618,4.714,2.127,7.433,1.522c1.885-0.469,3.422-1.294,4.824-2.604c1.191-1.103,1.9-2.558,2.054-4.227
	c0.302-2.712-0.656-4.738-2.941-6.148c-0.761-0.493-1.663-0.781-2.568-0.787c-1.284-4.535-4.112-7.412-8.556-8.84
	c-2.152-0.715-4.172-0.453-5.852,0.717l-0.477-1.188c-0.479-1.118-1.025-2.166-1.645-3.146c0.646-2.499,0.461-5.146-0.631-7.87
	c-2.729-6.634-7.499-10.361-14.521-11.115C1122.798,128.31,1122.309,128.445,1121.821,128.65z M1076.226,155.202L1076.226,155.202
	l0.069-0.069L1076.226,155.202z"/>
<path fill="#FFFFFF" d="M891.437,574.897c-2.809,3.897-2.983,7.799-0.876,11.699c0.528,0.801,0.876,1.49,1.581,2.063
	c-2.107,0.115-4.038,0.689-5.795,1.491c-2.456,1.26-4.562,2.638-6.317,4.243c-0.174,0.689-0.352,1.263-0.705,1.836
	c-0.348,0.916-0.523,1.835-0.523,2.751c0,1.721,0.702,3.098,1.93,4.016c-2.107,0.458-4.036,1.031-5.968,1.721
	c-7.898,2.522-13.691,6.308-17.025,11.469c-4.389,6.651-4.739,13.19-0.703,19.843c2.106,3.67,4.915,6.995,8.603,9.978
	c0.525,0.344,0.876,0.688,1.402,0.919c-1.228,0.685-2.282,1.375-3.334,2.291c-3.159,2.642-5.968,5.508-8.425,8.49
	c-2.282,2.866-3.334,5.848-2.985,9.059c0.35,6.311,4.038,11.699,11.061,16.285c2.629,1.723,5.438,3.214,8.775,4.589
	c7.193,2.982,15.271,4.704,23.869,5.048c3.511,0.229,6.848-0.115,10.006-0.919c4.214-1.26,7.55-2.751,9.48-4.816
	c1.754,1.95,4.035,3.441,7.37,4.36c10.183,3.095,20.536,3.438,30.544,1.031c4.913,2.982,10.532,4.817,17.2,5.62
	c2.631,0.229,5.266,0.229,7.901,0c4.737-0.575,8.601-1.835,11.231-3.557l2.106-1.604l4.213,4.47c1.229,1.15,2.81,2.41,4.212,3.558
	c3.512,2.522,7.372,4.816,11.761,6.767c10.882,4.702,22.645,6.192,35.808,4.357c13.341-1.834,23.521-6.308,30.541-13.303
	c1.931,1.144,4.213,1.95,7.197,2.406c1.755,0.344,3.687,0.46,5.619,0.46c9.829,0.115,18.252-1.835,24.75-5.849
	c1.05,1.031,2.455,2.179,4.211,3.21c14.044,8.718,31.066,11.7,51.081,9.062c11.934-1.604,20.183-5.964,24.572-13.19
	c0.527-0.688,0.88-1.491,1.401-2.294c2.46,0.574,5.093,1.031,7.901,1.378c2.633,0.229,5.264,0.229,7.898,0
	c7.896-0.919,13.865-3.441,17.904-7.687c1.404-1.719,2.104-3.441,1.932-5.16c-0.178-3.441-2.107-5.733-6.143-6.996
	c0.524-0.688,0.875-1.375,0.875-1.95c0.176-0.804,0.351-1.72,0.351-2.407c8.6-6.424,11.058-14.109,7.021-23.169
	c-4.913-11.125-15.623-17.548-32.121-19.383c0-0.46,0-0.804,0-1.147c-0.178-3.785-1.404-7.455-3.687-10.781
	c-4.214-5.964-11.232-9.521-21.063-10.437c-2.634-0.231-5.091,0-7.377,0.458c0.533-1.262,0.533-2.637,0.18-4.129
	c-0.881-3.326-3.16-6.307-6.669-8.946c-6.673-4.932-15.271-6.997-25.979-6.191c-5.793,0.457-10.884,1.72-15.271,4.128
	c-2.809,1.489-4.39,3.212-4.915,5.161c-7.898-3.899-17.025-5.391-27.734-4.475c-4.562,0.459-8.775,1.377-12.813,2.754l-7.896,3.327
	l0.525-3.327c0-1.377-0.525-2.639-1.23-4.014c-4.211-7.455-12.46-11.7-24.926-13.076c-4.211,0-8.425,0.114-12.986,0.23
	c-0.704,0.114-1.055,0.114-1.581,0.114c-0.35-2.639-1.404-5.276-2.985-7.8c-2.81-4.473-6.67-8.372-11.762-11.813
	c-7.722-5.391-17.024-9.52-27.906-12.158c-10.53-2.635-21.414-3.67-32.825-2.866c-1.929,0.231-3.86,0.459-5.967,0.688
	c-2.279,0.344-4.386,0.689-6.493,1.147c-17.729,3.785-31.595,10.896-41.6,21.103C896.703,568.13,893.897,571.456,891.437,574.897z"
	/>
<path fill="#FFFFFF" d="M40.236,181.155c-1.334,2.834-1.417,5.67-0.417,8.505c0.25,0.583,0.417,1.083,0.75,1.5
	c-1.001,0.084-1.917,0.501-2.752,1.084c-1.167,0.917-2.167,1.918-3.001,3.085c-0.084,0.501-0.167,0.918-0.334,1.334
	c-0.166,0.667-0.25,1.334-0.25,2.001c0,1.25,0.333,2.251,0.917,2.918c-1,0.333-1.918,0.75-2.835,1.25
	c-3.753,1.834-6.504,4.586-8.088,8.338c-2.084,4.836-2.251,9.59-0.334,14.426c1.001,2.668,2.335,5.086,4.086,7.254
	c0.25,0.25,0.417,0.5,0.667,0.667c-0.584,0.499-1.084,1.001-1.585,1.667c-1.5,1.92-2.834,4.004-4.002,6.172
	c-1.084,2.084-1.584,4.252-1.417,6.586c0.167,4.587,1.918,8.506,5.253,11.84c1.25,1.252,2.584,2.336,4.169,3.336
	c3.418,2.168,7.254,3.419,11.34,3.67c1.667,0.166,3.252-0.084,4.752-0.668c2.002-0.917,3.586-2.001,4.503-3.502
	c0.834,1.417,1.918,2.502,3.502,3.169c4.836,2.251,9.756,2.501,14.509,0.75c2.334,2.169,5.003,3.503,8.171,4.086
	c1.251,0.167,2.501,0.167,3.753,0c2.251-0.417,4.085-1.334,5.335-2.585l1.001-1.167l2,3.251c0.584,0.835,1.335,1.751,2.001,2.586
	c1.668,1.834,3.502,3.502,5.587,4.92c5.169,3.418,10.756,4.502,17.01,3.168c6.338-1.335,11.174-4.586,14.509-9.673
	c0.917,0.833,2,1.419,3.418,1.751c0.833,0.25,1.75,0.333,2.669,0.333c4.669,0.084,8.671-1.334,11.756-4.252
	c0.5,0.751,1.167,1.585,2.001,2.335c6.671,6.338,14.758,8.505,24.266,6.588c5.668-1.167,9.588-4.337,11.672-9.59
	c0.25-0.501,0.418-1.084,0.666-1.668c1.168,0.418,2.42,0.75,3.754,1.001c1.25,0.166,2.5,0.166,3.751,0
	c3.752-0.667,6.587-2.501,8.505-5.587c0.667-1.25,1-2.502,0.917-3.752c-0.084-2.502-1.001-4.169-2.918-5.086
	c0.25-0.5,0.417-1.001,0.417-1.418c0.083-0.584,0.167-1.25,0.167-1.75c4.085-4.67,5.253-10.258,3.335-16.845
	c-2.334-8.087-7.422-12.757-15.259-14.091c0-0.333,0-0.584,0-0.833c-0.083-2.752-0.667-5.42-1.75-7.838
	c-2.002-4.337-5.336-6.922-10.006-7.589c-1.251-0.167-2.417,0-3.503,0.333c0.252-0.917,0.252-1.917,0.085-3.002
	c-0.418-2.418-1.502-4.585-3.168-6.504c-3.17-3.585-7.255-5.086-12.342-4.501c-2.751,0.333-5.169,1.25-7.254,3.001
	c-1.334,1.083-2.084,2.335-2.335,3.752c-3.751-2.835-8.087-3.919-13.174-3.252c-2.167,0.333-4.169,1-6.086,2.001l-3.751,2.419
	l0.25-2.419c0-1.001-0.25-1.918-0.585-2.918c-2-5.42-5.919-8.505-11.84-9.506c-2,0-4.002,0.083-6.169,0.167
	c-0.334,0.083-0.5,0.083-0.751,0.083c-0.167-1.918-0.667-3.836-1.417-5.671c-1.335-3.252-3.169-6.086-5.587-8.588
	c-3.669-3.919-8.087-6.92-13.257-8.839c-5.003-1.917-10.173-2.668-15.593-2.084c-0.917,0.168-1.834,0.334-2.834,0.5
	c-1.084,0.25-2.085,0.501-3.086,0.834c-8.421,2.751-15.009,7.921-19.761,15.342C42.738,176.235,41.403,178.653,40.236,181.155z"/>
<path fill="#50CDEA" d="M915.604,226.224c-1.007-0.706-2.116-1.41-3.422-2.014c-3.524-0.1-6.946,0.604-10.469,1.914
	c-1.51,0.603-2.617,1.61-3.323,2.916c-1.909,3.223-2.614,6.442-2.112,9.765c-0.402-0.1-0.704-0.1-1.008-0.1
	c-6.741,0.702-12.779,3.319-18.016,7.85c-2.918,2.417-4.326,5.335-4.529,8.858c-0.199,7.648,3.523,12.278,11.375,13.688
	c6.441,1.206,12.58,0.402,18.42-2.619l0,0c1.811,2.921,5.133,4.53,10.064,4.933c6.439,0.604,10.77-2.115,12.881-7.852
	c1.209,1.51,2.82,2.616,4.631,3.523c2.516,1.207,5.135,1.31,7.951,0.199c2.416-0.904,4.328-2.313,5.637-4.125
	c1.813,1.912,4.328,2.416,7.549,1.609c1.309-0.299,2.516-0.805,3.521-1.51c6.945,4.934,14.295,5.136,22.246,0.809
	c5.635-3.222,7.85-7.852,6.742-13.99c-2.014-10.672-8.654-15.503-20.031-14.597c-2.516,0.503-4.727,1.409-6.541,2.517
	c-0.201-0.604-0.504-1.107-0.803-1.51c-2.217-3.623-5.336-6.139-9.361-7.549c-1.813-0.604-3.623-0.705-5.537-0.201
	c-0.199,0-0.402,0.102-0.705,0.201c-0.5-1.007-1.207-1.913-1.91-2.717c-6.342-5.436-13.389-5.938-21.037-1.611
	C917.012,225.116,916.309,225.62,915.604,226.224z"/>
<path fill="#50CDEA" d="M164.031,665.863c0.419,0.344,0.883,0.691,1.438,1.002c1.548,0.165,3.08-0.027,4.676-0.484
	c0.686-0.215,1.208-0.62,1.563-1.172c0.952-1.354,1.373-2.748,1.265-4.229c0.175,0.058,0.307,0.068,0.44,0.079
	c2.994-0.079,5.743-1.026,8.204-2.843c1.368-0.965,2.088-2.202,2.298-3.748c0.349-3.361-1.133-5.527-4.543-6.417
	c-2.796-0.751-5.528-0.607-8.203,0.524l0,0c-0.698-1.349-2.106-2.172-4.265-2.516c-2.817-0.487-4.816,0.563-5.942,3.018
	c-0.481-0.707-1.153-1.248-1.919-1.71c-1.067-0.618-2.218-0.753-3.496-0.36c-1.095,0.316-1.986,0.872-2.624,1.625
	c-0.732-0.904-1.823-1.211-3.27-0.967c-0.587,0.088-1.136,0.27-1.603,0.545c-2.891-2.41-6.122-2.75-9.771-1.115
	c-2.592,1.227-3.725,3.19-3.447,5.932c0.522,4.77,3.282,7.124,8.324,7.113c1.125-0.136,2.13-0.459,2.967-0.885
	c0.068,0.273,0.184,0.505,0.302,0.692c0.853,1.672,2.141,2.886,3.865,3.646c0.779,0.326,1.571,0.434,2.432,0.277
	c0.089,0.007,0.182-0.031,0.317-0.064c0.187,0.461,0.467,0.883,0.75,1.262c2.608,2.61,5.695,3.073,9.211,1.428
	C163.372,666.302,163.7,666.104,164.031,665.863z"/>
</svg>
