<?xml version="1.0" encoding="utf-8"?>
<!-- Generator: Adobe Illustrator 15.0.2, SVG Export Plug-In . SVG Version: 6.00 Build 0)  -->
<!DOCTYPE svg PUBLIC "-//W3C//DTD SVG 1.1//EN" "http://www.w3.org/Graphics/SVG/1.1/DTD/svg11.dtd">
<svg version="1.1" id="Layer_1" xmlns="http://www.w3.org/2000/svg" xmlns:xlink="http://www.w3.org/1999/xlink" x="0px" y="0px"
	 width="125px" height="125px" viewBox="0 0 125 125" enable-background="new 0 0 125 125" xml:space="preserve">
<g>
	<circle fill="none" stroke="#0069AA" stroke-width="3" stroke-miterlimit="10" cx="62.5" cy="62.5" r="59"/>
	<g>
		<path fill="#0069AA" d="M82.171,109.494c0.763,0,1.379-0.617,1.379-1.379c0-0.288-0.09-0.555-0.24-0.775L74.36,86.485
			c2.057-1.44,3.409-3.825,3.409-6.521c0-4.389-3.572-7.96-7.961-7.96s-7.959,3.571-7.959,7.96c0,2.696,1.35,5.079,3.406,6.521
			l-9.048,21.086c-0.183,0.427-0.14,0.916,0.116,1.303c0.255,0.388,0.687,0.62,1.149,0.62h24.669
			C82.153,109.493,82.161,109.493,82.171,109.494z M64.605,79.964c0-2.869,2.335-5.203,5.203-5.203c2.869,0,5.203,2.334,5.203,5.203
			s-2.334,5.203-5.203,5.203C66.94,85.167,64.605,82.833,64.605,79.964z M59.565,106.737l8.193-19.091
			c0.655,0.176,1.339,0.277,2.05,0.277c0.71,0,1.396-0.102,2.051-0.277l8.191,19.091H59.565z"/>
		<path fill="#0069AA" d="M104.5,83.646h-5.283c0.579-1.102,0.91-2.354,0.91-3.683c0-4.389-3.572-7.96-7.961-7.96
			c-4.388,0-7.959,3.571-7.959,7.96c0,1.329,0.332,2.581,0.909,3.683h-5.284c-0.485,0-0.934,0.255-1.183,0.67
			c-0.249,0.416-0.262,0.932-0.034,1.358l12.336,23.089c0.239,0.45,0.707,0.73,1.215,0.73c0.51,0,0.977-0.28,1.216-0.73
			l12.334-23.089c0.229-0.427,0.215-0.942-0.034-1.358C105.434,83.901,104.985,83.646,104.5,83.646z M92.166,74.761
			c2.869,0,5.203,2.334,5.203,5.203s-2.334,5.203-5.203,5.203c-2.868,0-5.203-2.334-5.203-5.203S89.298,74.761,92.166,74.761z
			 M92.166,105.19L82.131,86.404h5.376c1.313,0.951,2.919,1.52,4.659,1.52c1.741,0,3.347-0.568,4.659-1.52h5.376L92.166,105.19z"/>
	</g>
	<g>
		<path fill="#0069AA" d="M36.554,87.015c0.763,0,1.379-0.617,1.379-1.379c0-0.288-0.09-0.555-0.24-0.775l-8.949-20.854
			c2.057-1.44,3.409-3.825,3.409-6.521c0-4.389-3.572-7.96-7.961-7.96s-7.959,3.571-7.959,7.96c0,2.696,1.35,5.079,3.406,6.521
			l-9.048,21.086c-0.183,0.427-0.14,0.916,0.116,1.303c0.255,0.388,0.687,0.62,1.149,0.62h24.669
			C36.536,87.014,36.544,87.014,36.554,87.015z M18.988,57.484c0-2.869,2.335-5.203,5.203-5.203c2.869,0,5.203,2.334,5.203,5.203
			s-2.334,5.203-5.203,5.203C21.323,62.688,18.988,60.354,18.988,57.484z M13.948,84.258l8.193-19.091
			c0.655,0.176,1.339,0.277,2.05,0.277c0.71,0,1.396-0.102,2.051-0.277l8.191,19.091H13.948z"/>
		<path fill="#0069AA" d="M58.883,61.167H53.6c0.579-1.102,0.91-2.354,0.91-3.683c0-4.389-3.572-7.96-7.961-7.96
			c-4.388,0-7.959,3.571-7.959,7.96c0,1.329,0.332,2.581,0.909,3.683h-5.284c-0.485,0-0.934,0.255-1.183,0.67
			c-0.249,0.416-0.262,0.932-0.034,1.358l12.336,23.089c0.239,0.45,0.707,0.73,1.215,0.73c0.51,0,0.977-0.28,1.216-0.73
			l12.334-23.089c0.229-0.427,0.215-0.942-0.034-1.358C59.816,61.422,59.368,61.167,58.883,61.167z M46.549,52.281
			c2.869,0,5.203,2.334,5.203,5.203s-2.334,5.203-5.203,5.203c-2.868,0-5.203-2.334-5.203-5.203S43.681,52.281,46.549,52.281z
			 M46.549,82.711L36.514,63.925h5.376c1.313,0.951,2.919,1.52,4.659,1.52c1.741,0,3.347-0.568,4.659-1.52h5.376L46.549,82.711z"/>
	</g>
	<g>
		<path fill="#0069AA" d="M84.838,56.828c0.763,0,1.379-0.617,1.379-1.379c0-0.288-0.09-0.555-0.24-0.775l-8.949-20.854
			c2.057-1.44,3.409-3.825,3.409-6.521c0-4.389-3.572-7.96-7.961-7.96s-7.959,3.571-7.959,7.96c0,2.696,1.35,5.079,3.406,6.521
			l-9.048,21.086c-0.183,0.427-0.14,0.916,0.116,1.303c0.255,0.388,0.687,0.62,1.149,0.62H84.81
			C84.82,56.827,84.828,56.827,84.838,56.828z M67.272,27.298c0-2.869,2.335-5.203,5.203-5.203c2.869,0,5.203,2.334,5.203,5.203
			s-2.334,5.203-5.203,5.203C69.607,32.501,67.272,30.167,67.272,27.298z M62.232,54.071l8.193-19.091
			c0.655,0.176,1.339,0.277,2.05,0.277c0.71,0,1.396-0.102,2.051-0.277l8.191,19.091H62.232z"/>
		<path fill="#0069AA" d="M107.167,30.98h-5.283c0.579-1.102,0.91-2.354,0.91-3.683c0-4.389-3.572-7.96-7.961-7.96
			c-4.388,0-7.959,3.571-7.959,7.96c0,1.329,0.332,2.581,0.909,3.683h-5.284c-0.485,0-0.934,0.255-1.183,0.67
			c-0.249,0.416-0.262,0.932-0.034,1.358l12.336,23.089c0.239,0.45,0.707,0.73,1.215,0.73c0.51,0,0.977-0.28,1.216-0.73
			l12.334-23.089c0.229-0.427,0.215-0.942-0.034-1.358C108.101,31.235,107.652,30.98,107.167,30.98z M94.833,22.095
			c2.869,0,5.203,2.334,5.203,5.203s-2.334,5.203-5.203,5.203c-2.868,0-5.203-2.334-5.203-5.203S91.965,22.095,94.833,22.095z
			 M94.833,52.524L84.798,33.738h5.376c1.313,0.951,2.919,1.52,4.659,1.52c1.741,0,3.347-0.568,4.659-1.52h5.376L94.833,52.524z"/>
	</g>
</g>
</svg>
