<?xml version="1.0" encoding="utf-8"?>
<!-- Generator: Adobe Illustrator 15.0.2, SVG Export Plug-In . SVG Version: 6.00 Build 0)  -->
<!DOCTYPE svg PUBLIC "-//W3C//DTD SVG 1.1//EN" "http://www.w3.org/Graphics/SVG/1.1/DTD/svg11.dtd">
<svg version="1.1" id="Layer_1" xmlns="http://www.w3.org/2000/svg" xmlns:xlink="http://www.w3.org/1999/xlink" x="0px" y="0px"
	 width="125px" height="125px" viewBox="0 0 125 125" enable-background="new 0 0 125 125" xml:space="preserve">
<g>
	<circle fill="none" stroke="#0069AA" stroke-width="3" stroke-miterlimit="10" cx="62.5" cy="62.5" r="59"/>
	<g>
		<path fill="#0069AA" d="M104.434,49.974l-2.193-1.679c-1.67-1.281-4.52-2.248-6.628-2.248h-20.97L59.99,31.894
			c-0.393-0.38-0.918-0.592-1.462-0.592H51.82c-0.804,0-1.535,0.456-1.889,1.175c-0.354,0.725-0.267,1.583,0.224,2.216l8.775,11.354
			H48.097c-1.146,0-3.062-0.689-3.945-1.418L39.3,40.626c-1.646-1.356-4.493-2.38-6.625-2.38h-2.276
			c-2.326,0-3.188,1.324-3.448,1.892c-0.263,0.567-0.708,2.079,0.799,3.848l11.826,13.876c1.462,1.717,4.265,3.009,6.519,3.009
			h49.518c2.108,0,4.958-0.965,6.628-2.247l2.193-1.682c1.145-0.875,1.8-2.146,1.8-3.482
			C106.233,52.121,105.578,50.852,104.434,49.974z M101.873,53.603l-2.192,1.68c-0.925,0.71-2.901,1.38-4.068,1.38H46.095
			c-1.033,0-2.646-0.744-3.315-1.529L31.993,42.455h0.682c1.147,0,3.063,0.689,3.946,1.418l4.853,4.003
			c1.642,1.356,4.49,2.379,6.623,2.379h14.088l2.305,2.979c0.414,0.539,1.036,0.819,1.667,0.819c0.448,0,0.902-0.145,1.286-0.44
			c0.534-0.415,0.78-1.036,0.78-1.664c0.003-0.449-0.105-0.904-0.404-1.285L56.106,35.51h1.572l17.02,16.438l1.568,1.513
			c0.834,0.811,2.167,0.785,2.976-0.05c0.805-0.839,0.781-2.169-0.055-2.975L79,50.255h16.612c1.167,0,3.144,0.67,4.068,1.382
			l2.192,1.676c0.095,0.073,0.134,0.132,0.148,0.137C102.007,53.473,101.968,53.53,101.873,53.603z"/>
		<path fill="#0069AA" d="M64.989,75.227c-1.61-4.872-6.163-8.245-11.441-8.245c-5.274,0-9.826,3.373-11.439,8.245
			c-6.427,0.258-11.577,5.567-11.577,12.056c0,6.654,5.412,12.066,12.065,12.066h21.9c6.654,0,12.066-5.412,12.066-12.066
			C76.564,80.794,71.414,75.484,64.989,75.227z M64.498,95.141h-21.9c-4.331,0-7.857-3.526-7.857-7.858
			c0-4.333,3.526-7.857,7.857-7.857c0.307,0,0.609,0.021,0.904,0.054c1.112,0.128,2.123-0.642,2.308-1.743
			c0.637-3.793,3.894-6.545,7.738-6.545c3.849,0,7.102,2.752,7.739,6.545c0.185,1.102,1.184,1.858,2.305,1.743
			c0.298-0.032,0.601-0.054,0.906-0.054c4.332,0,7.857,3.524,7.857,7.857C72.355,91.614,68.83,95.141,64.498,95.141z"/>
	</g>
</g>
</svg>
