<?xml version="1.0" encoding="utf-8"?>
<!-- Generator: Adobe Illustrator 15.0.2, SVG Export Plug-In . SVG Version: 6.00 Build 0)  -->
<!DOCTYPE svg PUBLIC "-//W3C//DTD SVG 1.1//EN" "http://www.w3.org/Graphics/SVG/1.1/DTD/svg11.dtd">
<svg version="1.1" id="Layer_1" xmlns="http://www.w3.org/2000/svg" xmlns:xlink="http://www.w3.org/1999/xlink" x="0px" y="0px"
	 width="52px" height="52px" viewBox="0 0 52 52" enable-background="new 0 0 52 52" xml:space="preserve">
<g>
	<circle fill="#FFFFFF" cx="26" cy="25.954" r="25.53"/>
	<g>
		<path fill="#E77D24" d="M30.813,26.107C24.595,32.5,15.972,39.529,14.843,38.43c-1.129-1.098,5.662-9.908,11.88-16.302
			c3.177-3.266,6.114-6.147,8.544-7.879c0,0,3.015-1.729,3.922-0.845c0.908,0.883-0.736,3.945-0.736,3.945
			C36.79,19.827,33.989,22.841,30.813,26.107z"/>
	</g>
	<g>
		<polygon fill="#E77D24" points="28.876,20.422 12.6,15.776 10.849,17.576 24.572,24.866 		"/>
	</g>
	<g>
		<polygon fill="#E77D24" points="18.425,33.398 12.206,32.768 11.118,33.885 15.65,36.25 		"/>
	</g>
	<g>
		<polygon fill="#E77D24" points="32.46,23.908 37.554,40.047 35.802,41.85 28.136,28.332 		"/>
	</g>
	<g>
		<path fill="#E77D24" d="M22,20.292c0.796-0.831,1.489-1.601,1.94-2.255l-1.027-0.999c-0.642,0.469-1.392,1.181-2.202,2.001
			L22,20.292z"/>
	</g>
	<g>
		<path fill="#E77D24" d="M18.755,19.494c0.795-0.831,1.488-1.598,1.94-2.253l-1.029-1c-0.641,0.469-1.389,1.183-2.198,2.002
			L18.755,19.494z"/>
	</g>
	<g>
		<path fill="#E77D24" d="M32.779,30.777c0.809-0.818,1.56-1.531,2.2-2.002l1.027,1c-0.451,0.654-1.143,1.424-1.939,2.254
			L32.779,30.777z"/>
	</g>
	<g>
		<path fill="#E77D24" d="M33.666,34c0.809-0.818,1.557-1.533,2.198-2.002l1.028,1c-0.452,0.654-1.145,1.424-1.939,2.252L33.666,34z
			"/>
	</g>
	<g>
		<polygon fill="#E77D24" points="19.777,34.713 20.58,40.912 19.492,42.031 17.002,37.566 		"/>
	</g>
</g>
</svg>
