<?xml version="1.0" encoding="utf-8"?>
<!-- Generator: Adobe Illustrator 15.0.2, SVG Export Plug-In . SVG Version: 6.00 Build 0)  -->
<!DOCTYPE svg PUBLIC "-//W3C//DTD SVG 1.1//EN" "http://www.w3.org/Graphics/SVG/1.1/DTD/svg11.dtd">
<svg version="1.1" id="Layer_1" xmlns="http://www.w3.org/2000/svg" xmlns:xlink="http://www.w3.org/1999/xlink" x="0px" y="0px"
	 width="125px" height="125px" viewBox="0 0 125 125" enable-background="new 0 0 125 125" xml:space="preserve">
<g>
	<circle fill="none" stroke="#0069AA" stroke-width="3" stroke-miterlimit="10" cx="62.5" cy="62.5" r="59"/>
	<g>
		<path fill="#0069AA" d="M84.696,63.526c0-10.602-7.667-19.428-17.744-21.27l-0.824,0.595l-1.379,1l-3.658,2.646l-1.664,1.205
			c-0.696,0.505-1.503,0.746-2.301,0.746c-0.638,0-1.265-0.161-1.831-0.46c-1.111,1.652-2.034,3.452-2.756,5.369
			c-1.211-0.195-2.368-0.422-3.45-0.683c1.581-2.03,3.586-3.706,5.892-4.893c-0.39-0.255-0.753-0.56-1.042-0.959
			c-0.557-0.77-0.775-1.67-0.722-2.549c-6.997,3.589-11.805,10.862-11.805,19.251c0,10.557,7.604,19.358,17.619,21.252l0.871-0.631
			l1.306-0.944l3.813-2.76l1.738-1.259c1.257-0.91,2.865-0.954,4.147-0.272c1.07-1.62,1.961-3.378,2.664-5.247
			c1.218,0.193,2.381,0.42,3.475,0.682c-1.541,1.986-3.482,3.643-5.719,4.828c0.344,0.244,0.662,0.529,0.921,0.889
			c0.586,0.808,0.803,1.762,0.713,2.683C79.921,79.145,84.696,71.888,84.696,63.526z M70.8,69.356
			c-1.861-0.191-3.796-0.314-5.778-0.362v-3.585h6.367C71.291,66.758,71.099,68.076,70.8,69.356z M54.719,65.409h6.372v3.589
			c-1.984,0.05-3.917,0.18-5.776,0.374C55.011,68.088,54.817,66.764,54.719,65.409z M55.309,57.679
			c1.859,0.193,3.796,0.324,5.782,0.374v3.426h-6.362C54.83,60.18,55.019,58.909,55.309,57.679z M71.379,61.479h-6.357v-3.422
			c1.985-0.048,3.922-0.171,5.784-0.36C71.093,58.921,71.277,60.185,71.379,61.479z M74.729,57.172
			c1.58-0.263,3.063-0.585,4.438-0.956c0.746,1.64,1.255,3.405,1.47,5.263h-5.329C75.208,60.015,75.039,58.569,74.729,57.172z
			 M77.046,52.708c-1.09,0.259-2.249,0.485-3.466,0.678c-0.804-2.146-1.869-4.136-3.158-5.943
			C73.035,48.644,75.302,50.459,77.046,52.708z M69.548,53.877c-1.464,0.129-2.98,0.211-4.526,0.249v-7.037
			C66.935,48.974,68.454,51.288,69.548,53.877z M61.091,47.085v7.039c-1.547-0.042-3.062-0.13-4.523-0.265
			C57.661,51.278,59.179,48.968,61.091,47.085z M46.96,56.176c1.366,0.376,2.848,0.698,4.422,0.968
			c-0.311,1.404-0.479,2.861-0.582,4.335h-5.329C45.688,59.605,46.204,57.826,46.96,56.176z M50.791,65.409
			c0.096,1.529,0.274,3.04,0.599,4.498c-1.576,0.269-3.062,0.593-4.43,0.972c-0.779-1.701-1.309-3.535-1.514-5.47H50.791z
			 M49.089,74.379c1.084-0.263,2.245-0.491,3.46-0.687c0.804,2.134,1.861,4.122,3.144,5.922
			C53.09,78.419,50.829,76.614,49.089,74.379z M56.567,73.191c1.462-0.135,2.977-0.223,4.523-0.265v7.062
			C59.179,78.103,57.665,75.778,56.567,73.191z M65.021,79.984v-7.06c1.544,0.038,3.061,0.12,4.524,0.249
			C68.45,75.767,66.935,78.097,65.021,79.984z M74.726,69.881c0.321-1.451,0.496-2.952,0.592-4.472h5.345
			c-0.203,1.919-0.726,3.742-1.495,5.429C77.791,70.466,76.306,70.146,74.726,69.881z"/>
		<path fill="#0069AA" d="M37.493,63.443c0-12.785,9.431-23.382,21.695-25.272c1.244-0.192,2.507-0.32,3.8-0.324l-7.018,5.08
			c-0.881,0.637-1.077,1.865-0.441,2.744c0.386,0.531,0.986,0.813,1.595,0.813c0.398,0,0.802-0.121,1.149-0.372l11.942-8.645
			c0.511-0.37,0.814-0.963,0.814-1.593c0-0.631-0.304-1.222-0.814-1.593l-11.942-8.64c-0.879-0.638-2.107-0.439-2.744,0.441
			c-0.636,0.879-0.438,2.107,0.441,2.744l7.031,5.086c-1.05,0.004-2.086,0.067-3.108,0.177C45.11,35.693,33.563,48.24,33.563,63.443
			c0,12.743,8.021,23.75,19.661,27.841c-0.005-0.092-0.032-0.178-0.032-0.271c0-1.262,0.604-2.445,1.626-3.185l0.155-0.113
			C44.649,84.293,37.493,74.647,37.493,63.443z"/>
		<path fill="#0069AA" d="M72.961,35.59c0.007,0.096,0.034,0.188,0.034,0.285c0,1.261-0.604,2.445-1.626,3.185l-0.159,0.115
			c10.21,3.442,17.487,13.215,17.487,24.269c0,12.788-9.433,23.383-21.699,25.273c-1.244,0.192-2.507,0.32-3.802,0.324l7.02-5.08
			c0.881-0.637,1.077-1.865,0.441-2.744c-0.639-0.881-1.867-1.074-2.744-0.441l-11.942,8.644c-0.511,0.371-0.814,0.964-0.814,1.594
			c0,0.631,0.304,1.222,0.814,1.592l11.942,8.641c0.348,0.251,0.75,0.372,1.149,0.372c0.61,0,1.209-0.282,1.595-0.813
			c0.636-0.879,0.438-2.107-0.441-2.744l-7.031-5.086c1.052-0.004,2.086-0.067,3.108-0.177
			c14.785-1.601,26.335-14.149,26.335-29.354C92.628,50.644,84.621,39.666,72.961,35.59z"/>
	</g>
</g>
</svg>
