<?xml version="1.0" encoding="utf-8"?>
<!-- Generator: Adobe Illustrator 15.0.2, SVG Export Plug-In . SVG Version: 6.00 Build 0)  -->
<!DOCTYPE svg PUBLIC "-//W3C//DTD SVG 1.1//EN" "http://www.w3.org/Graphics/SVG/1.1/DTD/svg11.dtd">
<svg version="1.1" id="Layer_1" xmlns="http://www.w3.org/2000/svg" xmlns:xlink="http://www.w3.org/1999/xlink" x="0px" y="0px"
	 width="60px" height="45.75px" viewBox="-6 8.75 60 45.75" enable-background="new -6 8.75 60 45.75" xml:space="preserve">
<path fill="#45AAE0" stroke="#FFFFFF" stroke-width="2" stroke-miterlimit="10" d="M-6,42c0,6.627,5.373,12.5,12,12.5h36
	c6.627,0,12-5.873,12-12.5V7.5H-6V42z"/>
<path fill="#FFFFFF" stroke="#FFFFFF" stroke-miterlimit="10" d="M37.305,46.568c-2.199,0.51-3.757-1.48-5.717-1.385
	c-1.76,0.084-3.189,1.967-4.33,2.424c-9.813,3.92-16.797-5.914-17.497-13.857c-0.84-9.557,4.746-19.696,14.551-18.707
	c8.223,0.829,12.933,9.971,11.605,19.92c-0.186,1.383-0.917,2.889-0.867,4.33C35.152,42.208,37.575,43.241,37.305,46.568z
	 M33.492,39.121c-0.002-1.346,0.674-2.443,0.867-3.639c1.486-9.18-2.629-19.18-11.433-19.055
	c-7.816,0.111-12.306,8.75-11.781,16.455c0.534,7.807,7.178,17.245,16.111,13.165c1.278-0.584,2.011-2.034,3.812-2.252
	c1.943-0.231,2.644,0.854,4.502,1.04C34.955,42.439,33.498,41.456,33.492,39.121z"/>
</svg>
