<?xml version="1.0" encoding="utf-8"?>
<!-- Generator: Adobe Illustrator 15.0.2, SVG Export Plug-In  -->
<!DOCTYPE svg PUBLIC "-//W3C//DTD SVG 1.1//EN" "http://www.w3.org/Graphics/SVG/1.1/DTD/svg11.dtd" [
	<!ENTITY ns_flows "http://ns.adobe.com/Flows/1.0/">
]>
<svg version="1.1"
	 xmlns="http://www.w3.org/2000/svg" xmlns:xlink="http://www.w3.org/1999/xlink" xmlns:a="http://ns.adobe.com/AdobeSVGViewerExtensions/3.0/"
	 x="0px" y="0px" width="48px" height="115px" viewBox="0 -2 48 115" enable-background="new 0 -2 48 115" xml:space="preserve">
<defs>
</defs>
<path fill="#45AAE0" stroke="#FFFFFF" stroke-width="2" stroke-miterlimit="10" d="M15,1C8.373,1,1,4.373,1,11v86
	c0,6.627,7.373,14,14,14h32V1H15z"/>
<path fill="#FFFFFF" d="M26.249,101.229h-0.042c-4.157,0-7.601-3.107-7.601-7.433c0-2.667,0.944-4.263,2.33-5.731l1.218,1.133
	c-1.176,1.239-2.016,2.625-2.016,4.619c0,3.255,2.646,5.69,6.026,5.69h0.042c3.401,0,6.067-2.456,6.067-5.69
	c0-2.016-0.776-3.338-2.12-4.744l1.07-1.092c1.554,1.532,2.583,3.212,2.583,5.879C33.808,98.1,30.469,101.229,26.249,101.229z"/>
<path fill="#FFFFFF" d="M18.858,85.08v-1.659h6.529v-8.482h-6.529v-1.659h14.697v1.659h-6.614v8.482h6.614v1.659H18.858z"/>
<path fill="#FFFFFF" d="M18.753,63.682v-1.554l14.803-6.698v1.785l-3.885,1.722v7.999l3.885,1.743v1.7L18.753,63.682z
	 M28.159,59.588l-7.475,3.338l7.475,3.359V59.588z"/>
<path fill="#FFFFFF" d="M20.391,50.536v4.935h-1.532V43.922h1.532v4.935h13.165v1.68H20.391z"/>
<path fill-rule="evenodd" clip-rule="evenodd" fill="#FFFFFF" stroke="#FFFFFF" stroke-miterlimit="10" d="M35.107,35.482
	c-1.707,0.395-2.914-1.149-4.435-1.075c-1.365,0.065-2.475,1.526-3.358,1.88c-7.611,3.041-13.029-4.588-13.572-10.75
	c-0.651-7.413,3.682-15.277,11.287-14.51c6.378,0.643,10.031,7.734,9.002,15.452c-0.143,1.072-0.711,2.24-0.672,3.358
	C33.438,32.1,35.317,32.901,35.107,35.482z M32.15,29.705c-0.002-1.042,0.522-1.895,0.673-2.822c1.152-7.12-2.04-14.877-8.868-14.78
	c-6.063,0.086-9.545,6.787-9.138,12.764c0.414,6.055,5.567,13.376,12.497,10.212c0.991-0.453,1.559-1.579,2.955-1.747
	c1.509-0.18,2.051,0.664,3.493,0.807C33.285,32.28,32.154,31.516,32.15,29.705z"/>
</svg>
