<?xml version="1.0" encoding="utf-8"?>
<!-- Generator: Adobe Illustrator 15.0.2, SVG Export Plug-In . SVG Version: 6.00 Build 0)  -->
<!DOCTYPE svg PUBLIC "-//W3C//DTD SVG 1.1//EN" "http://www.w3.org/Graphics/SVG/1.1/DTD/svg11.dtd">
<svg version="1.1" id="Layer_1" xmlns="http://www.w3.org/2000/svg" xmlns:xlink="http://www.w3.org/1999/xlink" x="0px" y="0px"
	 width="275px" height="57px" viewBox="0 0 275 57" enable-background="new 0 0 275 57" xml:space="preserve">
<g>
	<path fill="#717073" d="M83.548,39.648c0.708-0.5,1.041-1.209,1.041-2.127v-9.591H71.453v9.591c0,0.918,0.333,1.627,1.042,2.127
		H66.49c0.708-0.5,1.041-1.209,1.041-2.127V17.378c0-0.918-0.333-1.586-1.041-2.127h6.005c-0.709,0.541-1.042,1.209-1.042,2.127
		v8.883h13.136v-8.883c0-0.918-0.333-1.586-1.041-2.127h6.004c-0.709,0.541-1.043,1.209-1.043,2.127v20.144
		c0,0.918,0.334,1.627,1.043,2.127H83.548z"/>
	<path fill="#717073" d="M107.608,40.273c-8.383,0-14.18-5.545-14.18-12.844c0-7.466,6.006-12.804,14.18-12.804
		c2.294,0,4.671,0.459,6.59,1.291v4.004c-1.46-2.375-3.795-3.671-6.59-3.671c-5.378,0-9.885,4.589-9.885,11.18
		c0,6.547,4.507,11.217,9.885,11.217c2.795,0,5.172-1.209,6.59-3.67v4.002C112.279,39.814,109.902,40.273,107.608,40.273z"/>
	<path fill="#717073" d="M131.504,40.273c-8.382,0-14.179-5.545-14.179-12.844c0-7.466,6.004-12.804,14.179-12.804
		c2.294,0,4.671,0.459,6.589,1.291v4.004c-1.461-2.375-3.794-3.671-6.589-3.671c-5.38,0-9.884,4.589-9.884,11.18
		c0,6.547,4.504,11.217,9.884,11.217c2.795,0,5.172-1.209,6.589-3.67v4.002C136.175,39.814,133.798,40.273,131.504,40.273z"/>
	<polygon fill="#BEC0C2" points="42.017,24.309 47.14,21.351 47.14,16.466 34.847,9.365 34.847,13.325 42.015,17.465 	"/>
	<polyline fill="#BEC0C2" points="38.276,41.695 32.352,38.275 32.352,44.191 36.582,46.633 48.876,39.537 45.448,37.557 
		38.278,41.695 	"/>
	<polyline fill="#BEC0C2" points="19.164,26.339 25.088,22.92 19.965,19.96 15.735,22.402 15.733,36.598 19.163,34.617 
		19.164,26.341 	"/>
	<g>
		<path fill="#717073" d="M155.501,15.255h1.721v3.096h3.174v-3.096h1.723v7.824h-1.723v-3.141h-3.174v3.141h-1.721V15.255z"/>
		<path fill="#717073" d="M163.652,19.189v-0.022c0-2.225,1.677-4.046,4.08-4.046c1.476,0,2.357,0.491,3.085,1.206l-1.096,1.263
			c-0.603-0.546-1.219-0.882-2-0.882c-1.32,0-2.271,1.096-2.271,2.436v0.023c0,1.342,0.93,2.46,2.271,2.46
			c0.895,0,1.441-0.359,2.057-0.919l1.096,1.108c-0.807,0.86-1.699,1.397-3.209,1.397C165.362,23.214,163.652,21.437,163.652,19.189
			z"/>
		<path fill="#717073" d="M171.68,19.189v-0.022c0-2.225,1.677-4.046,4.082-4.046c1.476,0,2.357,0.491,3.083,1.206l-1.094,1.263
			c-0.604-0.546-1.218-0.882-2.001-0.882c-1.321,0-2.271,1.096-2.271,2.436v0.023c0,1.342,0.928,2.46,2.271,2.46
			c0.894,0,1.442-0.359,2.058-0.919l1.095,1.108c-0.805,0.86-1.698,1.397-3.208,1.397C173.392,23.214,171.68,21.437,171.68,19.189z"
			/>
		<path fill="#717073" d="M183.634,15.255h1.856l2.056,3.308l2.059-3.308h1.854v7.824h-1.71v-5.107l-2.203,3.342h-0.044
			l-2.181-3.311v5.076h-1.688V15.255z"/>
		<path fill="#717073" d="M192.87,20.117v-0.021c0-1.712,1.219-3.12,2.963-3.12c2.002,0,2.918,1.555,2.918,3.254
			c0,0.134-0.012,0.29-0.023,0.447h-4.169c0.167,0.77,0.705,1.174,1.464,1.174c0.569,0,0.983-0.18,1.453-0.615l0.973,0.859
			c-0.559,0.693-1.364,1.119-2.449,1.119C194.2,23.214,192.87,21.95,192.87,20.117z M197.097,19.613
			c-0.102-0.76-0.548-1.274-1.264-1.274c-0.705,0-1.162,0.504-1.297,1.274H197.097z"/>
		<path fill="#717073" d="M199.747,20.096v-0.022c0-2.002,1.309-3.098,2.728-3.098c0.905,0,1.464,0.414,1.868,0.894v-2.95h1.698
			v8.16h-1.698v-0.861c-0.414,0.561-0.985,0.973-1.868,0.973C201.077,23.19,199.747,22.095,199.747,20.096z M204.364,20.096v-0.022
			c0-0.996-0.66-1.656-1.454-1.656c-0.793,0-1.464,0.649-1.464,1.656v0.022c0,0.993,0.671,1.653,1.464,1.653
			C203.704,21.749,204.364,21.089,204.364,20.096z"/>
		<path fill="#717073" d="M207.597,14.919h1.788v1.509h-1.788V14.919z M207.642,17.089h1.699v5.99h-1.699V17.089z"/>
		<path fill="#717073" d="M210.649,20.117v-0.021c0-1.712,1.308-3.12,3.142-3.12c1.129,0,1.833,0.381,2.392,1.006l-1.039,1.119
			c-0.381-0.404-0.762-0.661-1.363-0.661c-0.851,0-1.455,0.75-1.455,1.634v0.022c0,0.915,0.594,1.653,1.521,1.653
			c0.57,0,0.961-0.246,1.374-0.637l0.995,1.006c-0.581,0.637-1.252,1.096-2.447,1.096C211.969,23.214,210.649,21.827,210.649,20.117
			z"/>
		<path fill="#717073" d="M216.968,21.357v-0.022c0-1.307,0.994-1.91,2.413-1.91c0.604,0,1.04,0.1,1.466,0.245v-0.101
			c0-0.705-0.437-1.096-1.286-1.096c-0.647,0-1.106,0.123-1.654,0.325l-0.426-1.298c0.661-0.291,1.309-0.48,2.325-0.48
			c0.93,0,1.599,0.246,2.024,0.67c0.448,0.448,0.647,1.108,0.647,1.912v3.477h-1.643v-0.648c-0.414,0.458-0.984,0.76-1.812,0.76
			C217.895,23.19,216.968,22.542,216.968,21.357z M220.868,20.966v-0.302c-0.29-0.134-0.67-0.224-1.084-0.224
			c-0.727,0-1.174,0.291-1.174,0.827v0.023c0,0.458,0.381,0.728,0.929,0.728C220.332,22.019,220.868,21.582,220.868,20.966z"/>
		<path fill="#717073" d="M224.022,14.919h1.697v8.16h-1.697V14.919z"/>
		<path fill="#717073" d="M155.579,31.818h1.721v7.826h-1.721V31.818z"/>
		<path fill="#717073" d="M159.079,33.652h1.698v0.85c0.392-0.502,0.896-0.961,1.756-0.961c1.284,0,2.034,0.85,2.034,2.225v3.879
			h-1.699v-3.344c0-0.805-0.381-1.217-1.029-1.217c-0.647,0-1.062,0.412-1.062,1.217v3.344h-1.698V33.652z"/>
		<path fill="#717073" d="M165.574,38.85l0.728-1.117c0.648,0.469,1.33,0.715,1.889,0.715c0.492,0,0.717-0.178,0.717-0.445v-0.023
			c0-0.369-0.582-0.492-1.242-0.693c-0.838-0.246-1.789-0.637-1.789-1.799v-0.023c0-1.219,0.985-1.898,2.192-1.898
			c0.761,0,1.588,0.256,2.235,0.691l-0.647,1.174c-0.594-0.346-1.187-0.559-1.622-0.559c-0.414,0-0.627,0.18-0.627,0.414v0.021
			c0,0.336,0.57,0.492,1.22,0.715c0.837,0.279,1.811,0.684,1.811,1.779v0.021c0,1.33-0.995,1.934-2.292,1.934
			C167.308,39.756,166.368,39.477,165.574,38.85z"/>
		<path fill="#717073" d="M171.612,37.531v-3.879h1.7v3.342c0,0.807,0.38,1.219,1.028,1.219s1.062-0.412,1.062-1.219v-3.342h1.7
			v5.992h-1.7v-0.85c-0.39,0.502-0.893,0.961-1.755,0.961C172.362,39.756,171.612,38.906,171.612,37.531z"/>
		<path fill="#717073" d="M178.624,33.652h1.699v1.209c0.348-0.828,0.905-1.365,1.912-1.32v1.777h-0.09
			c-1.129,0-1.822,0.682-1.822,2.113v2.213h-1.699V33.652z"/>
		<path fill="#717073" d="M182.661,37.924V37.9c0-1.309,0.994-1.91,2.415-1.91c0.604,0,1.04,0.1,1.464,0.244v-0.1
			c0-0.705-0.436-1.096-1.286-1.096c-0.647,0-1.106,0.123-1.654,0.324l-0.423-1.297c0.658-0.291,1.307-0.48,2.324-0.48
			c0.928,0,1.6,0.246,2.023,0.67c0.446,0.447,0.648,1.107,0.648,1.912v3.477h-1.644v-0.648c-0.413,0.459-0.983,0.76-1.811,0.76
			C183.589,39.756,182.661,39.107,182.661,37.924z M186.563,37.531V37.23c-0.29-0.135-0.671-0.225-1.085-0.225
			c-0.727,0-1.172,0.291-1.172,0.828v0.021c0,0.459,0.379,0.727,0.927,0.727C186.025,38.582,186.563,38.146,186.563,37.531z"/>
		<path fill="#717073" d="M189.64,33.652h1.698v0.85c0.392-0.502,0.896-0.961,1.755-0.961c1.285,0,2.035,0.85,2.035,2.225v3.879
			h-1.701v-3.344c0-0.805-0.379-1.217-1.027-1.217c-0.647,0-1.062,0.412-1.062,1.217v3.344h-1.698V33.652z"/>
		<path fill="#717073" d="M196.314,36.682V36.66c0-1.711,1.307-3.119,3.142-3.119c1.129,0,1.833,0.379,2.393,1.006l-1.041,1.117
			c-0.379-0.402-0.76-0.658-1.363-0.658c-0.85,0-1.453,0.748-1.453,1.633v0.021c0,0.916,0.592,1.654,1.521,1.654
			c0.571,0,0.961-0.246,1.374-0.637l0.997,1.006c-0.583,0.637-1.252,1.096-2.45,1.096C197.634,39.779,196.314,38.393,196.314,36.682
			z"/>
		<path fill="#717073" d="M202.53,36.682V36.66c0-1.711,1.221-3.119,2.965-3.119c2,0,2.917,1.553,2.917,3.254
			c0,0.133-0.012,0.289-0.022,0.445h-4.171c0.168,0.771,0.705,1.176,1.466,1.176c0.57,0,0.983-0.18,1.453-0.615l0.973,0.861
			c-0.56,0.691-1.364,1.117-2.449,1.117C203.861,39.779,202.53,38.516,202.53,36.682z M206.756,36.18
			c-0.1-0.76-0.546-1.275-1.261-1.275c-0.707,0-1.164,0.504-1.297,1.275H206.756z"/>
		<path fill="#717073" d="M212.673,38.504l1.019-1.219c0.704,0.582,1.44,0.951,2.335,0.951c0.705,0,1.129-0.279,1.129-0.738v-0.021
			c0-0.438-0.268-0.66-1.574-0.996c-1.578-0.4-2.594-0.838-2.594-2.391v-0.023c0-1.42,1.14-2.359,2.737-2.359
			c1.141,0,2.114,0.357,2.907,0.996L217.737,34c-0.694-0.48-1.375-0.773-2.034-0.773c-0.66,0-1.007,0.303-1.007,0.684v0.021
			c0,0.516,0.335,0.682,1.689,1.029c1.587,0.412,2.479,0.984,2.479,2.348v0.021c0,1.555-1.183,2.426-2.871,2.426
			C214.81,39.756,213.613,39.342,212.673,38.504z"/>
		<path fill="#717073" d="M219.896,36.682V36.66c0-1.711,1.218-3.119,2.963-3.119c2.001,0,2.917,1.553,2.917,3.254
			c0,0.133-0.01,0.289-0.021,0.445h-4.17c0.167,0.771,0.703,1.176,1.464,1.176c0.569,0,0.983-0.18,1.454-0.615l0.973,0.861
			c-0.561,0.691-1.363,1.117-2.448,1.117C221.227,39.779,219.896,38.516,219.896,36.682z M224.122,36.18
			c-0.1-0.76-0.548-1.275-1.263-1.275c-0.705,0-1.163,0.504-1.298,1.275H224.122z"/>
		<path fill="#717073" d="M227.041,33.652h1.7v1.209c0.346-0.828,0.905-1.365,1.91-1.32v1.777h-0.088
			c-1.129,0-1.822,0.682-1.822,2.113v2.213h-1.7V33.652z"/>
		<path fill="#717073" d="M231.179,33.652h1.8l1.341,4.014l1.353-4.014h1.769l-2.36,6.037h-1.542L231.179,33.652z"/>
		<path fill="#717073" d="M238.459,31.484h1.788v1.51h-1.788V31.484z M238.503,33.652h1.699v5.992h-1.699V33.652z"/>
		<path fill="#717073" d="M241.511,36.682V36.66c0-1.711,1.308-3.119,3.142-3.119c1.129,0,1.833,0.379,2.392,1.006l-1.039,1.117
			c-0.379-0.402-0.761-0.658-1.363-0.658c-0.85,0-1.453,0.748-1.453,1.633v0.021c0,0.916,0.592,1.654,1.521,1.654
			c0.569,0,0.961-0.246,1.374-0.637l0.995,1.006c-0.581,0.637-1.253,1.096-2.448,1.096
			C242.831,39.779,241.511,38.393,241.511,36.682z"/>
		<path fill="#717073" d="M247.729,36.682V36.66c0-1.711,1.217-3.119,2.961-3.119c2.002,0,2.918,1.553,2.918,3.254
			c0,0.133-0.012,0.289-0.023,0.445h-4.168c0.167,0.771,0.703,1.176,1.465,1.176c0.57,0,0.982-0.18,1.451-0.615l0.973,0.861
			c-0.559,0.691-1.362,1.117-2.447,1.117C249.06,39.779,247.729,38.516,247.729,36.682z M251.954,36.18
			c-0.101-0.76-0.547-1.275-1.264-1.275c-0.705,0-1.163,0.504-1.297,1.275H251.954z"/>
		<path fill="#717073" d="M254.405,38.85l0.725-1.117c0.648,0.469,1.331,0.715,1.891,0.715c0.491,0,0.715-0.178,0.715-0.445v-0.023
			c0-0.369-0.581-0.492-1.24-0.693c-0.84-0.246-1.789-0.637-1.789-1.799v-0.023c0-1.219,0.983-1.898,2.191-1.898
			c0.76,0,1.587,0.256,2.234,0.691l-0.647,1.174c-0.593-0.346-1.185-0.559-1.62-0.559c-0.414,0-0.627,0.18-0.627,0.414v0.021
			c0,0.336,0.57,0.492,1.218,0.715c0.839,0.279,1.812,0.684,1.812,1.779v0.021c0,1.33-0.994,1.934-2.291,1.934
			C256.136,39.756,255.198,39.477,254.405,38.85z"/>
	</g>
	<polygon fill="#0069AA" points="29.722,10.366 17.429,17.465 29.722,24.563 42.015,17.465 	"/>
	<polygon fill="#0069AA" points="38.278,41.695 50.573,34.6 50.573,20.403 38.277,27.5 	"/>
	<polygon fill="#0069AA" points="19.163,40.535 31.456,47.635 31.459,33.438 19.164,26.341 	"/>
	<polygon fill="#98989B" points="34.847,22.636 34.847,23.562 39.077,26.005 42.017,24.309 42.017,24.309 42.015,18.495 	"/>
	<polygon fill="#98989B" points="37.386,41.18 37.384,32.9 36.583,32.438 32.352,34.881 32.352,38.275 	"/>
	<polygon fill="#98989B" points="25.088,22.92 20.056,25.825 27.226,29.963 28.028,29.5 28.028,24.617 	"/>
</g>
</svg>
