<?xml version="1.0" encoding="utf-8"?>
<!-- Generator: Adobe Illustrator 15.0.2, SVG Export Plug-In  -->
<!DOCTYPE svg PUBLIC "-//W3C//DTD SVG 1.1//EN" "http://www.w3.org/Graphics/SVG/1.1/DTD/svg11.dtd" [
	<!ENTITY ns_flows "http://ns.adobe.com/Flows/1.0/">
]>
<svg version="1.1"
	 xmlns="http://www.w3.org/2000/svg" xmlns:xlink="http://www.w3.org/1999/xlink" xmlns:a="http://ns.adobe.com/AdobeSVGViewerExtensions/3.0/"
	 x="0px" y="0px" width="206px" height="206px" viewBox="-0.667 0 206 206" enable-background="new -0.667 0 206 206"
	 xml:space="preserve">
<defs>
</defs>
<path fill="#0079C1" d="M96.933,8.976c-11.083,16.401-19.136,18.62-35.938,9.883l-10.303-5.339l-0.385,11.589
	c-0.636,18.911-6.288,24.563-25.193,25.195l-11.589,0.383l5.337,10.304c8.734,16.806,6.515,24.858-9.886,35.942L0,103l8.975,6.067
	c16.401,11.083,18.62,19.134,9.885,35.938l-5.339,10.301l11.588,0.386c18.909,0.636,24.561,6.289,25.196,25.194l0.385,11.589
	l10.302-5.338c16.805-8.734,24.858-6.515,35.94,9.902L103,206l6.066-8.96c11.085-16.417,19.138-18.637,35.941-9.902l10.303,5.338
	l0.384-11.589c0.634-18.905,6.287-24.558,25.193-25.194l11.59-0.386l-5.338-10.301c-8.738-16.803-6.52-24.856,9.898-35.938L206,103
	l-8.963-6.066c-16.416-11.084-18.637-19.137-9.9-35.942l5.336-10.304l-11.59-0.383c-18.904-0.632-24.555-6.284-25.191-25.194
	l-0.384-11.588l-10.306,5.338c-16.801,8.737-24.852,6.517-35.937-9.884L103,0L96.933,8.976z"/>
<g>
	<path fill="#8E0C3A" d="M195.208,95.079c-12.746-12.131-13.71-24.842-3.938-43.677c-25.844-0.86-35.785-10.81-36.65-36.673
		c-22.927,11.917-36.777,7.92-51.561-13.973c-14.782,21.893-28.633,25.89-51.562,13.972c-0.864,25.864-10.806,35.814-36.65,36.674
		c9.695,18.684,8.842,31.344-3.618,43.388C45.996,106.149,109.364,117.633,195.208,95.079z"/>
	<linearGradient id="SVGID_1_" gradientUnits="userSpaceOnUse" x1="103.2188" y1="108.0151" x2="103.2187" y2="0.7559">
		<stop  offset="0" style="stop-color:#009DDC"/>
		<stop  offset="1" style="stop-color:#0079C1"/>
	</linearGradient>
	<path fill="url(#SVGID_1_)" d="M195.208,95.079c-12.746-12.131-13.71-24.842-3.938-43.677c-25.844-0.86-35.785-10.81-36.65-36.673
		c-22.927,11.917-36.777,7.92-51.561-13.973c-14.782,21.893-28.633,25.89-51.562,13.972c-0.864,25.864-10.806,35.814-36.65,36.674
		c9.695,18.684,8.842,31.344-3.618,43.388C45.996,106.149,109.364,117.633,195.208,95.079z"/>
</g>
<text transform="matrix(1 0 0 1 25.8701 99)"><tspan x="0" y="0" fill="#FFFFFF" font-family="'Gotham-Bold'" font-size="24">GET A FREE </tspan><tspan x="28.955" y="28.8" fill="#FFFFFF" font-family="'Gotham-Bold'" font-size="24">QUOTE!</tspan></text>
</svg>
