<?xml version="1.0" encoding="utf-8"?>
<!-- Generator: Adobe Illustrator 15.0.2, SVG Export Plug-In . SVG Version: 6.00 Build 0)  -->
<!DOCTYPE svg PUBLIC "-//W3C//DTD SVG 1.1//EN" "http://www.w3.org/Graphics/SVG/1.1/DTD/svg11.dtd">
<svg version="1.1" id="Layer_1" xmlns="http://www.w3.org/2000/svg" xmlns:xlink="http://www.w3.org/1999/xlink" x="0px" y="0px"
	 width="52px" height="52px" viewBox="0 0 52 52" enable-background="new 0 0 52 52" xml:space="preserve">
<g>
	<circle fill="#FFFFFF" cx="26" cy="26.103" r="25.527"/>
	<path fill-rule="evenodd" clip-rule="evenodd" fill="#2BA9E1" d="M10.775,15.125l18.759,1.871l0.138,0.016l0.167-0.005L30,17.141
		l0.014,0.055l0.096,0.102l0.028,0.022l0.145,0.05l0.023,0.037l0.15,0.039l0.069,0.094l0.059-0.016l0.137-0.037l0.111,0.037
		l0.136-0.012l0.17,0.133h0.092l0.072,0.162l0.248,0.077l0.145,0.039l0.097,0.11l0.111,0.05l0.234-0.005l0.114-0.074l0.075,0.068
		l0.058,0.117l0.343,0.021l0.074,0.071l0.172,0.039l0.113,0.078l2.883,1.354l0.188,0.23l0.439,0.352l0.471,2.215l-0.062,0.967
		l-0.071,0.174l-0.079,0.158L36.742,24l-0.276,0.134l-0.14,0.175l0.122,0.217l2.481-0.665l0.314-0.103l0.059-0.355l1.361-0.396
		l0.603-0.453l0.137-0.099l0.196-0.037l0.322-0.303L42.064,22l0.179-0.075l0.122-0.121l0.254-0.037l2.107,0.035l0.162-0.154
		l0.059-0.012l0.066-0.05l0.091-0.006l0.131,0.031l0.083-0.058l0.039-0.107l0.232-0.25l0.091-0.031l0.185-0.227l0.063-0.162
		l0.023-0.162l0.182-0.098l-0.006-0.121l0.124-0.162l0.259-0.288l0.055-0.114l0.124-0.119l0.043-0.015l0.085,0.06l0.103,0.097
		l0.152-0.041l0.196,0.052l0.063-0.057l0.281,0.27l0.012,0.234l-0.157,0.912l-0.038,0.103l0.064,0.017l0.047,0.083l0.063,0.077
		l-0.007,0.121l-0.016,0.071l0.016,0.068l-0.036,0.063l0.033,0.048l0.01,0.003l-0.004-0.001l0.271,0.156l-0.048,0.162l0.102,0.108
		l0.059-0.099l0.139,0.08l-0.096,0.119l-0.13,0.02l-0.048-0.086l-0.174,0.101l-0.111-0.011l-0.129,0.088l-0.078,0.042l-0.11-0.047
		l-0.12,0.162h-0.096l-0.044-0.162h-0.161l-0.125,0.136l-0.135,0.021l-0.037-0.115l0.042-0.141l-0.188,0.234l-0.135,0.225
		l-0.083,0.057l-0.043-0.067l-0.083,0.161h-0.083l-0.021-0.15l-0.078,0.145l-0.066,0.09l-0.1-0.032l-0.011-0.095l-0.084,0.132
		h-0.077l-0.089,0.192l-0.265,0.207l-0.094,0.256l-0.089,0.109l-0.032,0.104l-0.072,0.058l-0.014,0.089h0.094l0.011,0.109
		l-0.256,0.229v0.065l0.182,0.105l0.077,0.234l0.021,0.119l0.209-0.005l0.057-0.161l-0.016-0.125l0.067-0.021l0.068,0.244
		l-0.089,0.152l-0.34,0.166l-0.086-0.031l0.005-0.099l-0.067-0.136l-0.136,0.25l-0.13,0.137l-0.094-0.018l0.014-0.099v-0.14
		l-0.145-0.158v0.168l-0.021,0.192l0.059,0.067l-0.084,0.031l-0.297,0.021l-0.182,0.043l-0.136-0.036l-0.285,0.021l-0.058-0.048
		l-0.084,0.005l-0.229,0.161l-0.156,0.006l-0.223,0.12l-0.127,0.042l-0.118,0.1l-0.005,0.096l-0.193,0.11l0.057,0.095l0.092,0.075
		L42.34,26.3l-0.082,0.103l0.006,0.051l-0.063,0.135l0.021,0.066l-0.054,0.092l-0.057,0.151h-0.064l-0.069,0.082l-0.063,0.215
		l-0.102,0.033l-0.055,0.082l-0.061-0.004L41.683,27.4l-0.116,0.143l-0.012-0.039l-0.106,0.078l0.079-0.193l-0.062-0.064
		l-0.104,0.025l-0.166-0.168l-0.061-0.104l0.042-0.107l0.233-0.252l-0.156,0.078l-0.13,0.119l-0.067,0.136l0.018,0.146l0.066,0.068
		l0.018,0.197l0.07,0.074l0.094,0.242l-0.006,0.182l-0.119,0.271l-0.162,0.092l-0.115,0.293l-0.082,0.141v0.088l-0.042,0.059
		l-0.011-0.059l-0.016-0.051l-0.145,0.26l-0.017,0.066l-0.036,0.059l-0.016-0.141l0.037-0.158l0.083-0.139l-0.021-0.092l0.089-0.115
		l-0.023-0.033l0.125-0.068l-0.172,0.004l-0.049-0.102l0.043-0.068l-0.006-0.033l-0.065,0.006l-0.017-0.061l-0.047,0.059
		l-0.117-0.148l-0.004-0.137l0.102-0.148l0.033-0.205l-0.114-0.191l0.081-0.154l0.122-0.074l-0.039-0.047L40.631,27l-0.039-0.054
		l0.005,0.041l-0.038,0.136l-0.143,0.115l-0.095,0.066l-0.062-0.008l0.069,0.104l-0.026,0.082l-0.021,0.209l0.031,0.084l-0.021,0.1
		l0.011,0.141l-0.016,0.281l-0.042,0.012l-0.172-0.203l-0.141-0.023l-0.089-0.16l-0.066-0.006l-0.026-0.072l0.064-0.152
		l-0.105,0.143v0.125l0.105,0.047l0.082,0.135l0.16,0.063l0.162,0.199l0.103,0.061l0.021,0.125l-0.04,0.15l-0.104-0.01l-0.047-0.125
		l-0.066-0.031l0.063,0.178l0.155,0.098l0.04,0.1l-0.046,0.041l-0.01,0.068l-0.151-0.031l0.182,0.156l-0.057,0.1l-0.088-0.045
		l-0.073-0.127l-0.177-0.006l-0.119-0.057l0.098,0.117l0.117,0.041l0.086,0.002l0.058,0.178l0.125,0.031l0.099-0.027l0.066,0.059
		l0.037,0.135l-0.056,0.139l-0.074-0.037l-0.005,0.07l0.059,0.063l0.026,0.154l-0.045,0.076h-0.093l-0.034,0.039l-0.192,0.051
		L40,30.207l-0.092-0.031l-0.07-0.152l-0.049,0.029l-0.004,0.219l-0.027,0.084l0.144-0.045l0.292-0.045l0.059,0.027l0.02,0.213
		l0.07,0.031l0.008-0.092l0.076-0.143l0.037-0.01l0.055,0.123l-0.033,0.154l-0.047,0.002l-0.154,0.127l-0.051,0.107l-0.061,0.051
		l-0.1-0.064l-0.1,0.018l-0.057-0.156l-0.016,0.1l-0.098,0.039l-0.1-0.045l-0.098-0.006l0.076,0.096l0.172,0.029l0.047,0.074
		l-0.072,0.063l0.032,0.051l-0.194,0.084l-0.129-0.053l0.109,0.104l0.182,0.018l0.129-0.121l0.033,0.053l0.051,0.02l-0.135,0.156
		l-0.125,0.006l-0.016-0.047l-0.088,0.01L39.63,31.32l-0.177,0.016l-0.338,0.203l-0.365,0.295l-0.119,0.225l-0.063,0.012
		l-0.073-0.047l-0.207,0.025l-0.141,0.123l-0.272,0.359v0.084l-0.113,0.098l-0.072-0.004l-0.011,0.094l-0.124,0.141l-0.083-0.037
		l-0.079,0.021l-0.037,0.068l-0.15-0.016l-0.078,0.104l-0.217,0.025l-0.037,0.078l-0.141-0.01l-0.027,0.088h-0.171l-0.042,0.037
		l0.052,0.037l-0.017,0.117L36.431,33.6l-0.063,0.01l-0.064,0.09l-0.118,0.029l-0.126,0.203l-0.104,0.209v0.244l-0.036,0.447
		l0.021,0.203l-0.043,0.313l0.079,0.199l0.032,0.313l0.061,0.129l0.074,0.348l0.094,0.125l0.052,0.131l-0.063,0.166l-0.02,0.219
		l0.051,0.072l0.079,0.465l0.145,0.094l0.046,0.211l-0.082,0.084l0.036,0.055l-0.026,0.254l-0.035,0.066l0.015,0.125l-0.123,0.254
		l-0.069,0.174l-0.088,0.129l-0.021,0.184l-0.12,0.041l-0.134,0.047l-0.137-0.037l-0.066-0.088l-0.151-0.043l0.083-0.037
		l-0.173-0.141l0.017-0.123L35.4,38.668l-0.123-0.006l-0.056-0.051l0.009-0.191l-0.022-0.145l-0.177-0.137l-0.012-0.086l0.057-0.066
		l0.025-0.121l0.106-0.105l-0.136,0.037l-0.055-0.041v0.059l-0.048,0.066l-0.036-0.135l-0.059,0.018l-0.028-0.07l-0.089-0.105
		l-0.012-0.137l-0.041-0.09l0.178-0.254l-0.004-0.133l-0.105-0.045l-0.055,0.045l0.024,0.059l-0.082,0.119l-0.038,0.035
		l-0.088-0.146l0.006-0.105l0.141-0.264l0.097-0.338l0.013-0.166l-0.094-0.18l-0.106-0.02l-0.065-0.104l0.006-0.053h-0.063
		l-0.104-0.074l-0.019-0.15l-0.049-0.016l-0.077-0.076l-0.072-0.25l-0.162-0.057l-0.095-0.053l-0.145,0.021l-0.096,0.078v0.033
		l-0.023,0.021l-0.061-0.023l-0.184,0.186l-0.135,0.016L33.04,35.5l-0.034-0.055l0.019-0.053l0.021,0.047l0.034-0.014l-0.037-0.068
		l-0.07-0.102l-0.178-0.123l0.024-0.008l0.094,0.045l0.023-0.047l-0.135-0.098l-0.027-0.074l-0.063-0.008l-0.018,0.064l0.07,0.098
		l-0.109-0.063l-0.113-0.1h-0.184l-0.188-0.027l0.027-0.035l0.169,0.01l0.087-0.025l-0.034-0.045l-0.158-0.01l-0.158,0.111
		l-0.065-0.033l-0.218,0.027l-0.083-0.059L31.633,34.9l-0.203-0.01l-0.115,0.047l-0.141-0.121l-0.006-0.082l0.021-0.094
		l-0.088-0.016l-0.063,0.123l-0.066,0.115l-0.105-0.02l-0.09,0.031l-0.16-0.027l-0.428,0.078l-0.118,0.105l-0.241,0.098l-0.13,0.135
		v0.1l0.095-0.037l0.082-0.084l0.047,0.012l0.055,0.068l0.124,0.051l-0.047,0.053l-0.229,0.088l0.004,0.127l0.043,0.104l0.229,0.078
		l0.171,0.129l-0.012,0.047l-0.108,0.031l-0.046,0.088l-0.005-0.141l-0.073-0.045l-0.084,0.012l-0.072-0.102l-0.104-0.041
		l-0.104-0.156l-0.13,0.012l0.063,0.119l-0.006,0.176l-0.109,0.063l-0.056-0.092l-0.119-0.086l-0.108,0.078l-0.073,0.084
		l-0.179-0.055l-0.102-0.061l-0.117,0.021l-0.076-0.035l0.057-0.072l0.098-0.076l-0.049-0.078l-0.147,0.016l-0.044-0.053v-0.109
		l-0.047-0.053l-0.099,0.037l-0.078-0.025l0.054-0.084l-0.077-0.033l-0.147,0.055l-0.011,0.072l0.024,0.09l-0.129,0.018
		l-0.418-0.043l-0.055-0.066l-0.34-0.084h-0.186l-0.244,0.051l-0.101,0.07l-0.104,0.01l-0.119,0.172l-0.162,0.02l0.026-0.129
		l-0.035-0.109l0.083-0.115l-0.053-0.152l-0.011,0.09l-0.141,0.121h-0.071l-0.079-0.105l0.082,0.213l-0.003,0.146l0.031,0.145
		l-0.093,0.08H25.97l-0.229,0.207l-0.307,0.152l-0.093-0.006l-0.137,0.113l-0.098,0.012l0.124-0.109l-0.109-0.078l-0.067,0.037
		l-0.052-0.037l-0.135,0.078l0.078,0.072l-0.152,0.059l-0.078-0.064l0.01,0.182l-0.131,0.064l-0.072-0.049l-0.129,0.162l0.083,0.094
		l-0.146,0.115l-0.103,0.047l0.047,0.275l-0.101,0.141l-0.062,0.209l-0.083,0.176l0.062,0.109l-0.015,0.313l0.036,0.1l-0.047,0.156
		l-0.074,0.213l-0.062-0.031l-0.045-0.088l-0.13-0.033l-0.135-0.068l-0.239-0.078l-0.118-0.117l-0.089-0.051l-0.092,0.012
		l-0.085-0.031l-0.018-0.018l-0.062-0.074l0.008-0.188l-0.145-0.422l-0.013-0.043v-0.039l0.015-0.133l0.012-0.127l-0.119-0.127
		l-0.068-0.121l-0.034-0.139l-0.113-0.063l-0.03-0.09l-0.061-0.041l-0.094-0.262l-0.036-0.1l-0.079-0.041l-0.009-0.168l-0.019-0.109
		l-0.039-0.063l-0.055-0.152l-0.112-0.172l-0.141-0.117l-0.062-0.107l-0.097-0.047l-0.093,0.016l-0.031-0.041l-0.054-0.027
		l-0.137,0.01l-0.125-0.02h-0.13l-0.04,0.088l-0.058,0.01l-0.013-0.023l-0.055-0.012l-0.083,0.031l-0.075,0.074l-0.105,0.195
		l-0.062,0.078l0.016,0.039l-0.017,0.061l-0.072,0.02l-0.104,0.08l-0.014,0.047l-0.067,0.027l-0.062-0.01l-0.043-0.049l-0.147-0.076
		l-0.121-0.039l-0.019-0.049l-0.148-0.074h-0.082l-0.047-0.051l-0.01-0.045l-0.027-0.055l-0.068-0.027l-0.047,0.002l-0.06-0.059
		l-0.043,0.002l0.005-0.039l-0.031-0.102l-0.1-0.119l-0.125-0.148v-0.053l0.084-0.02l0.041-0.031l-0.005-0.111l-0.083-0.076
		l-0.024-0.057l-0.043-0.006l-0.048-0.063L19.04,34.32l-0.064-0.104l-0.101-0.066l-0.087-0.025l0.036-0.055l0.007-0.066l-0.11-0.092
		l-0.112-0.041l0.023-0.07l-0.063-0.096l-0.078-0.004l-0.013-0.066l-0.062-0.074l-0.115-0.166l-0.136-0.082l-1.167-0.035
		l-0.014,0.264l-2.068-0.064l-2.456-1.123l0.026-0.057l-0.038-0.063l-1.729,0.031l-0.015-0.119l0.037-0.176l-0.031-0.219
		l-0.251-0.381l-0.159-0.164l-0.095,0.02l-0.072,0.004l-0.046-0.023l0.006-0.127l-0.032-0.076l-0.177-0.053l-0.12-0.006
		l-0.193-0.104v-0.125l-0.086-0.1H9.292l-0.106-0.02l-0.115-0.07l-0.146-0.041l-0.248,0.002l-0.073-0.053l-0.039-0.119l0.032-0.021
		l0.036-0.117l0.051-0.221L8.64,29.809l-0.118-0.131l-0.01-0.041l0.029-0.051l-0.062-0.045l-0.108-0.152l-0.152-0.322l-0.031-0.25
		l-0.115-0.084l-0.021-0.088l0.011-0.135l-0.036-0.15l0.006-0.063l0.062,0.012l0.093-0.105L8.184,28.09l-0.078-0.08l-0.109-0.068
		l-0.032-0.139l-0.068-0.037l-0.015-0.113l0.036-0.133l-0.015-0.064l0.066-0.068l-0.016-0.09l0.052-0.074l0.064,0.043l0.061,0.131
		l0.121,0.063l-0.048-0.063l-0.046-0.109L8.136,27.1L8.08,27.059l0.009-0.1h0.063l0.051,0.049l0.125-0.039l0.13-0.029l-0.181-0.022
		l-0.037-0.053L8.126,26.86l-0.015-0.057l-0.038,0.031L7.98,26.777L7.975,26.94v0.156l-0.036-0.021L7.881,27.08l-0.025-0.072
		L7.689,26.85l-0.037-0.104l0.042-0.089l-0.021-0.142l-0.302-0.461l-0.03-0.084l0.024-0.096l0.062-0.107l-0.015-0.146l-0.063-0.125
		V25.43l0.084-0.13l0.025-0.163l-0.011-0.291l-0.116-0.266l-0.124-0.17v-0.163l0.077-0.166l0.214-0.146l0.073-0.192l-0.045-0.032
		L7.507,23.62l0.077-0.078l0.078-0.162l0.032-0.297l-0.052-0.178l0.004-0.114l0.063-0.083l-0.098-0.156l0.009-0.186l0.073-0.277
		l-0.021-0.275l0.05-0.127l0.189-0.239l0.041-0.146l0.073-0.074l0.084-0.239l0.134-0.155l0.094-0.189l0.055-0.384l0.176-0.345
		L8.6,19.592l0.198-0.439l0.073-0.155l0.112-0.198L8.97,18.696v-0.109l0.145-0.188l-0.005-0.113l0.048-0.036l0.082,0.062l0.246,0.01
		l0.103,0.072l0.088-0.016l0.13,0.078l0.067,0.162l-0.025-0.176l-0.072-0.095l-0.151-0.026l-0.122-0.1l-0.196-0.016l-0.199-0.051
		l-0.016-0.078l0.053-0.059l0.045,0.021l0.084-0.1l0.006-0.14l0.042-0.11l-0.115-0.045l-0.051-0.063l0.034-0.115h0.074l0.058-0.084
		l-0.011-0.052l-0.093-0.024l-0.011-0.096l0.031-0.182l-0.036-0.188l0.072-0.37l-0.078-0.265l-0.006-0.131l0.117-0.264l0.02-0.146
		l0.052-0.016l0.333,0.292l0.177,0.112l0.322,0.021l0.116,0.059l0.067,0.131l0.066-0.031l0.068,0.004l0.047,0.09l-0.042,0.082
		l-0.149,0.058l-0.136,0.136l-0.005,0.072h0.114l0.052-0.088l0.151-0.125l0.072-0.016l0.016,0.114l-0.108,0.095l-0.084,0.171
		l-0.004,0.177l-0.048,0.051l-0.02-0.108l-0.095,0.079l-0.031-0.058l-0.104,0.13l0.042,0.074l0.121,0.061l0.155-0.104l0.047-0.125
		l0.079-0.089l0.005-0.161l0.083-0.072l0.042-0.183l0.118-0.077l0.121-0.146L10.9,16.192l-0.012-0.098l-0.046-0.043l0.083-0.113
		l0.046-0.059l-0.104-0.072l-0.022-0.12l0.126-0.094l0.015-0.099l-0.155-0.115L10.775,15.125L10.775,15.125z M44.734,25.394
		l0.029,0.054l0.078-0.006l0.064-0.061h0.1l-0.065-0.068h-0.12l-0.029,0.039L44.734,25.394L44.734,25.394z M42.543,25.986
		l-0.059,0.055l0.104-0.032l0.045-0.047l0.161-0.009l0.146-0.044l0.237-0.005l0.109-0.063l0.205,0.009l0.053-0.047l0.061,0.012
		l0.195-0.062l0.076-0.074l-0.119,0.043l-0.074-0.035l-0.141,0.061l0.052-0.075l0.055-0.063l-0.006-0.036l-0.202,0.112l-0.229,0.002
		l-0.186,0.057l-0.15-0.037l-0.205,0.086l-0.16,0.023l-0.08,0.102l0.021,0.064L42.543,25.986L42.543,25.986z M10.781,15.847
		l-0.138,0.118l-0.003,0.198l0.099,0.218l0.058-0.047l-0.081-0.271l0.026-0.119l0.079-0.032L10.781,15.847L10.781,15.847z
		 M24.48,36.918l0.06-0.039l0.15-0.188l0.105-0.137l-0.148,0.109L24.48,36.918L24.48,36.918z M24.316,37.297l0.048-0.035
		l0.068-0.178l-0.004-0.07L24.316,37.297L24.316,37.297z M24.253,38.277l-0.068-0.244l0.022-0.324l0.087-0.342l-0.129,0.322
		l-0.017,0.328C24.148,38.018,24.256,38.277,24.253,38.277z"/>
</g>
</svg>
