<?xml version="1.0" encoding="utf-8"?>
<!-- Generator: Adobe Illustrator 15.0.2, SVG Export Plug-In . SVG Version: 6.00 Build 0)  -->
<!DOCTYPE svg PUBLIC "-//W3C//DTD SVG 1.1//EN" "http://www.w3.org/Graphics/SVG/1.1/DTD/svg11.dtd">
<svg version="1.1" id="Layer_1" xmlns="http://www.w3.org/2000/svg" xmlns:xlink="http://www.w3.org/1999/xlink" x="0px" y="0px"
	 width="125px" height="125px" viewBox="0 0 125 125" enable-background="new 0 0 125 125" xml:space="preserve">
<g>
	<circle fill="none" stroke="#0069AA" stroke-width="3" stroke-miterlimit="10" cx="62.5" cy="62.5" r="59"/>
	<g>
		<path fill="#0069AA" d="M71.546,83.305c0-1.904,1.867-3.934,4.029-6.285c3.445-3.747,7.733-8.411,7.733-15.889
			c0-11.311-9.2-20.51-20.507-20.51c-11.31,0-20.511,9.199-20.511,20.51c0,7.478,4.288,12.142,7.733,15.889
			c2.161,2.352,4.029,4.381,4.029,6.285v0.462v1.353c0,0.28,0.061,0.555,0.175,0.81l0.457,1.005l-0.457,1.003
			c-0.234,0.514-0.234,1.104,0,1.619l0.457,1.003l-0.457,1.004c-0.234,0.516-0.234,1.105,0,1.621l0.457,1.004l-0.457,1.004
			c-0.114,0.256-0.175,0.53-0.175,0.81c0,1.226,0.743,2.784,4.067,3.63c0.748,1.137,2.447,1.839,4.681,1.839
			c2.229,0,3.926-0.7,4.673-1.837c2.864-0.727,3.813-1.984,4.021-3.104l0.697-1.535c0.233-0.514,0.233-1.101,0-1.613l-0.458-1.008
			l0.458-1.009c0.233-0.513,0.233-1.102,0-1.614l-0.458-1.004l0.458-1.005c0.233-0.512,0.233-1.102,0-1.613l-0.647-1.431v-0.931
			V83.305z M52.898,74.378c-3.143-3.417-6.705-7.292-6.705-13.247c0-9.156,7.45-16.606,16.608-16.606
			c9.155,0,16.603,7.45,16.603,16.606c0,5.955-3.562,9.83-6.703,13.247c-2.212,2.405-4.302,4.699-4.886,7.437h-3.063V71.228
			l5.81-11.33c0.763,0.382,1.442,0.816,1.995,1.307c0.371,0.33,0.833,0.491,1.294,0.491c0.537,0,1.075-0.222,1.46-0.656
			c0.717-0.807,0.641-2.04-0.166-2.754c-0.795-0.706-1.751-1.319-2.808-1.851l0.64-1.247c0.491-0.959,0.111-2.134-0.847-2.626
			c-0.959-0.493-2.137-0.114-2.627,0.846l-0.853,1.667c-1.826-0.473-3.807-0.738-5.85-0.738c-2.045,0-4.025,0.266-5.851,0.738
			l-0.856-1.667c-0.492-0.96-1.668-1.343-2.629-0.846c-0.956,0.492-1.336,1.667-0.844,2.626l0.641,1.249
			c-1.056,0.531-2.011,1.143-2.806,1.849c-0.807,0.714-0.883,1.947-0.165,2.754c0.712,0.804,1.947,0.882,2.754,0.165
			c0.551-0.49,1.229-0.925,1.993-1.305l5.811,11.328v10.587h-3.066C57.2,79.077,55.109,76.783,52.898,74.378z M62.802,66.482
			l-4.018-7.836c1.271-0.261,2.63-0.408,4.018-0.408s2.744,0.147,4.017,0.408L62.802,66.482z M67.817,89.554l0.457,1.005
			l-0.457,1.008c-0.232,0.514-0.232,1.1,0,1.613l0.457,1.008l-0.457,1.008c-0.03,0.066-0.058,0.136-0.08,0.205
			c-0.293,0.165-0.968,0.442-2.177,0.645c-0.6,0.102-1.12,0.477-1.402,1.017c-0.061,0.116-0.109,0.238-0.146,0.361
			c-0.561,0.149-1.862,0.149-2.425,0c-0.036-0.123-0.085-0.245-0.146-0.361c-0.281-0.54-0.802-0.915-1.403-1.017
			c-0.776-0.129-1.333-0.291-1.711-0.435l0.282-0.613c0.233-0.515,0.233-1.104,0-1.62l-0.457-1.004l0.457-1.005
			c0.234-0.515,0.233-1.105,0-1.62l-0.457-1.002l0.457-1.003c0.233-0.514,0.234-1.105,0-1.62l-0.187-0.405h4.38h4.971
			c0.022,0.069,0.015,0.143,0.045,0.208l0.457,1.008l-0.457,1.005C67.585,88.452,67.585,89.04,67.817,89.554z"/>
		<path fill="#0069AA" d="M60.85,28.271v6.851c0,1.078,0.873,1.951,1.952,1.951c1.078,0,1.951-0.873,1.951-1.951v-6.851
			c0-1.077-0.873-1.951-1.951-1.951C61.723,26.319,60.85,27.193,60.85,28.271z"/>
		<path fill="#0069AA" d="M87.871,35.498c-0.763-0.763-1.998-0.763-2.76,0l-5.698,5.699c-0.763,0.762-0.763,1.997,0,2.759
			c0.381,0.382,0.881,0.572,1.38,0.572c0.5,0,0.999-0.19,1.379-0.572l5.699-5.698C88.634,37.496,88.634,36.261,87.871,35.498z"/>
		<path fill="#0069AA" d="M97.05,60.567c0-1.078-0.874-1.952-1.951-1.952h-6.851c-1.079,0-1.951,0.874-1.951,1.952
			c0,1.079,0.872,1.952,1.951,1.952h6.851C96.176,62.52,97.05,61.646,97.05,60.567z"/>
		<path fill="#0069AA" d="M39.306,60.567c0-1.078-0.872-1.952-1.951-1.952h-6.854c-1.076,0-1.951,0.874-1.951,1.952
			c0,1.079,0.875,1.952,1.951,1.952h6.854C38.434,62.52,39.306,61.646,39.306,60.567z"/>
		<path fill="#0069AA" d="M37.729,35.498c-0.763,0.763-0.763,1.998,0,2.76l5.698,5.698c0.381,0.382,0.88,0.572,1.38,0.572
			c0.499,0,0.999-0.19,1.38-0.572c0.762-0.762,0.762-1.997,0-2.759l-5.699-5.699C39.725,34.735,38.491,34.735,37.729,35.498z"/>
		<path fill="#0069AA" d="M85.111,85.641c0.381,0.383,0.881,0.572,1.38,0.572s0.999-0.189,1.38-0.572
			c0.763-0.762,0.763-1.996,0-2.759l-5.699-5.698c-0.762-0.763-1.996-0.763-2.759,0s-0.763,1.996,0,2.759L85.111,85.641z"/>
		<path fill="#0069AA" d="M43.427,77.184l-5.698,5.698c-0.763,0.763-0.763,1.997,0,2.759c0.381,0.383,0.88,0.572,1.379,0.572
			s0.999-0.189,1.38-0.572l5.699-5.698c0.762-0.763,0.762-1.996,0-2.759C45.424,76.421,44.189,76.421,43.427,77.184z"/>
		<path fill="#0069AA" d="M49.692,28.927c-0.994,0.414-1.467,1.556-1.055,2.55l2.622,6.327c0.313,0.751,1.037,1.204,1.803,1.204
			c0.249,0,0.503-0.047,0.747-0.147c0.994-0.413,1.467-1.556,1.056-2.551l-2.622-6.327C51.829,28.988,50.687,28.516,49.692,28.927z"
			/>
		<path fill="#0069AA" d="M73.82,28.865l-3.086,7.446c-0.412,0.995,0.061,2.137,1.055,2.551c0.245,0.101,0.498,0.147,0.747,0.147
			c0.767,0,1.491-0.453,1.804-1.204l3.087-7.446c0.412-0.994-0.061-2.136-1.056-2.55C75.372,27.398,74.232,27.871,73.82,28.865z"/>
		<path fill="#0069AA" d="M86.313,52.78c0.25,0,0.502-0.048,0.747-0.148l6.327-2.622c0.994-0.414,1.467-1.556,1.056-2.551
			c-0.412-0.994-1.556-1.471-2.55-1.055l-6.327,2.622c-0.995,0.413-1.468,1.555-1.057,2.55C84.821,52.327,85.546,52.78,86.313,52.78
			z"/>
		<path fill="#0069AA" d="M33.706,74.731l6.331-2.622c0.996-0.411,1.469-1.553,1.057-2.55c-0.412-0.995-1.555-1.47-2.551-1.056
			l-6.331,2.623c-0.994,0.411-1.467,1.553-1.055,2.549c0.313,0.752,1.039,1.205,1.804,1.205
			C33.211,74.881,33.463,74.834,33.706,74.731z"/>
		<path fill="#0069AA" d="M30.04,46.998c-0.412,0.996,0.061,2.139,1.056,2.551l7.447,3.083c0.245,0.101,0.499,0.148,0.747,0.148
			c0.767,0,1.493-0.453,1.804-1.204c0.412-0.997-0.061-2.139-1.057-2.55l-7.447-3.084C31.592,45.53,30.451,46.003,30.04,46.998z"/>
		<path fill="#0069AA" d="M93.756,75.342c0.767,0,1.492-0.454,1.804-1.204c0.411-0.997-0.062-2.139-1.057-2.551l-7.447-3.083
			c-0.997-0.414-2.139,0.061-2.55,1.056c-0.412,0.997,0.061,2.139,1.056,2.55l7.447,3.084
			C93.253,75.295,93.507,75.342,93.756,75.342z"/>
	</g>
</g>
</svg>
